<?xml version="1.0" encoding="UTF-8"?>
<!DOCTYPE svg PUBLIC "-//W3C//DTD SVG 1.1//EN" "http://www.w3.org/Graphics/SVG/1.1/DTD/svg11.dtd">
<!-- Creator: CorelDRAW 2018 (64-Bit) -->
<svg xmlns="http://www.w3.org/2000/svg" xml:space="preserve" width="162.56mm" height="72.8132mm" version="1.1" style="shape-rendering:geometricPrecision; text-rendering:geometricPrecision; image-rendering:optimizeQuality; fill-rule:evenodd; clip-rule:evenodd"
viewBox="0 0 4940 2212.71"
 xmlns:xlink="http://www.w3.org/1999/xlink">
 <g>
  <metadata/>
  <rect x="-0" y="-0" width="4940" height="2212.71"/>
  <g>
   <path d="M1953.77 439.65c94.3,-25.36 188.78,-49.97 283.05,-75.36 42.56,25.21 85.42,50.03 126.25,77.99 49.89,34.45 97.36,72.3 143.18,111.98 -0.05,7.34 -0.08,14.7 -0.05,22.07 28.97,32.93 57.48,66.27 86.73,98.97 11.45,12.2 19.22,27.55 31.75,38.78 9,4.04 18.7,6.33 28.15,9.22l0 3.37 -0.02 -2.81c-8.13,9.94 -15.36,20.68 -19.99,32.73 -12.76,23.3 -28.2,45.06 -43.09,67 -3.91,17.43 -7.18,35.12 -9.65,52.83 3.04,11.92 9.37,22.79 14.02,34.17 -12.17,5.69 -23.54,13.91 -37.18,15.55 13.4,18.95 26.5,38.13 40.09,56.98 16.36,22.22 30.41,46.01 46.34,68.54 -10.63,5.46 -22.41,8.47 -32.44,15.06l-3.04 0c-6.69,-9.91 -16,-17.61 -23.82,-26.57 -7.67,-7.83 -14.28,-16.71 -22.56,-23.89 -13.02,-4.04 -26.84,-4.94 -40.21,-7.62 -0.8,7.52 -0.93,15.11 -1.67,22.66 -8.77,-4.63 -14.25,-13.16 -19.17,-21.45 -2.08,-0.49 -4.14,-0.95 -6.23,-1.42 -0.57,-1.65 -1.75,-4.94 -2.34,-6.56 -6.59,-4.51 -13.02,-9.19 -19.25,-14.19 -6.23,-10.27 -15.77,-17.51 -25.91,-23.61 -6.48,-3.25 -8.9,-10.14 -12.09,-16.09 -3.4,-2.65 -7.38,-4.45 -10.6,-7.31 -3.11,-4.84 -4.94,-10.41 -7.85,-15.4 -1.72,-4.89 -1.95,-12 -8.15,-13.34 -6.82,-3.4 -14.02,-1.52 -20.12,2.34 -1.65,-0.67 -4.94,-2.01 -6.59,-2.68 0.72,3.17 1.83,6.18 3.29,9.09 -1.83,2.03 -3.7,4.01 -5.61,6.02 -0.9,-1.83 -2.7,-5.48 -3.58,-7.31 -5.48,-0.31 -9.31,-2.99 -9.96,-8.78 -1.57,0.9 -4.68,2.73 -6.23,3.66 -1.98,-4.4 -4.25,-8.68 -6.35,-13 3.91,1.29 7.69,3.07 11.55,4.53 2.88,-3.89 3.91,-8.75 5.58,-13.21 -3.11,-3.48 -6.25,-6.95 -9.37,-10.4 2.73,-1.67 5.48,-3.35 8.26,-4.97 0.33,-2.76 0.67,-5.51 1,-8.27 -2.73,0.57 -5.48,1.08 -8.2,1.55 -1.93,-2.34 -3.24,-5.1 -4.73,-7.67 -3.27,1.96 -6.41,4.17 -9.83,5.84 -12.78,-9.73 -29.05,-2.65 -43.58,-4.74 -2.6,-4.53 -4.86,-9.24 -7.9,-13.49 -3.89,-4.45 -11.81,-5.92 -12.5,-12.67 -0.88,-7.16 -3.73,-13.85 -7.95,-19.67 -1.91,-2.29 -4.4,-4.04 -6.56,-6.03 1.54,6.39 3.32,12.93 7.43,18.23l2.78 3.78c0.26,0.93 0.8,2.78 1.05,3.73 -5.87,-0.15 -13.48,1.88 -17.08,-4.2 -12.02,-14.73 -22.98,-30.43 -37.33,-43.1 -1.46,8.83 0.36,17.97 -0.46,26.93 -11.17,2.37 -20.71,-3.11 -30.1,-8.16 -7.95,0.7 -15.05,4.84 -21.15,9.76 5.35,4.53 11.55,7.85 17.86,10.84 4.76,11.23 8.75,23.38 17.39,32.31 3.17,2.96 4.56,7 5.59,11.13 -5.17,-1.01 -10.29,-2.24 -15.39,-3.56 -2.63,-9.58 -4.68,-20.47 -13.15,-26.83 -5.56,-3.22 -11.63,1.03 -17.24,2.08 0.95,-2.14 1.93,-4.25 2.91,-6.38 -4.09,-2.22 -7.95,-4.87 -9.93,-9.24 -2.86,4.45 -5.58,8.99 -8.05,13.67 -1.67,0.33 -4.99,0.95 -6.66,1.29 2.19,3.09 4.53,6.07 6.51,9.3 -3.04,8.37 -6.02,16.76 -9.44,24.97 -1.6,-0.08 -4.81,-0.18 -6.41,-0.26 0.49,1.39 1.46,4.15 1.95,5.51 -11.86,-0.95 -23.51,3.14 -35.33,1.34 -9.41,-1.13 -18.94,-0.39 -28.38,-1.39 -9.65,8.47 -14.72,20.65 -23.62,29.81 -4.17,6.1 -13.2,8.86 -13.81,17.07 -1.21,13.21 -1.65,26.75 1.77,39.68 0.36,7.88 -1.93,15.63 -2.63,23.46 1.77,2.52 3.58,5.04 5.38,7.59 2.21,-0.05 6.61,-0.15 8.82,-0.21 -6.79,4.97 -16.85,8.4 -14.98,18.82 -10.42,2.5 -19.68,-4.89 -29.95,-5.12 -30.1,-2.94 -59.9,-8.62 -90,-11.59l0 -6.75c2.16,-18.74 2.6,-37.62 4.14,-56.41 4.68,-76.37 10.5,-152.66 15.7,-228.97 5.53,-90.53 11.65,-181 16.95,-271.55l0 0zm286.44 -65.58c-10.37,21.97 -18.86,44.88 -23.41,68.8 -0.95,7.75 0.74,15.53 0.18,23.28 -3.04,11.3 -12.02,20.08 -14.64,31.51 -0.62,10.22 0.02,20.88 3.52,30.56 5.3,6.15 11.48,11.64 15.49,18.85 5.74,0.26 11.5,0.49 17.24,0.64 1.57,-15.04 1.05,-30.15 -1.36,-45.06 -3.09,-19.54 7.93,-37.34 9.08,-56.47 0.88,-12.82 0.1,-25.77 2.24,-38.49 1.08,-8.65 3.65,-17.05 4.53,-25.7 -3.09,-4.17 -8.49,-5.54 -12.86,-7.93l0 0zm77.93 45.5c-0.62,12.23 1.88,24.54 -0.02,36.66 -4.09,17.04 -12.79,33.42 -11.3,51.44 0,13.9 7.02,26.13 11.24,39.01 2.32,9.45 12.37,13 20.22,16.74 0.75,-3.04 1.52,-6.05 2.32,-9.09 14.08,-4.89 22.67,-18.51 29.28,-31.1 3.91,-9.48 15.57,-11.79 20.53,-20.44 4.14,-7.26 7.95,-14.73 12.66,-21.68 -5.43,-4.45 -10.65,-9.14 -15.62,-14.11 -13.38,-13.57 -30.39,-22.53 -45.95,-33.21 -7.52,-5.2 -15.26,-10.04 -23.36,-14.21z"/>
   <path d="M1953.77 439.65c94.3,-25.36 188.78,-49.97 283.05,-75.36 42.56,25.21 85.42,50.03 126.25,77.99 49.89,34.45 97.36,72.3 143.18,111.98 -0.05,7.34 -0.08,14.7 -0.05,22.07 28.97,32.93 57.48,66.27 86.73,98.97 11.45,12.2 19.22,27.55 31.75,38.78 9,4.04 18.7,6.33 28.15,9.22l0 3.37 -0.02 -2.81c-8.13,9.94 -15.36,20.68 -19.99,32.73 -12.76,23.3 -28.2,45.06 -43.09,67 -3.91,17.43 -7.18,35.12 -9.65,52.83 3.04,11.92 9.37,22.79 14.02,34.17 -12.17,5.69 -23.54,13.91 -37.18,15.55 13.4,18.95 26.5,38.13 40.09,56.98 16.36,22.22 30.41,46.01 46.34,68.54 -10.63,5.46 -22.41,8.47 -32.44,15.06l-3.04 0c-6.69,-9.91 -16,-17.61 -23.82,-26.57 -7.67,-7.83 -14.28,-16.71 -22.56,-23.89 -13.02,-4.04 -26.84,-4.94 -40.21,-7.62 -0.8,7.52 -0.93,15.11 -1.67,22.66 -8.77,-4.63 -14.25,-13.16 -19.17,-21.45 -2.08,-0.49 -4.14,-0.95 -6.23,-1.42 -0.57,-1.65 -1.75,-4.94 -2.34,-6.56 -6.59,-4.51 -13.02,-9.19 -19.25,-14.19 -6.23,-10.27 -15.77,-17.51 -25.91,-23.61 -6.48,-3.25 -8.9,-10.14 -12.09,-16.09 -3.4,-2.65 -7.38,-4.45 -10.6,-7.31 -3.11,-4.84 -4.94,-10.41 -7.85,-15.4 -1.72,-4.89 -1.95,-12 -8.15,-13.34 -6.82,-3.4 -14.02,-1.52 -20.12,2.34 -1.65,-0.67 -4.94,-2.01 -6.59,-2.68 0.72,3.17 1.83,6.18 3.29,9.09 -1.83,2.03 -3.7,4.01 -5.61,6.02 -0.9,-1.83 -2.7,-5.48 -3.58,-7.31 -5.48,-0.31 -9.31,-2.99 -9.96,-8.78 -1.57,0.9 -4.68,2.73 -6.23,3.66 -1.98,-4.4 -4.25,-8.68 -6.35,-13 3.91,1.29 7.69,3.07 11.55,4.53 2.88,-3.89 3.91,-8.75 5.58,-13.21 -3.11,-3.48 -6.25,-6.95 -9.37,-10.4 2.73,-1.67 5.48,-3.35 8.26,-4.97 0.33,-2.76 0.67,-5.51 1,-8.27 -2.73,0.57 -5.48,1.08 -8.2,1.55 -1.93,-2.34 -3.24,-5.1 -4.73,-7.67 -3.27,1.96 -6.41,4.17 -9.83,5.84 -12.78,-9.73 -29.05,-2.65 -43.58,-4.74 -2.6,-4.53 -4.86,-9.24 -7.9,-13.49 -3.89,-4.45 -11.81,-5.92 -12.5,-12.67 -0.88,-7.16 -3.73,-13.85 -7.95,-19.67 -1.91,-2.29 -4.4,-4.04 -6.56,-6.03 1.54,6.39 3.32,12.93 7.43,18.23l2.78 3.78c0.26,0.93 0.8,2.78 1.05,3.73 -5.87,-0.15 -13.48,1.88 -17.08,-4.2 -12.02,-14.73 -22.98,-30.43 -37.33,-43.1 -1.46,8.83 0.36,17.97 -0.46,26.93 -11.17,2.37 -20.71,-3.11 -30.1,-8.16 -7.95,0.7 -15.05,4.84 -21.15,9.76 5.35,4.53 11.55,7.85 17.86,10.84 4.76,11.23 8.75,23.38 17.39,32.31 3.17,2.96 4.56,7 5.59,11.13 -5.17,-1.01 -10.29,-2.24 -15.39,-3.56 -2.63,-9.58 -4.68,-20.47 -13.15,-26.83 -5.56,-3.22 -11.63,1.03 -17.24,2.08 0.95,-2.14 1.93,-4.25 2.91,-6.38 -4.09,-2.22 -7.95,-4.87 -9.93,-9.24 -2.86,4.45 -5.58,8.99 -8.05,13.67 -1.67,0.33 -4.99,0.95 -6.66,1.29 2.19,3.09 4.53,6.07 6.51,9.3 -3.04,8.37 -6.02,16.76 -9.44,24.97 -1.6,-0.08 -4.81,-0.18 -6.41,-0.26 0.49,1.39 1.46,4.15 1.95,5.51 -11.86,-0.95 -23.51,3.14 -35.33,1.34 -9.41,-1.13 -18.94,-0.39 -28.38,-1.39 -9.65,8.47 -14.72,20.65 -23.62,29.81 -4.17,6.1 -13.2,8.86 -13.81,17.07 -1.21,13.21 -1.65,26.75 1.77,39.68 0.36,7.88 -1.93,15.63 -2.63,23.46 1.77,2.52 3.58,5.04 5.38,7.59 2.21,-0.05 6.61,-0.15 8.82,-0.21 -6.79,4.97 -16.85,8.4 -14.98,18.82 -10.42,2.5 -19.68,-4.89 -29.95,-5.12 -30.1,-2.94 -59.9,-8.62 -90,-11.59l0 -6.75c2.16,-18.74 2.6,-37.62 4.14,-56.41 4.68,-76.37 10.5,-152.66 15.7,-228.97 5.53,-90.53 11.65,-181 16.95,-271.55m286.44 -65.58c-10.37,21.97 -18.86,44.88 -23.41,68.8 -0.95,7.75 0.74,15.53 0.18,23.28 -3.04,11.3 -12.02,20.08 -14.64,31.51 -0.62,10.22 0.02,20.88 3.52,30.56 5.3,6.15 11.48,11.64 15.49,18.85 5.74,0.26 11.5,0.49 17.24,0.64 1.57,-15.04 1.05,-30.15 -1.36,-45.06 -3.09,-19.54 7.93,-37.34 9.08,-56.47 0.88,-12.82 0.1,-25.77 2.24,-38.49 1.08,-8.65 3.65,-17.05 4.53,-25.7 -3.09,-4.17 -8.49,-5.54 -12.86,-7.93m77.93 45.5c-0.62,12.23 1.88,24.54 -0.02,36.66 -4.09,17.04 -12.79,33.42 -11.3,51.44 0,13.9 7.02,26.13 11.24,39.01 2.32,9.45 12.37,13 20.22,16.74 0.75,-3.04 1.52,-6.05 2.32,-9.09 14.08,-4.89 22.67,-18.51 29.28,-31.1 3.91,-9.48 15.57,-11.79 20.53,-20.44 4.14,-7.26 7.95,-14.73 12.66,-21.68 -5.43,-4.45 -10.65,-9.14 -15.62,-14.11 -13.38,-13.57 -30.39,-22.53 -45.95,-33.21 -7.52,-5.2 -15.26,-10.04 -23.36,-14.21z"/>
  </g>
  <path d="M2240.22 374.07c4.37,2.39 9.78,3.76 12.86,7.93 -0.88,8.65 -3.45,17.05 -4.53,25.7 -2.14,12.72 -1.36,25.67 -2.24,38.49 -1.16,19.13 -12.17,36.92 -9.08,56.47 2.42,14.91 2.93,30.02 1.36,45.06 -5.74,-0.15 -11.5,-0.39 -17.24,-0.64 -4.01,-7.21 -10.19,-12.69 -15.49,-18.85 -3.5,-9.68 -4.14,-20.34 -3.52,-30.56 2.62,-11.43 11.6,-20.21 14.64,-31.51 0.57,-7.75 -1.13,-15.53 -0.18,-23.28 4.55,-23.92 13.04,-46.83 23.41,-68.8zm77.93 45.5c8.1,4.17 15.85,9.01 23.36,14.21 15.57,10.68 32.57,19.64 45.95,33.21 4.97,4.97 10.19,9.65 15.62,14.11 -4.71,6.95 -8.51,14.42 -12.66,21.68 -4.97,8.65 -16.62,10.97 -20.53,20.44 -6.61,12.59 -15.2,26.21 -29.28,31.1 -0.8,3.04 -1.57,6.05 -2.32,9.09 -7.85,-3.73 -17.91,-7.29 -20.22,-16.74 -4.22,-12.88 -11.24,-25.1 -11.24,-39.01 -1.49,-18.02 7.2,-34.4 11.3,-51.44 1.9,-12.13 -0.59,-24.44 0.02,-36.66z"/>
  <path d="M2268.62 812.05c2.16,1.98 4.66,3.73 6.56,6.03 0.69,5.43 2.01,10.76 3.65,15.99l-2.78 -3.78c-4.11,-5.3 -5.89,-11.84 -7.43,-18.23z"/>
  <path d="M2395.7 910.33l3.24 0c3.7,0.77 7.51,1.34 10.93,3.09 5.17,2.49 5.12,8.98 7.31,13.56 2.55,5.2 4.58,10.73 7.93,15.46 3.24,2.21 6.87,3.81 10.17,5.94 2.96,3.96 3.45,9.49 7.28,12.86 8.77,7.75 20.84,11.63 27.3,21.87 6.2,9.24 16.29,14.36 25.21,20.4 0.1,1.13 0.31,3.42 0.39,4.58 8.98,0.74 9.6,11.89 15.72,15.28 2.11,2.7 4.17,5.43 6.2,8.18 3.14,-7.41 1.49,-15.67 3.68,-23.31 12.68,2.8 25.62,4.17 38.34,6.82 4.04,0.62 6.51,4.19 9.24,6.84 11.22,12.22 22.57,24.34 34.12,36.23 2.75,2.73 5.51,5.48 8.29,8.18 1.46,-0.82 4.45,-2.5 5.94,-3.32 5.4,5.15 10.68,10.4 16.08,15.49 4.12,3.86 8.1,7.82 12.04,11.86l0 4.3c-1.62,3.63 -3.81,6.95 -6.51,9.86 -11.53,9.37 -23.28,18.4 -35.32,27.09l-0.49 0c-0.88,-3.86 -1.49,-7.75 -2.11,-11.63l-1.23 -0.08c-5.48,-7.95 -6.82,-17.62 -9.26,-26.76 -0.98,-10.4 -0.36,-21.74 -6.46,-30.85 -7.03,-11.83 -19.12,-19.04 -27.99,-29.3 -3.29,-4.35 -9.24,-5.51 -14.1,-3.22 -6.07,6.22 -10.78,13.84 -12.33,22.48 -4.12,0.18 -8.57,1.44 -12.35,-0.82 -7.62,-4.17 -16.11,-6.25 -23.9,-9.96 -5.48,-5.04 -9.8,-11.24 -15.36,-16.21 -0.26,1.83 -0.72,5.48 -0.95,7.31 -3.7,-2.78 -6.46,-7.66 -11.53,-7.95 -12.71,-1.16 -26.16,-4.14 -38.44,0.88 -4.76,1.49 -9.88,4.5 -14.92,2.24 -8.29,-2.88 -10.45,-13.56 -19.04,-15.77 -11.58,-3.19 -19.12,-13.07 -28.15,-20.28l0 -3.58c0.36,0.33 1.08,0.98 1.44,1.31 2.49,-8.75 8.31,-15.7 14.05,-22.46 -4.5,-7.67 -10.57,-14.36 -15.15,-22.03 2.8,-3.63 5.17,-7.59 7,-11.81 2.39,1.49 4.81,2.98 7.23,4.48 1.23,0.08 3.68,0.23 4.91,0.31 3.06,4.04 6.38,7.9 9.78,11.65 0.67,-1.62 1.96,-4.81 2.6,-6.41 -4.19,-7.79 -15.2,-7.05 -19.42,-15.23 1.31,-1.44 3.88,-4.32 5.17,-5.76 -1.34,-2.29 -2.68,-4.58 -4.04,-6.87 2.86,-2.68 6.2,-2.47 9.62,-1.08 2.75,-1.03 5.22,-2.63 7.87,-3.89z"/>
  <path d="M2648.09 986.86l3.6 0c1.46,5.64 2.39,11.45 4.71,16.8 6.9,10.06 18.91,15.41 25.03,26.09 5.09,8.08 7.23,17.73 13.43,25.16 2.24,-0.28 6.72,-0.82 8.95,-1.08 28.69,8.75 55.34,23.41 78.66,42.27 0.23,1.88 0.69,5.66 0.93,7.54 5.92,-1.65 13.09,-1.77 17.52,-6.61 5.97,-10.16 10.01,-21.9 18.66,-30.23 3.96,0.57 7.59,2.67 9.8,6.04 -0.15,6.43 -1,12.84 -0.85,19.27 12.38,-0.54 24.6,1.34 36.87,2.7 1.08,-5.69 1.52,-11.58 3.81,-16.96 8.72,-1.39 17.73,0.03 26.37,-1.9 6.05,-1.06 7.77,-7.75 11.42,-11.81 4.5,1.21 4.22,6.33 4.99,10.01 1.11,8.51 1.85,17.08 3.01,25.58 10.62,4.01 21.53,8.05 33.04,8.28 12.07,0.15 24.08,4.14 36.07,1.21l0 0.05c-7.82,7.74 -5.12,18.04 -2.75,27.4 -5.28,-0.57 -10.52,-1.47 -15.77,-2.24 0.64,1.93 1.95,5.76 2.6,7.67 -2.96,8.44 -9.21,14.97 -13.4,22.74 -10.91,1.72 -21.64,-1.77 -31.52,-6.1 -3.04,5.45 -0.8,11.14 1.67,16.21 -1.54,0.9 -4.63,2.7 -6.18,3.6 2.29,2.14 4.63,4.22 6.79,6.53 -1.65,3.4 -5.76,4.56 -8.52,6.92 -6.41,3.76 -5.58,13.02 -11.47,17.34 -4.55,4.04 -11.4,7.33 -11.58,14.31 -1.29,5.81 3.24,10.09 6.56,14.18 5.07,5.45 9.39,11.58 14.98,16.52 2.11,-0.93 4.17,-1.91 6.23,-2.94 1.11,1.26 3.32,3.78 4.42,5.04 5.43,1.72 12.07,1.8 16.24,6.15 1.15,4.09 -0.59,8.29 -0.98,12.38 3.83,0.59 8.67,-0.64 11.27,3.06 4.81,4.11 2.75,10.91 3.35,16.41 -13.28,8.28 -23.9,19.99 -33.91,31.83 2.26,5.12 5.58,9.68 8.62,14.36 -14.3,5.58 -28.89,10.44 -43.69,14.51 -8.24,1.75 -12.09,10.17 -18.19,15.1 -0.33,1.26 -0.98,3.81 -1.31,5.1l-3.01 0c-1.13,-2.8 -2.88,-5.15 -5.22,-7.03 -6.12,1.85 -11.99,4.35 -17.94,6.69 -19.99,-13.74 -40.24,-27.07 -59.97,-41.16 -1.7,-3.35 -2.83,-7.31 -6.15,-9.44 -46.77,-33.83 -95.1,-65.58 -140.45,-101.29 -14.82,-11.47 -4.43,-31.91 -13.17,-45.87 -0.08,-12.58 -3.53,-27.35 -14.77,-34.56 -6.02,-5.04 -11.01,-11.14 -16.42,-16.8l0 -0.46c13.43,-8.41 26.17,-18.04 37.59,-29.02 3.04,-3.01 5.63,-8.77 1.8,-12.2 -8.05,-8.93 -17.47,-16.52 -25.7,-25.27 9.19,-3.68 18.29,-7.51 27.45,-11.24 -11.83,-15.95 -22.33,-32.8 -33.29,-49.35 16.8,-2.91 33.14,-7.85 49.79,-11.5z"/>
  <path d="M2879.15 666.82c11.79,-6.64 23.35,-13.73 35.22,-20.27 3.71,-2.76 8.16,0.02 12.13,0.46 7.8,11.36 14.21,23.77 22.99,34.38 11.64,8.4 24.41,15.12 36.33,23.13 4.22,2.6 5.87,7.55 8.19,11.69 9.48,19.57 20.11,38.58 31.36,57.2 9.3,-5.07 18.69,-9.99 28.09,-14.91 0.8,31.5 1.98,62.99 1.85,94.49 -3.29,-0.93 -6.59,-1.88 -9.89,-2.83 1.67,20.83 1.85,41.72 2.5,62.61 20.44,2.42 40.96,4.28 61.35,7.16 7.34,40.69 16.35,81.18 29.22,120.5 -3.6,0.88 -7.18,1.78 -10.76,2.7 0.8,7.06 1.42,14.14 2.03,21.24 3.25,0.98 8.09,-0.31 10.14,3.12 4.07,8.68 6.26,18.13 7.83,27.56 -3.42,4.43 -6.64,8.99 -9.68,13.7 -0.64,7.31 -1.23,19.73 -11.79,16.71 -3.4,-6.39 -8.24,-11.8 -13.08,-17.1 -1.77,0.15 -5.33,0.44 -7.08,0.59 0.57,-2.01 1.75,-6 2.32,-7.98 -4.45,-0.95 -8.93,-1.7 -13.44,-2.29 -4.04,8.14 -7.78,16.51 -12.54,24.31 0.51,3.68 1,7.39 1.49,11.1 -1.29,1.08 -3.91,3.25 -5.23,4.33 1.39,3.5 2.6,7.08 3.68,10.69 -1.03,5.25 -4.35,10.22 -2.65,15.74 -1.88,2.29 -3.78,4.58 -5.72,6.83 -0.46,3.86 -0.9,7.7 -1.31,11.56 1.55,-1.16 4.58,-3.48 6.1,-4.66 5.61,6.13 -1.57,13.73 -3.11,20.24 -9.81,1.47 -18.61,5.62 -27.14,10.48 -11.66,0.21 -23.22,-5.38 -31.46,-13.52 -4.81,-5.2 -11.56,-7.52 -18.15,-9.48 -2.09,4.79 -4.3,9.53 -6.59,14.24 7.36,4.82 -0.36,12.23 3.09,18.65 1.44,3.91 -4.4,5 -6.49,7.29 -3.97,-2.08 -7.9,-4.17 -11.85,-6.28 -1.88,2.6 -3.63,5.33 -5.76,7.75 -4.07,2.16 -9.06,0.39 -13.44,0.7 7.1,9.79 12.38,22.07 9.76,34.33 -2.01,8.81 -1.11,17.87 2.42,26.17 -3.84,0.62 -7.52,1.72 -11.04,3.29l-0.85 1.29 -2.7 0c-0.64,-4.35 -1.03,-8.73 -0.9,-13.11 -3.04,-4.63 -7.7,-6.9 -13.26,-5.18 -2.68,-4.28 0.44,-9.45 0.49,-14.04 -6.93,-3.99 -16.5,-3.22 -20.93,-10.87 -1.08,1.23 -3.27,3.73 -4.38,4.97 -7.16,-7.49 -14.06,-15.3 -20.55,-23.36 -5.04,-5.36 -4.12,-14.47 1.29,-19.19 3.19,-2.86 7,-5 9.89,-8.22 2.6,-4.51 3.55,-9.94 6.93,-13.98 3.25,-2.65 7.13,-4.3 10.76,-6.31 -2.7,-2.42 -5.41,-4.82 -8.14,-7.21 2.27,-1.44 4.56,-2.86 6.85,-4.3 -3.01,-4.51 -6.33,-14.6 1.26,-16.22 9.32,3.09 18.74,6.72 28.84,5.56 3.73,-7.34 10.2,-13.06 12.67,-21.07 -0.49,-1.8 -1.47,-5.36 -1.96,-7.14 4.12,-4.84 10.33,-0.2 15.32,0.29 -2.06,-8.24 -5.43,-17.82 1.78,-24.7 -9.96,2.94 -19.88,-1.36 -29.92,-1.16 -11.71,0.18 -23.04,-3.35 -33.91,-7.39 -2.91,-1.01 -4.32,-3.97 -4.5,-6.85 -1.57,-10.07 -1.52,-20.4 -4.53,-30.21 -3.35,4.22 -5.69,10.07 -11.25,11.8 -8.8,2.7 -18.18,1.57 -27.24,2.11 -0.93,5.43 -1.65,10.89 -2.29,16.38 -13.18,0.41 -26.23,-2.76 -39.44,-1.67 -1.42,-6.8 -0.21,-13.6 0.33,-20.4 -1.5,-3.35 -5.77,-3.94 -8.62,-5.72 -6,8.76 -11.28,17.95 -15.76,27.56 -4.09,7.85 -13.8,8.91 -21.65,9.37 -0.13,-1.93 -0.34,-5.84 -0.46,-7.8 -22.27,-18.29 -47.99,-32.04 -75.36,-41 -4.76,-0.8 -11.22,2.47 -14.16,-3.01 -4.45,-7.16 -6.52,-15.56 -11.12,-22.66 -5.28,-9.14 -14.93,-14.24 -21.94,-21.84 -5.07,-5.3 -5.53,-13.06 -7.28,-19.8 -17.15,3.01 -33.7,8.5 -50.82,11.64 -18.87,-26.27 -37.93,-52.46 -55.84,-79.4l0 0c14.21,1.39 25.82,-8.5 38.16,-13.93 -4.61,-10.79 -10.12,-21.3 -13.85,-32.42 2.57,-18.39 5.79,-36.9 10.14,-54.93 15.37,-21.19 29.99,-43.03 42.89,-65.83 4.3,-11.92 11.66,-22.2 19.31,-32.19 -11.09,-4.82 -25.75,-4.43 -33.01,-15.48 -6.87,-8.09 -13.33,-16.59 -18.43,-25.93 16.79,-0.85 33.49,-2.94 50.33,-2.86 31.13,-4.56 61.69,-12.41 92.61,-18.11 39.37,3.99 78.81,9.17 118.4,10.48 8.91,-0.2 18.85,3.53 26.93,-1.57z"/>
  <path d="M3092.49 1098.47c5.49,0.75 10.97,1.57 16.48,2.29 -0.51,2.47 -1.03,4.94 -1.57,7.41 9.71,0.15 13.52,10.63 19.19,16.81 6.23,-1.6 9.97,3.37 4.15,7.96 5.07,-3.4 10.36,-1.44 15.48,0.23 4.17,-1.42 8.32,-3.22 12.85,-2.91 2.08,7.16 3.35,14.52 2.42,21.98 -1.11,0.67 -3.32,2.01 -4.4,2.68 1.98,7.8 7.65,12.95 14.58,16.53 1.42,0.31 4.3,0.95 5.75,1.29 -2.58,3.86 -5.33,7.59 -8.22,11.22 13.52,0.08 14.68,15.22 19.24,24.61 1.44,4.94 7.65,6.62 11.59,3.5 4.84,3.5 10.54,1.29 15.84,0.64 2.45,-1.8 4.89,-3.55 7.39,-5.3 2.24,11.04 15.22,13.57 21.17,22.01 -2.32,2.68 -5.31,3.68 -8.94,2.98 -2.78,2.86 -5.51,5.74 -8.27,8.62 -1.24,5.43 -3.22,11.1 -0.46,16.45 6.44,-4.51 10.77,3.37 15.25,6.54 -1.57,0.54 -4.69,1.6 -6.26,2.11 1.55,2.16 3.09,4.32 4.59,6.51 -2.65,0.08 -7.96,0.23 -10.61,0.29 7.73,6.25 10.28,16.53 12.03,25.85 -1.98,6.54 -10.17,6.64 -14.94,10.2 -8.68,-1.91 -17.59,-2.57 -26.25,-4.61 -3.73,-0.54 -8.27,-1.93 -11.54,0.67 -1.85,2.96 -2.7,6.38 -4.12,9.55l-3.17 0c-2.45,-3.86 -7.75,-2.99 -11.61,-2.86 -6.49,-3.35 -4.43,-11.2 -5.54,-17.15 -5.31,-0.62 -10.38,-2.34 -15.12,-4.79 -11.56,0.59 -16.48,13 -27.48,14.91 -7.6,-6.28 -17.08,-3.53 -25.42,-0.72 -1.98,-2.34 -3.97,-4.66 -5.95,-7 -3.99,1.88 -7.98,3.73 -11.98,5.66 -1.8,4.04 -3.58,9.94 -8.99,10.02 -8.86,1.65 -15.4,-5.69 -19.04,-12.75 -4.45,-9.89 -13.6,-16.5 -22.12,-22.65 0.02,2.19 0.05,6.54 0.08,8.73 -5.43,6.72 -14.09,2.19 -20.89,5.66 -8.94,4.19 -18.75,-0.31 -28.1,-0.05 -4.56,-0.88 -12.31,1.65 -13.16,-5.02 -4.17,-9.19 -0.72,-19.03 0,-28.5 0.36,-10.86 -6.42,-20.03 -10.15,-29.76 1.93,0.18 5.82,0.57 7.78,0.75 6.39,1.62 9.09,-5.18 12.16,-9.27 5.41,2.86 12.78,10.02 17.67,2.55 -1.24,-4.79 -2.68,-9.71 1.01,-13.83 -9.07,-6.28 0.9,-15.37 2.83,-22.71 6.47,2.47 13.55,4.22 18.39,9.55 8.34,8.5 20.45,14.55 32.4,13.7 7.93,-4.92 16.38,-8.7 25.71,-9.94 2.01,-5.56 3.99,-11.15 6.05,-16.71 -3.07,0.54 -6.23,3.14 -9.45,1.91 -0.44,-3.97 0.46,-7.9 1.08,-11.79 1.86,-1.77 3.71,-3.58 5.54,-5.38 -0.31,-2.37 -0.64,-4.73 -0.95,-7.1 5.67,-5.92 1.75,-13.39 0.8,-20.21 6.46,-6.51 0.98,-16.45 6.83,-23.22 3.91,-5.51 6.77,-11.59 8.4,-18.15z"/>
  <path d="M3027.35 1277.48l1.39 0c7.07,5.89 13.84,12.17 20.12,18.91 3.27,7.98 9.03,18.04 19.07,17.03 5.69,0.46 6.97,-6.33 9.13,-10.13 4.3,-1.88 8.59,-3.76 12.89,-5.66 2.03,2.26 4.09,4.53 6.12,6.77 8.39,-2.96 17.63,-5.4 25.04,1.11 10.14,-3.42 15.82,-14.18 27.04,-15.28 5.1,2.39 10.99,3.16 15.7,6.33 2.68,4.25 1.47,9.73 2.08,14.49 5.48,0.85 10.99,1.65 16.47,2.73 1.72,-3.94 2.96,-10.96 8.75,-10.34 10.5,1.13 20.79,3.58 31.18,5.33 0.98,3.99 1.93,8 2.78,12.04 8.28,2.44 16.65,6.28 25.45,4.3 4.3,2.67 8.49,5.51 12.74,8.28 0.85,6.23 1.93,12.43 2.6,18.7 -5.51,-0.08 -10.81,1.03 -14.95,4.86 -2.03,-1.08 -4.07,-2.13 -6.1,-3.22 2.24,6.97 3.63,14.15 4.42,21.43 -0.2,0.88 -0.62,2.57 -0.82,3.42 4.07,6.38 2.26,13.76 -0.28,20.33 -5.22,0.15 -10.55,-0.52 -15.64,0.72 -4.76,1.77 -6.07,7.05 -8.59,10.91 -3.65,8.13 -11.89,12.55 -16.8,19.76 -2.49,5.38 -2.8,11.58 -5.74,16.75 -12.04,6.25 -21.46,16.31 -33.19,23.08 0.93,5.82 2.39,13.51 -3.53,17.34 -9.21,6.71 -17.03,15.8 -20.74,26.73l-2.83 0c-6.35,-6.97 -16.31,-3.27 -24.39,-5.3 -8.28,-2.65 -19.09,-4.91 -19.3,-15.67 -14.62,-6.1 -30.93,-7.72 -44.51,-16.11 -13.38,4.94 -27.97,0.8 -41.61,-0.98 -22.59,-14.87 -46.26,-28.95 -65.59,-48.14 -17.57,0 -27.58,-17.67 -42.69,-24.16 -13.66,-5.2 -25.55,-14.23 -34.22,-26.01 -1.06,0.1 -3.19,0.33 -4.27,0.44l0 -1.11c6.02,-6.48 10.83,-14.36 17.91,-19.76 15.31,-5.15 30.93,-9.47 45.98,-15.54 -2.91,-4.48 -5.76,-8.98 -8.67,-13.43 10.7,-11.83 20.94,-24.72 34.81,-33.04 15.46,-7.48 32.6,-1.44 48.81,-1.46 6.82,-5.04 15.59,-2.29 23.03,-5.53 0.28,-3.63 0.59,-7.28 0.95,-10.91z"/>
  <path d="M3251.64 1018.63l0.54 0c5.06,1.73 10.09,3.45 15.17,5.02 4.08,-1.08 10.06,-5.25 12.59,0.36 4.7,4.48 3.07,11.27 3.46,16.98 3.66,-2.98 7.3,-5.97 10.91,-8.98 2.53,1.88 5.03,3.81 7.53,5.71 -2.19,1.03 -6.55,3.11 -8.72,4.15 1.06,0.72 3.17,2.18 4.23,2.91 0.15,2.68 0.31,5.35 0.52,8 -1.68,3.88 -2.76,8.03 -4.9,11.68 -3.61,1.98 -7.45,3.5 -11.22,5.15 15.4,1.72 22.34,17.65 36.68,21.92 -1.11,5.94 -2.29,11.89 -3.79,17.78 -1.78,0.15 -5.32,0.46 -7.1,0.62 0.1,4.79 1.21,9.19 6.55,10.17 1.78,3.89 3.53,7.75 5.32,11.63 -4.54,5.22 -8.98,10.52 -13.31,15.93 0.75,1.36 2.27,4.06 3.02,5.43 18.93,3.22 37.79,-2.19 56.8,0.31 -0.31,1.62 -0.95,4.89 -1.26,6.51 1.39,2.21 2.76,4.45 4.18,6.69 -3.89,1.77 -7.76,3.63 -11.58,5.51 3.92,1.11 7.87,2.11 11.87,3.01 -1.94,9.08 4.39,16.57 6.73,24.85 -1.42,0.08 -4.25,0.26 -5.67,0.33 1.19,1.21 3.56,3.63 4.75,4.84 -0.85,7.18 -0.75,14.43 -0.18,21.67 -1.29,1.46 -3.82,4.37 -5.11,5.84 2.09,2.68 4.12,5.38 6.24,8.03l0 1.49c-3.38,3.4 -6.76,6.79 -10.27,10.06 0.18,2.08 0.57,6.23 0.75,8.31 -15.84,2.14 -31.44,-1.88 -47.31,-0.9 -19.42,1.6 -36.62,-13.61 -56.18,-8.72 -7.02,4.14 -13.02,10.01 -21.15,12.15 -2.84,-3.01 -5.67,-6.02 -8.54,-9.03 -1.91,0.52 -5.7,1.57 -7.61,2.08 -4.67,-12.87 4.28,-27.97 18,-29.69 -7.51,-5.56 -15.17,-11.09 -21.43,-18.07 -9.96,6.15 -23.47,6.07 -33.87,1.01 -2.55,-7.85 -5.05,-15.85 -9.44,-22.93 -3.74,-2.16 -8.07,-2.88 -12.15,-4.17 3.12,-3.09 6.29,-6.18 9.36,-9.34 -8.2,-4.32 -17.23,-8.78 -19.19,-18.79 6.42,-6.77 4,-16.19 1.55,-24.06 -4.02,1.05 -8,2.26 -11.92,3.58 -5.13,-1.7 -10.52,-1.54 -15.84,-1.34 4.31,-12.74 5.16,-27.17 15.55,-36.95 -1.57,-9.47 -4.49,-18.66 -7.94,-27.61 -3.35,-0.1 -6.73,-0.26 -10.09,-0.39 -0.44,-8.08 -1.08,-16.16 -1.88,-24.21 3.46,-0.77 6.91,-1.54 10.37,-2.26 -1.11,-3.11 -2.27,-6.18 -3.4,-9.26 12.1,-0.26 24.22,-0.31 36.27,-1.26 13.62,-0.57 27.39,-3.47 40.93,-0.54 12.9,-6.66 27.06,-9.01 41.19,-11.2z"/>
  <path d="M3335.8 1032.4l1.93 0c5.84,1.16 11.71,2.24 17.63,2.89 -5.58,7.87 1.54,15.51 7.62,20.31 7.59,4.59 17.68,5.47 23.31,12.95 6.23,7.61 12.76,14.94 20.27,21.28 -0.54,2.35 -1.31,4.65 -2.32,6.89 3.17,3.02 6.36,6.04 9.52,9.06 -0.59,1.75 -1.18,3.53 -1.77,5.29 0.93,8.05 -5.79,15.92 -2.11,23.61 6.53,7.07 15.33,11.43 22.43,17.85 0.03,-0.2 0.05,-0.57 0.05,-0.77l0 0.95c-8.57,1.81 -18.6,5.83 -26.35,-0.44 -8.47,1.75 -16.85,4.02 -24.75,7.61 -5.76,-1.44 -12.25,-0.67 -16,4.52 -3.09,-0.13 -6.1,-0.62 -9.06,-1.44 -1.46,-3.02 -1.36,-6.45 -1.7,-9.7 -19.12,-4.02 -40.04,6.48 -57.81,-3.51l-0.7 -0.33 0 -4.26c3.73,-6.86 15.75,-12.77 10.42,-21.62 -1.52,-4.9 -6.64,-6.71 -10.42,-9.44l0 -3.46c2.99,-2.19 5.89,-4.44 8.93,-6.55 1.11,-5.34 2.03,-10.68 3.14,-16 9.44,5.08 19.87,7.72 29.64,12.05 7.74,2.87 15.18,-1.63 21.92,-5.01 -2.34,-3.2 -4.37,-6.61 -5.43,-10.45 -7.33,-9.26 -11.84,-21.57 -7.67,-33.26 -4.48,-3.61 -9.6,-6.35 -15.51,-6.58 1.7,-4.1 3.42,-8.2 4.78,-12.44zm29.46 132c9.39,-1.86 18.73,-4.08 28.33,-4.59 -0.05,5.08 -3.7,7.69 -7.62,9.86 1,2.32 2.01,4.65 2.98,6.99 -4.73,-1.01 -9.72,-2.71 -14.59,-1.6 1.83,8.13 5.04,15.92 9.49,22.94 -1.91,2.99 -3.81,5.99 -5.74,8.93 -1.29,-0.88 -3.86,-2.68 -5.14,-3.59 -2.06,2.79 -4.12,5.57 -6.15,8.39 -0.72,-0.72 -2.19,-2.12 -2.91,-2.81 -5.43,2.63 -11.11,4.65 -16.95,6.17 0.46,-2.71 1.36,-8.1 1.8,-10.81 -1.98,-2.37 -3.96,-4.72 -5.92,-7.12 1.57,-0.18 4.71,-0.57 6.28,-0.77 -2.88,-7.77 -9.91,-15.69 -5.14,-24.2 7.25,-1.52 16.11,-1.68 21.28,-7.77z"/>
  <g>
   <path d="M3568.98 838.29c11.18,-5.96 23.49,-10.55 32.05,-20.44 9.89,1.13 18.7,5.62 26.02,12.28l1.19 0.39 0 4.23c-0.39,0.29 -1.19,0.85 -1.57,1.14 -5.28,3.61 -11.82,5.19 -16.43,9.78 -4.59,3.95 -7.89,9.37 -13.17,12.49 -4.51,0.7 -9.12,0.67 -13.65,1.29 -2.5,4.49 0,9.29 1.03,13.81 -7.91,4.41 -18.57,4.93 -23.86,13.06 -4.61,7.1 -10.85,13.19 -13.5,21.44 -9.43,10.04 -20.33,18.76 -32.44,25.42 4.53,5.06 9.04,10.17 12.93,15.74 3.43,-1.21 6.75,-2.71 10.28,-3.56 9.25,4.49 17.36,10.99 26.07,16.44 -3.89,7.28 -9.07,13.7 -14.61,19.76 2.06,0.52 6.16,1.52 8.19,2.01 0.1,6.45 0.8,12.88 1.29,19.32 2.7,1.01 5.41,2.04 8.12,3.04 -1.01,3.3 -1.98,6.63 -2.96,9.96 -3.32,0.75 -6.9,0.85 -9.87,2.68 -0.21,6.55 3.01,13.98 -1.42,19.79 -5.77,5.68 -12.44,10.61 -20.25,13.03 -7.93,1.03 -7.24,11.38 -13.91,14.35 -8.58,3.97 -18.34,4.65 -26.87,8.77 -3.37,5.14 -6.7,10.53 -13.03,12.26 -6.75,-6.4 -14.22,-12.13 -19.37,-20.03 -6.6,-1.47 -13.42,-2.14 -20.07,-0.64 -0.39,9.93 1.36,19.69 2.11,29.54 -5.8,1.34 -11.54,2.81 -17.16,4.78 6.85,8.28 13.96,16.77 18.4,26.63 0.72,8.47 -1.98,16.77 -2.86,25.13 -1.63,0.7 -4.84,2.04 -6.47,2.71 -8.14,-6.5 -18.68,-11.17 -24.27,-20.23 0.15,-9 3.2,-17.75 4.46,-26.65 -3.27,-3.02 -6.52,-6.04 -9.71,-9.13 0.93,-1.24 2.78,-3.72 3.71,-4.95 -7.86,-6.24 -13.99,-14.19 -20.71,-21.55 -5.98,-7.04 -16.08,-7.51 -23.24,-12.85 -4.69,-3.35 -7.6,-8.49 -10.48,-13.34 0.98,-6.04 7.16,-2.4 11.05,-2.53 3.76,-6.81 -2.6,-10.94 -6.62,-15.51 10.69,-12.36 23.13,-23.2 34.08,-35.4 -0.36,-5.29 -1.55,-10.76 -0.21,-16.02 2.11,-0.41 6.34,-1.24 8.45,-1.65 1.96,-3.48 3.86,-6.99 5.74,-10.53 7.68,-3.3 15.92,-4.75 24.01,-6.63 2.19,-5.88 2.81,-13.93 10.2,-15.4 6.88,-1.86 9.45,-9.06 13.32,-14.27l-2.11 -2.09 1.57 1.55c9.27,-6.68 20.51,-9.13 31.07,-12.9 2.27,-3.3 3.91,-6.94 5.8,-10.48 10.61,-1.86 17.65,-11.46 22.31,-20.44 3.04,-8.18 15.25,-10.99 11.41,-21.42 4.82,-3.46 9.53,-7.28 15.09,-9.42 7.14,1.39 10.28,9.7 17.26,11.35 5.28,-8.31 6.95,-18.66 13.6,-26.11l0 0zm-134.95 119.73c4.61,-1.63 4.92,-3.82 0.93,-6.58 -3.15,1.78 -3.45,3.97 -0.93,6.58z"/>
   <path d="M3568.98 838.29c11.18,-5.96 23.49,-10.55 32.05,-20.44 9.89,1.13 18.7,5.62 26.02,12.28l1.19 0.39 0 4.23c-0.39,0.29 -1.19,0.85 -1.57,1.14 -5.28,3.61 -11.82,5.19 -16.43,9.78 -4.59,3.95 -7.89,9.37 -13.17,12.49 -4.51,0.7 -9.12,0.67 -13.65,1.29 -2.5,4.49 0,9.29 1.03,13.81 -7.91,4.41 -18.57,4.93 -23.86,13.06 -4.61,7.1 -10.85,13.19 -13.5,21.44 -9.43,10.04 -20.33,18.76 -32.44,25.42 4.53,5.06 9.04,10.17 12.93,15.74 3.43,-1.21 6.75,-2.71 10.28,-3.56 9.25,4.49 17.36,10.99 26.07,16.44 -3.89,7.28 -9.07,13.7 -14.61,19.76 2.06,0.52 6.16,1.52 8.19,2.01 0.1,6.45 0.8,12.88 1.29,19.32 2.7,1.01 5.41,2.04 8.12,3.04 -1.01,3.3 -1.98,6.63 -2.96,9.96 -3.32,0.75 -6.9,0.85 -9.87,2.68 -0.21,6.55 3.01,13.98 -1.42,19.79 -5.77,5.68 -12.44,10.61 -20.25,13.03 -7.93,1.03 -7.24,11.38 -13.91,14.35 -8.58,3.97 -18.34,4.65 -26.87,8.77 -3.37,5.14 -6.7,10.53 -13.03,12.26 -6.75,-6.4 -14.22,-12.13 -19.37,-20.03 -6.6,-1.47 -13.42,-2.14 -20.07,-0.64 -0.39,9.93 1.36,19.69 2.11,29.54 -5.8,1.34 -11.54,2.81 -17.16,4.78 6.85,8.28 13.96,16.77 18.4,26.63 0.72,8.47 -1.98,16.77 -2.86,25.13 -1.63,0.7 -4.84,2.04 -6.47,2.71 -8.14,-6.5 -18.68,-11.17 -24.27,-20.23 0.15,-9 3.2,-17.75 4.46,-26.65 -3.27,-3.02 -6.52,-6.04 -9.71,-9.13 0.93,-1.24 2.78,-3.72 3.71,-4.95 -7.86,-6.24 -13.99,-14.19 -20.71,-21.55 -5.98,-7.04 -16.08,-7.51 -23.24,-12.85 -4.69,-3.35 -7.6,-8.49 -10.48,-13.34 0.98,-6.04 7.16,-2.4 11.05,-2.53 3.76,-6.81 -2.6,-10.94 -6.62,-15.51 10.69,-12.36 23.13,-23.2 34.08,-35.4 -0.36,-5.29 -1.55,-10.76 -0.21,-16.02 2.11,-0.41 6.34,-1.24 8.45,-1.65 1.96,-3.48 3.86,-6.99 5.74,-10.53 7.68,-3.3 15.92,-4.75 24.01,-6.63 2.19,-5.88 2.81,-13.93 10.2,-15.4 6.88,-1.86 9.45,-9.06 13.32,-14.27l-2.11 -2.09 1.57 1.55c9.27,-6.68 20.51,-9.13 31.07,-12.9 2.27,-3.3 3.91,-6.94 5.8,-10.48 10.61,-1.86 17.65,-11.46 22.31,-20.44 3.04,-8.18 15.25,-10.99 11.41,-21.42 4.82,-3.46 9.53,-7.28 15.09,-9.42 7.14,1.39 10.28,9.7 17.26,11.35 5.28,-8.31 6.95,-18.66 13.6,-26.11m-134.95 119.73c4.61,-1.63 4.92,-3.82 0.93,-6.58 -3.15,1.78 -3.45,3.97 -0.93,6.58z"/>
  </g>
  <path d="M3686.43 919.81l1.39 0c3.55,5.42 0.95,11.63 1.18,17.35 3.42,1.39 4.89,-4.72 8.26,-3.33 2.75,3.95 3.7,8.77 5.28,13.26 1.9,-0.31 5.74,-0.93 7.67,-1.24 1.21,4.46 2.19,9.05 5.02,12.84 -1.19,4.93 -10.75,12.64 -2.8,15.78 5.2,2.53 11.14,1.73 16.7,1.19 7.64,5.18 14.05,-1.24 20.27,-5.47 4.15,5.05 8.59,9.85 13.25,14.41l0 2.99c-2.91,2.84 -5.92,5.52 -8.98,8.17 -0.39,5.59 -1.29,11.11 -2.14,16.66 -8.51,5.83 -18.55,2.35 -27.53,-0.08 -8.52,-2.01 -15,5.03 -21.77,8.87 -5.94,3.04 -10.62,7.81 -15.21,12.61 0.72,3.07 1.36,6.16 1.91,9.28 -13.66,1.42 -22.82,11.89 -34.12,18.2 -9.08,-1.93 -15.44,-9.28 -23.26,-13.71 -5.12,1.83 -9.88,4.49 -14.74,6.88 -0.93,-1.57 -2.78,-4.69 -3.7,-6.27 -6.69,2.91 -13.12,6.42 -19.53,9.93 -0.46,-1.5 -1.39,-4.49 -1.85,-5.98 -17.64,-1.7 -11.7,-14.1 -33.32,-32 2.34,-3.09 4.22,-6.5 6.15,-9.85 -15.77,-1.21 -2.88,-23.59 -17.88,-26.04l-0.15 1.93 0 -2.22c4.81,-5.93 11.04,-10.96 14,-18.2 -2.93,-2.58 -6.15,-4.85 -9.31,-7.12 5.94,-4.67 10.86,-11.63 18.6,-13.26 6.77,3.56 12.25,9.39 15.93,16.04 0.54,7.76 -1.67,15.7 1.05,23.26 1.98,-2.97 3.94,-5.93 5.92,-8.87 10.13,9.18 24.49,6.21 35.97,12.45 0.23,-5.28 4.68,-6.5 8.98,-7.5 1.88,2.06 3.86,4.02 5.92,5.93 2.14,-1.55 4.3,-3.04 6.46,-4.54 4.01,0.9 6.95,4.44 10.45,6.42 -0.9,-3.4 -1.6,-6.86 -2.06,-10.37 1.96,-5.26 -1.72,-9.9 -3.5,-14.62 3.22,-6.27 10.24,-3.15 15.54,-2.58 3.91,-3.61 8.7,-6.76 11.01,-11.73 1.44,-5.98 -2.29,-11.4 -4.04,-16.84 1.6,-4.98 6.1,-8.43 9.01,-12.66z"/>
  <path d="M3677.11 1045.22l3.96 0c1.23,5.01 4.4,9.75 8.98,12.25 3.86,-2.08 2.63,-8.47 4.38,-12.25l3.63 0c12.12,7.67 26.5,10.47 40.27,13.95 10.24,-3.37 21.49,1.64 28.18,9.55l0 0.41c-3.86,5.4 -8,11.35 -14.88,12.89 -1.21,3.94 -2.34,7.87 -3.45,11.81 -1.65,1.98 -5.48,3.01 -4.76,6.18 2.91,1.65 5.89,3.19 8.9,4.68 -4.35,6.46 -11.78,12.74 -19.81,8.26 -2.94,8.08 -10.55,14.49 -18.3,17.75 -2.32,-1.95 -4.68,-3.86 -7.1,-5.74 1.91,-2.57 3.81,-5.17 5.69,-7.79 -2.27,-0.75 -6.85,-2.27 -9.14,-3.01 -0.33,3.7 -0.41,7.49 -1.57,11.06 -8.57,-1.67 -15.98,-6.54 -23.83,-10.01 -6.25,-2.93 -13.43,-2.21 -19.79,-4.86 -4.63,2.44 -10.19,-0.98 -14.31,2.93 -6.84,5.04 -14.87,7.46 -23.41,7.07 2.32,2.42 4.63,4.81 7,7.18 -4.09,3.88 -10.11,2.93 -15.21,4.25 -7.9,2.08 -15.26,5.79 -22.88,8.64l-2.49 0c-10.83,-3.5 -9.44,-15.74 -13.54,-24.08 -7.75,4.06 -15.41,0.87 -22.62,-2.55 -2.03,-3.09 -3.96,-6.2 -5.79,-9.39 8.65,-6.77 17.65,-13.07 24.42,-21.92 6.59,-8.95 16.81,-14.38 23,-23.65 6.02,-3.09 11.76,-6.9 18.17,-9.18 3.32,-0.85 4.25,3.45 6.07,5.2 4.32,-2.34 8.51,-5.07 13.23,-6.61 8.08,4.04 14.15,12.09 23.52,13.54 8.36,-4.63 15.49,-11.27 23.47,-16.54z"/>
  <path d="M3770.46 982.39l0.93 0c-0.18,0.46 -0.54,1.36 -0.74,1.8 8.93,3.63 20.84,2.47 27.14,10.97 4.17,4.17 6.92,10.68 13.35,11.66 8.31,2.06 16.57,-2.47 24.93,-1.47 2.75,3.35 4.91,7.13 7.38,10.68 5.87,-9.29 18.86,-16.84 28.95,-9.17l0 4.53 -0.03 -2.24c-9.34,9.48 -22.21,14.49 -30.95,24.61 -3.04,3.78 -8.31,2.21 -12.48,2.86 -0.02,5.28 -0.02,10.55 -0.05,15.83 -3.91,-0.57 -7.79,-1.16 -11.71,-1.78 2.32,3.27 4.68,6.49 7.02,9.73 -2.62,1.29 -5.25,2.57 -7.87,3.84 -11.37,-4.27 -23.06,-7.57 -34.3,-12.05 2.63,3.11 5.3,6.15 8.03,9.17 -1.34,1.36 -2.7,2.73 -4.04,4.12 2.11,2.01 4.19,4.07 6.25,6.13 -0.93,4.53 -1.67,9.11 -2.32,13.7 -7.95,-4.07 -16.18,-7.65 -23.67,-12.54 -2.47,0.75 -4.91,1.49 -7.36,2.22 2.03,-2.34 4.09,-4.71 6.12,-7.06 -4.97,-5.56 -12.12,-7.85 -18.81,-10.5 -1.9,0.57 -5.69,1.7 -7.59,2.27 -14.64,-3.4 -29.1,-7.34 -42.79,-13.64 -1.9,4.92 -3.83,9.83 -5.84,14.7 -4.4,-4.92 -8.59,-10.01 -13.17,-14.78l0 -0.95c1.83,-0.41 5.51,-1.21 7.33,-1.6 -0.36,-3.11 -1.13,-6.15 -1.85,-9.19 7.95,-8.73 18.27,-14.6 28.17,-20.83 11.76,-5.56 23.65,5.84 35.74,0.77 1.16,-5.2 2.32,-10.4 3.27,-15.65 9.01,-2.22 17.91,-6.62 20.94,-16.14z"/>
  <path d="M3289.1 1348.68c8.88,-2.86 18.29,-3.09 27.43,-4.71 1.95,3.01 3.7,6.15 5.32,9.34 2.93,1.34 6.31,2.06 8.72,4.35 0.28,4.22 0.2,8.46 0.18,12.71 -4.61,3.88 -10.55,5.71 -15.88,8.39 5.66,1.54 7.38,7.21 9.57,11.94 -2.75,0.08 -5.51,0.15 -8.26,0.28 3.06,7.72 2.11,15.95 -1.03,23.41 9.91,2.47 8.88,14.02 7.18,21.79 7.41,0.15 13.48,3.89 16.98,10.34 6.54,0.7 11.27,4.12 9.88,11.32 3.29,0.77 6.61,1.52 9.96,2.16l0.7 5.4 1.95 -3.22 0 3.88c-1.7,8.44 -1.26,17.96 -7.1,24.91 -4.79,4.97 -2.98,12.09 -3.14,18.27 -6.64,-0.41 -13.28,-0.62 -19.91,-0.64 0.15,10.86 -6.92,19.43 -10.58,29.16 -2.32,7.33 -9.57,11.76 -11.45,19.27 -2.65,9.37 -6.64,18.27 -11.61,26.63 2.01,6.66 4.68,13.28 5.12,20.3 -0.72,8.36 -3.37,16.73 -8.47,23.52 -2.42,-2.52 -4.81,-5.04 -7.2,-7.59 -6.18,-0.36 -12.38,-0.57 -18.5,0.28 -2.44,-1.75 -4.37,-4.4 -7.38,-5.15 -6.1,0.95 -9.88,6.85 -15.85,8.21 -5.4,1.52 -10.7,3.37 -15.52,6.31l-0.08 0c-4.58,-4.84 -9.11,-9.86 -15.13,-12.94 -8.44,-4.25 -12.71,-14.98 -22.93,-15.85 -7.08,0.85 -13.35,5.17 -20.58,5.12 -6.33,-0.36 -12.09,2.42 -18.11,3.68 -6.38,-1.67 -12.84,-2.78 -19.48,-2.24 -0.9,-0.82 -2.75,-2.49 -3.68,-3.35l0 -5.66 0.02 3.29c2.47,-4.71 5.59,-9.03 9.24,-12.86 -2.32,-2.73 -4.61,-5.46 -6.92,-8.16 1.21,-13.23 0.36,-26.61 2.39,-39.75 1.31,-9.75 9.75,-15.67 16.54,-21.69 -2.65,-4.01 -5.74,-7.67 -9.7,-10.45 5.53,-9.18 11.22,-19.12 20.71,-24.73 3.65,-1.77 4.3,-6.1 6.04,-9.34 -0.74,-1.8 -2.29,-5.35 -3.04,-7.15 12.09,-7.72 22.38,-18.07 35.33,-24.37 2.98,-5.97 2.57,-13.48 7.26,-18.6 3.19,-3.94 7.05,-7.28 11.16,-10.19 2.86,-4.19 5.38,-8.62 6.84,-13.48 5.71,-6.36 14.15,-6.41 22,-5.61 1.26,-4.14 2.32,-8.34 3.37,-12.53 -0.95,-1.39 -2.83,-4.14 -3.76,-5.53 0.33,-4.91 0.64,-9.88 0.1,-14.8 -1.72,-4.14 -3.73,-8.24 -2.03,-12.81 2.06,1.42 4.14,2.83 6.2,4.27 9.96,-9.78 24.98,-1.93 37.07,-5.14z"/>
 </g>
</svg>
