<svg xmlns="http://www.w3.org/2000/svg" width="71.628" height="54.751" viewBox="0 0 252.65 193.12" shape-rendering="geometricPrecision" text-rendering="geometricPrecision" image-rendering="optimizeQuality" fill-rule="evenodd" clip-rule="evenodd"><defs><style>.fil0{fill:#898989}</style></defs><g id="Слой_x0020_1"><g id="_1658634059568"><path class="fil0" d="M250.07 125.77c-4.5-.4-25.43-5.55-31.89-6.76-2.7-.51-5.27-1.3-7.81-1.72l-15.94-3.37c-2.71-.61-5.49-1.02-8.16-1.65-7.87-1.83-14.78 3.67-21.21 6.72l-19.48 9.63c-2.17 1.04-4.46 2.33-6.53 3.23-2.18.95-4.43 2.24-6.59 3.16l1.31 20.02 34.82-24.43c1.07-.71 1.75-1.39 2.84-2.06 9.07-5.67 13.87-9.25 26.27-7.86 5.75.64 11.72 1.56 17.45 2.33 5.86.79 11.84 1.33 17.56 2.23 2.85.45 5.93.93 8.78 1.26 2.05.23 7.15.71 8.59 1.42.72.71.89 19.66-.25 21.01-.05.04-.14.02-.18.1-.03.08-.13.08-.18.1-1.64.63 1.35-.34-.38.14-1.74.48-5.1.83-6.78.84-.2-1.67.06-3.49-.18-5.2-.4-2.96-2.11-11.59-6.63-9.51-3.93 1.82-5.52 12.59-5.49 16.8-2.14.12-15.74 2.59-18.59 3.15-5.34 1.06-10.76 1.71-16.12 2.71-.61.11-1.73.46-2.3.24l.08-4.66 30.04-5.24-30.02 2.7c-.34-1.48-.39-3.37-.62-4.95-.2-1.41-.61-3.52-1.03-4.84-1.73-5.48-4.48-11.11-10.52-12.47-4.54-1.02-9.18 2.04-11.27 5.8-2.5 4.5-3.31 3.71-5.33 12.03-1.44 5.92-2.2 14.8-1.22 21.06-.47.55-1.03.68-1.83 1.06-.71.34-1.41.71-2.14 1.04l-8.58 3.9c-1.34.72-2.82 1.34-4.34 2.01-5.38 2.41-17.05 8.01-22.6 8.72-1.95.25-4.03.05-6.04.3-2.76.34-9.24.33-12.28.12-3.65-.26-8.24-.4-12.01-.44-3.66-.04-7.97-.62-11.83-.91-11.72-.9-22.93-1.53-34.42-2.94-3.84-.47-7.75-.7-11.5-1.22-7.37-1.01-15.19-1.54-22.14-3.06-2.66-.58-5.32-4.07-6.68-5.79-1.57-2-1.58-1.57-1.46-4.93.08-2.26.69-3.29 1.2-5.17 1.95 0 6.13 1.29 8.35 1.77 14.58 3.11 30.08 4.06 45.02 5.32 6.49.55 13.1.21 19.65.68 18.93 1.36 36.2-1.01 53.73-5.96l7.83-2.19c1.53-.37 2.52-.7 3.96-1.18 1.13-.37 3-.54 3.82-1.43-6.21.9-12.48 2.2-18.68 2.95-3.09.37-6.57.76-9.5 1.28-6.3 1.12-23.73 2.4-30.04 2.49-6.46.09-15.11.75-21.32.04-1.16-3.31-2.86-2.43-7.78-2.71-3.52-.2-6.68-.4-10.03-.54l-14.41-1.14c-1.72.15-1.94 1.52-2.43 2.86-2.66-.08-25.22-1.89-27.33-2.6-.05-.02-.14-.05-.21-.09.81-3.37 5.37-1.66 7.74-1.25 3.16.55 6.52 1.05 10.15.68.31-4.14-4.86-10.77-7.56-13.31-1.72-1.62-3.87-3.34-5.91-4.61-1.59-.98-5.47-3.03-7.45-3.26-.18 3.83.16 6.56.84 9.88 1.19 5.76 2.18 5.71 2.88 7.96-3.3 2.31-4.73 3.53-4.18 8.75.51 4.84.11 6.66 2.67 10.27 2.21 3.11 3.6 3.9 7.87 5.09 20.62 5.72 58.83 9.44 79.16 11.52 6.43.66 18.11 1.37 24.66 1.4 10.27.05 21.77-4.55 30.69-8.3 1.12-.47 8.15-3.57 9.16-3.68.95 1.23 1.58 2.74 2.58 3.92 1.18 1.39 2.17 1.93 4.59 2.25 5.77.75 12.02 1.08 17.44-1.46 5.23-2.45 6.5-7.35 8.14-12.46 2.79-.89 5.84-1.59 8.61-2.57 1.4-.5 2.84-.9 4.26-1.38 3.7-1.23 19.4-7.7 20.68-7.83.46 4.74 3.97 6.7 8.65 6.12 7.39-.91 5.9-4.13 8.16-6.9 1.34-.1 2.04.32 2.69-.56.33-.45.79-1.51 1.03-2.16.62-1.68.99-3.72 1.56-5.04l2.82-.71c-.32 1.85-.81 2.28-1.41 3.64 2.12-1.24 3.25-4.08 4.06-6.27.87-2.37.95-6.58.91-9.52-.1-6.81-.59-13.09-1.5-19.44-.44-3.1-.61-6.52-.9-9.63-.28-3.05-.74-6.19-1.09-9.41-.64-5.78-1.43-11.05-1.81-16.78l-.23-1.68c-.19-.55.04-.15-.25-.52-.8 1.17.08 3.72.2 4.92.55 5.46.72 10.88 1.36 16.3.73 6.14 1.72 15.64 1.65 21.82zm-57.97 40.58l-.2 1.82c3.52-.83 38.08-10.6 38.84-11.11l-.14-1.34c-1.89.23-25.46 7.01-29.05 7.83-1.73.4-8.16 2.11-9.44 2.8zM17.62 154.94c.37-2.33-6.26-8.54-8.16-10.1-1.15-.95-2.33-2.04-4.46-2-.82 2.17.65 8.73 2.28 9.8 1.59 1.05 8.01 2.81 10.35 2.3zm213.68-3.08c1.45-.12.9.11 1.31-3.18.37-3.05 1.13-8.86 3.99-9.87 1.64.89 1.65 2.08 1.99 4.34.32 2.15.57 3.91.5 6.2-1.02-1.47-.16-7.31-2.49-8.74-2.15.85-2.6 5.78-2.88 7.77-.88 6.4 1.03 19 3.99 14.7 1.15-1.68 2.12-5.84 2.44-8.03.6-4.06.75-16.09-2.76-17.59-4.77-2.04-6.27 10.55-6.08 14.41zm-62.8 13.72c.84-.34.99-1.59 1.38-2.86 1.74-5.64 1.31-6.37 2.37-11.08 1.04-4.62 2.57-9.58 5.14-12.7 9.48-11.49 9.52 17.58 9.21 20.51l-1.33-10.95c-.41-2.84-1.5-7.78-3.19-9.3-1.7-.09-2.52.87-3.12 2.04-5.5 10.62-4.91 35.39 1.46 39.51 2.63 1.7 4.57-3.27 5.29-4.88 3.49-7.82 3.74-14.74 3.7-23.2-.02-4.66-1.35-12.26-2.97-15.62-2.39-4.99-7.83-6.68-11.45-2.22-4.5 5.55-7.65 24.9-6.49 30.76z"/><path class="fil0" d="M229.99 95.7l-14.66-6.86c1.69-11.72 1.71-12.66 2.38-24.41l6.1 3.7c1.1.69 2.01 1.19 3.03 1.86.79.52 2.35 1.39 2.92 1.99.37.87-.21 20.85.33 22.95l.82-7.82c.27-2.93.63-10.54 1.35-13.1l.14-.4c.89-.11 4.83 2.99 6.13 3.48-2.55-2.93-35.95-25.43-42.03-29.31-5.13-3.28-14.76-9.19-20.01-11.77l-8.03-3.96c-3.92-1.77-5.64-1.99-9.03-3.2-3.1-1.11-8.86-3.69-12.63-2.88-4.86 1.04-4.86 5.39-6.06 9.83-2.23 8.29-3.54 18.49-4.38 27.4-.46 4.88-.58 9.78-1.14 14.73-.55 4.89-.16 10.43-.74 15.15l-1.07 22.91c0 2.61-.23 5.1-.24 7.86 2.09-.58 5.08-1.84 7.29-2.78 5.16-2.19 18.32-6.79 21.88-8.92 11.92-7.15 16.57-28.07 20.47-30.37 3.23-1.91 20.91 4.74 24.27 6.01 1.38.52 2.51.86 3.77 1.37l11.11 4.29c2.52 1.06 4.95 2.1 7.32 2.95 2.44.88 4.82 2.22 7.29 2.94-1.55-1.37-6.48-2.64-6.58-3.64zm-88.22-9.3l5.3-1.27.92-5.8c-6.16-4.49-1.43-26.22.69-32.66 2.14-6.47 3.02-3.67 3.46-6.08.2-1.05.19-2.29.05-3.33l-4.87-.37c-.27 1.96-.89 3.8-1.23 5.76-.33 1.85-.6 4-.94 5.87-1.41 7.75-3 30.09-3.38 37.87zm6.39-51.04c1.75.01 4.06-.09 5.38.69l-.28 5.19c11.85-.14 10 2.55 8.17 19.59-.25 2.28-.22 4.78-.47 7.05-.27 2.48-.47 4.92-.69 7.3-.48 5.21-6.98 4.6-10.76 4.13-.14 1.37-.46 6.05-.99 6.83-1.08.56-5.21.71-6.78.81l-1.12 24.4c5.92.77 11.08-.98 15.69-3.98 9.54-6.2 12.59-17.94 19.21-28.22 2.79-4.34 3.71-3.81 3.89-6.15.48-6.44.02-23.54-.15-30.49-2.86-2.03-11.79-5.64-15-6.95-3.22-1.31-15.36-6.49-16.09-.19zm52.7 46.65c.8.58 13.12 6.4 13.9 6.54v-25.9c-1.03-.7-9.47-5.93-10.76-6.41-.21 4.45-.8 8.73-1.31 13.17-.47 4.14-1.46 8.56-1.84 12.59zm-18.74-7.87c3.62 1.23 10.11 4.04 13.79 5.76 1.16.54 3.24 1.61 4.41 2.02.41-2.4.36-25.72-.06-27.8-.2-.44-1.41-.93-1.82-1.18l-14.4-7.89c-1.22 2.57-2.01 24.79-1.9 29.1zM20.96 38.46c-11.23.37-10.95-1.41-12.43 3.53-4.38-.09-6.39 1.29-7.67 4.76-1.58 4.28-1.12 16.71 2.71 20.38.84.81.87.23 1.34 1.6l1.12 3.52c.77 1.81 1.42.72 3.16 1.69l-1.33 6.7c-.99 4.62-1.73 9.55-2.34 14.28-.84 6.52-2 36.21.81 38.67 1.37.99 11.52 1.36 14.13 1.75 7.16 1.07 36.9 2.95 44.76 3.11l23.24.04c2.49-.03 4.72-.03 7.28-.31 7.16-.77 6.38-.39 13.98-1.91 2.26-.45 4.14-1.15 6-2.07 1.39-.69 1.24-.53 1.82-2.09.66-1.78 1.53-7.99 1.85-10.14 1.57-10.35 3.65-43.31 3.79-52.2l1.35-30.64c.25-2.16.28-5.35.34-7.5.2-7.91-2.73-13.42-12.29-10.97.78.57 1.53.49 2.43 1.03 2.55 1.54 3.15 4.12 3.29 7.24.19 4.27-1.58 35.95-1.94 39.88l-.76 13.17c-.2 6.02-1.41 19.85-2.14 25.75-.49 3.97-1.81 14.29-3.49 17.54-.95 1.83-1.85 2.54-3.94 3.14-5.25 1.51-19.14 2.77-24.92 2.99l-13.01.9c-4.3.52-21.67-.18-27.57-.19-8.91-.01-18.38-.46-26.89-1.21-2.42-.22-2.72-1.57-3.14-3.71-1.76-8.95-.65-23.26-.05-32.49.63-9.7 3.65-26.75 6.32-35.5 2.84-9.32 6.7-22.16 11.11-30.94 2.9-5.77.35-4.01 14.33-6.46 3.98-.7 15.3-1.75 19.36-1.92 17.56-.72 36.15-1.78 53.35-2.23-2.95-1.14-23.37-1.91-27.69-1.92-9.7-.02-44.67 1.63-54.37 4.81-2.27.75-3.18 1.28-4.38 2.93l-7.51 14.96zM9.26 73.47c1.68-8.32 5.86-20.22 8.98-28.63.48-1.29 1.32-2.67 1.49-4.08-2.5-.37-9.49-1.96-10.16.78-.37 1.51 1.2.16.37 5.23-.96 5.84-2.32 7.65-2.86 16.17-.15 2.31-.23 4.04-.05 6.36.21 2.66-.29 3.46 2.23 4.17z"/><path class="fil0" d="M30.98 17.46c1.97.07 5.23-.71 7.36-.94 7.26-.77 14.78-2.05 22.65-2.8 4.87-.47 10.23-1.25 15.26-1.61l11.82-.86c9.48-.97 27.29-1.35 36.79-.9 14.06.68 15.38 2.64 26.51 7.5l11.1 5.76c5.37 3.05 10.65 5.84 16.04 9.14 5.18 3.17 12.39 7.27 17.17 10.48l37.4 24.2c.74.49 1.92 1.51 2.76 1.57-.27-.97-3.78-3.52-4.72-4.25l-30.55-23.96c-3.68-2.5-9.02-6.77-13.11-9.61-.55-.38-.83-.58-1.3-.92-.06-.04-.22-.17-.28-.21l-25.67-17.12-8.86-5.08c-8.78-4.67-11.38-5.46-19.96-7.19-7.02-1.41-17.92-.15-25.35.48-5.2.43-23.03 2.69-28.06 3.7-1.26.25-2.82.52-4 .66-7.97.91-22.25 4.41-30.18 6.49-2.89.76-11.28 3.76-12.84 5.5zm53.1 139.62c12.14.79 23.87.61 35.92-.95 1.62-.21 3.27-.61 4.87-.69-.21-2.25-1.48-4.71-1.7-7.43-.26-3.17.03-5.84-.06-8.75-11.29.18-25.33.61-33.73 8.71l-3.12 3.96c-.87 1.51-1.69 3.25-2.17 5.15zm5.1-3c4.95.18 22.2-1.24 26.95-2.33-.47-3.59.55-4.69.85-7.57-4.46.13-11.64 1.71-15.94 2.76-3.4.84-11.72 4.2-11.86 7.14zm8.85-31.7c-3-.1-6.39.42-9.6.46l-30.56.24c-6.8-.03-13.37-.08-20.05-.23-3.38-.08-6.84-.01-10.04-.19-2.11-.12-8.22-.37-9.87-.17.65.07 1.07.4 1.75.66 3.83 1.47 12.86 2.43 16.84 2.97 4.07.55 16.89 1.11 21.37 1.12 9.6.02 11.76-.1 21.11-1.36 3.21-.43 17.05-2.45 19.05-3.5zm-31.84 21.27c-6.46.5-25.09-.14-32.52-.28l-9.26-.34c3.66 3.84 28.54 4.96 33.46 4.96 5.4 0 11.46-.22 16.67-1.39 3.59-.81 5.2-.89 8.67-2.31 1.17-.48 1.67-.61 2.36-1.47-1.49.01-3.1.25-4.59.41-4.12.44-11.06.12-14.79.42zm8.87 9.74c-7.39.34-12.5.62-19.88.5l-23.54-.46c5.35 3.3 25.74 4.11 33.47 2.83 2.46-.41 7.63-1.19 9.79-2.75.04-.03.11-.08.15-.12zm30.19 20.21c-4.18 1.84-1.76 7.47 2.25 6.2 4.28-1.35 1.73-7.96-2.25-6.2zm-9.49-.71c-4.75.6-3.55 6.93.43 6.58 4.68-.41 3.51-7.08-.43-6.58zM21.48 168c-3.95.39-3.01 5.04-.04 4.99 4.04-.06 2.78-5.26.04-4.99zm-9.14-.24c-3.48 1.38-1.2 5.68 1.59 4.78 3.23-1.03 1.61-6.05-1.59-4.78zM241.5 95.58c.51-2.2.95-9.7 1.34-13.18.26-2.35.48-2.16-1.35-3.18l.01 16.36z"/></g></g></svg>