<svg xmlns="http://www.w3.org/2000/svg" width="38.647" height="38.647" viewBox="0 0 201.11 201.11" shape-rendering="geometricPrecision" text-rendering="geometricPrecision" image-rendering="optimizeQuality" fill-rule="evenodd" clip-rule="evenodd"><path d="M94.97 55.57c14.59 3.8 25.49 10.02 33.52 18.1 8.06 8.12 13.2 18.06 16.25 29.29-9.4-29.96-33.65-40.57-50.41-44.94l.64-2.46zm37.65 69.35c-16.96-6.88-8.07 13.42-26.14 7.02 10.23 2.5 9.82-3.79 13.54-10.12 4.95-8.44 23.96 3.18 28.99 6.6 5.63 3.83 9.48 8.67 8.41 14.81-3.1-7.99-16.82-15.07-24.79-18.31zM68.6 99.48c6.01 14.49 31.29 31.99 45.14 38.57-9.26-3.7-26.18-12.4-35.44-21.69-5.08-5.1-9.45-11.01-12.28-17.7-2.74-6.46-3.88-9.52 1.23-12.23 5.63-3 10.1-7.2 10.11-13.61 2.25 4.81-2.1 11.43-5.43 14.87-3.05 3.15-5.58 6.33-3.32 11.8zm93.68 54.9c-26.11-5.18-26.67 21.38-64.3.47-17.92-9.95-31.71-21.84-41.61-36.38-10.26-15.07-24.8-43.1-12.87-59.65-11.12 42.13 43.05 98.58 81.06 99.78 12.1.47 23.57-12.12 37.72-4.22zm-62.17-80.1c8.05 2.1 14.08 5.54 18.54 10.03 4.49 4.52 7.34 10.03 9.03 16.25l-1.74.47c-3.06-13.33-16.53-23.17-25.82-26.74zM89.54 37.74c21.4 5.57 37.37 14.67 49.13 26.51 11.79 11.87 19.29 26.42 23.77 42.87l-3.17.86c-7.82-39.11-35.8-59.23-69.73-70.25zm-50.29 26c.81-9.16 4.87-18.53 13.93-22.15 6.89-2.75 10.92-2.61 14.08 3.19 5.11 9.37 8.43 16.87 10.89 28.68-9.69-18.43-20.6-45.79-38.9-9.73zm114.21 78.95c11.94 2.51 32.79 14.78 21.45 26.29-9.23 9.36-23.53 18.54-35.84 23.69-11.85 4.96-24.86 7.7-38.5 7.7-27.56 0-52.51-11.17-70.57-29.23C11.94 153.08.77 128.13.77 100.56.77 73 11.94 48.05 30 29.98 48.06 11.92 73.01.75 100.57.75c27.56 0 52.51 11.17 70.58 29.23 18.06 18.06 29.23 43.01 29.23 70.58 0 8.08-.97 16.1-2.89 23.89a99.27 99.27 0 0 1-8.5 22.43C218.01 18.9 98.67-18.39 40.91 30.4.9 64.19 1.19 117.76 27.8 156.53c26.59 38.74 78.15 59.88 134.99 19.2 13.27-9.5 13.13-20.13-6.22-25.5l-3.1-7.54z" fill="#898989" fill-rule="nonzero" stroke="#898989" stroke-width="1.5" stroke-linejoin="round" stroke-miterlimit="22.926"/></svg>