<svg xmlns="http://www.w3.org/2000/svg" width="91.138" height="122.846" viewBox="0 0 551.77 743.74" shape-rendering="geometricPrecision" text-rendering="geometricPrecision" image-rendering="optimizeQuality" fill-rule="evenodd" clip-rule="evenodd"><path d="M122.08 469.54a.87.87 0 0 1-1.74.04L107.98.75a.87.87 0 0 1 .99-.74l242.77 34.84c.46.07.8.5.74.97-.05.48-.49.82-.97.76L121.52 9.16l.56 460.38zm341.14-36.55c-5.72-47.2-9.45-77.95-38.26-97.13a.871.871 0 0 1-.28-1.14c.23-.42.76-.57 1.18-.35 30.78 16.83 36.95 39.93 43.2 63.38 4.59 17.19 9.23 34.59 23.83 49.68a.9.9 0 0 1 .29.52c.07.48-.26.92-.73.99l-25.85 3.93c-.5.06-.93-.28-.99-.75-.89-6.82-1.65-13.13-2.38-19.15zM96.06 354.77c-16.28-6.94-22.18-1.92-26 7.04-1.21 2.84-2.23 6.08-3.3 9.47-6.1 19.38-13.67 43.38-66.12 29.62a.87.87 0 0 1-.62-1.06c.1-.41.48-.67.88-.65 11.03.56 18.74.9 25.32-.48 6.47-1.36 11.93-4.43 18.57-10.66l2.01-5.65c3.57-10.13 7.28-20.62 12.61-27.96 7.79-10.73 18.87-14.7 37.5-1.17.39.28.48.83.19 1.22-.24.33-.68.45-1.05.29zM40.52 546.62C33 497.96 21.54 450.19 4.83 405.69c-.15-.4.02-.86.4-1.07.42-.23.95-.07 1.18.35C27.18 443 40 486.15 48.55 530.81c8.55 44.64 12.86 90.77 16.59 134.84.65 7.67.59 15.82.54 23.63-.09 13.75-.17 26.46 3.63 33.58 3.78 7.08 11.73 8.58 28.09-.16.21-.11.46-.14.7-.05.45.16.68.66.52 1.11-1.7 4.73-4.13 8.78-7.07 11.97a27.23 27.23 0 0 1-4.94 4.24l369.22-62.41c9.72-1.66 17.9-2.62 24.76-3.43 23.35-2.74 31.08-3.66 32.49-24.9 3.15-47.19 7.16-83.41 12.99-113.15 5.84-29.76 13.52-53.06 24.01-74.41a.87.87 0 0 1 1.64.56c-1.64 6.26-3.51 12.76-5.48 19.61-10.83 37.55-24.85 86.16-22.8 178.72.47 21.3-7.23 21.85-30.9 23.54-8.29.59-18.62 1.33-31.3 3.19L80.19 742.95c-.89.25-1.81.45-2.72.59-.93.13-1.88.21-2.85.22-1.58.02-3.19-.15-4.81-.5l-.06-.01c-1.59-.35-3.2-.89-4.8-1.61-11.86-5.38-12-17.47-12.26-39.52l-.13-9.11c-.95-48.11-4.53-97.7-12.05-146.37zm36.91 169.51c2.68-13.95 5.82-30.96 9.16-49.1 7.65-41.51 16.4-88.99 22.91-117.24 3.19-13.83 6.69-21.34 15.59-26.34 8.76-4.91 22.67-7.26 46.76-10.79l225.25-33.09c-35.06-7.56-84.45-15.4-139.38-18.02-42.47-2.03-88.26-.94-133.29 5.79a.874.874 0 0 1-.97-.65c-.71-2.1-.66-3.63-.5-8.64l.06-2c.01-.38.27-.7.62-.81 10.9-3.27 57.61-3.01 115.06.37 49.74 2.93 107.56 8.19 157.16 15.52-.44-34.27 1.51-143.13 3.17-235.43 1-55.59 1.89-105.16 2.08-128.78-10.38-2.46-20.01-1.97-28.5-.05-8.69 1.97-16.21 5.46-22.15 8.85-.42.24-.95.09-1.19-.32a.877.877 0 0 1-.08-.67c5.17-18.47 4.97-34.43-.48-46.94-5.36-12.3-15.83-21.32-31.26-26.17a.87.87 0 0 1 .28-1.7c18.08.5 29.98 4.2 36.64 14.23 6.49 9.75 7.89 25.44 5.1 49.97 7.85-2.72 15.39-3.81 22.15-3.74 7.69.08 14.4 1.68 19.49 4.1l.02-5.47c-1.84-13.75-5.17-24.57-13.01-33.65-7.88-9.12-20.35-16.54-40.45-23.47a.875.875 0 0 1-.54-1.11c.15-.44.63-.68 1.07-.55 61.13 12.61 61.3 47.05 61.51 93.45.02 5.16.05 10.47.16 15.93.47 23.16-1.09 56.25-2.86 93.85-3.51 74.53-7.86 166.85 1.11 234.49l139.27-20.46c.48-.07.92.26.99.74a.87.87 0 0 1-.74.99l-370.38 63.17c-21.63 3.69-33.87 6.87-41.73 12.42-7.78 5.5-11.38 13.46-15.74 26.73-12.94 39.35-22.58 79.65-32.21 119.91-2.82 11.79-5.64 23.57-8.46 35l-.01.05c-.11.46-.59.75-1.05.64a.882.882 0 0 1-.65-1.01zm27.4 13.35l29.66-6.69c196.23-44.12 307.4-69.11 396.53-247.98.21-.43.74-.6 1.17-.39.38.19.57.63.45 1.03-1.44 6.43-2.83 12.46-4.2 18.46-7.95 34.61-15.8 68.82-17.88 104.37-3.78 64.69-22.98 66.96-69.38 72.41-14.7 1.73-32.18 3.79-52.79 8.31-48.17 10.56-94.77 20.23-141.45 28.95-46.67 8.71-93.4 16.48-141.83 23.25a.87.87 0 0 1-.98-.74c-.06-.46.25-.9.71-.98zm70.74-467.72l199.3-8.2.03.87.03.87c-21.77.89-43.94 2.62-66.17 4.34-44.69 3.47-89.7 6.95-133.27 3.86a.873.873 0 0 1-.81-.93c.03-.46.42-.81.88-.81zM172.66 231l.03-.87.03-.87 199.3 8.2c.46 0 .85.35.88.81.03.48-.33.9-.81.93-43.57 3.09-88.59-.4-133.29-3.86-22.23-1.72-44.38-3.44-66.15-4.34zm-2.12-35.77L352.2 207.3c.48.03.84.45.81.92-.03.47-.43.83-.9.82-19.29.5-27.93 1.06-26.12 2.06 3.84 2.11 20.69 5.48 50.98 10.9.47.08.79.54.7 1.01-.08.47-.54.79-1.01.7l-206.29-26.76a.866.866 0 0 1-.75-.97c.06-.46.46-.79.92-.76zm-22.21-77.92l232.62 23.26c.48.05.83.47.78.95-.04.42-.38.75-.8.78-42.2 3.43-78.63 5.78-107.21 7.62-42.96 2.76-68 4.38-68.21 6.19-.25 2.62 45.63 7.73 155.13 19.76.48.05.82.48.77.96-.05.48-.48.82-.96.77l-184.21-17.34c-3.42-.11-7.14-1.05-9-2.15-.78-.46-1.31-1-1.48-1.58-.23-.76.05-1.47.97-2.04l.07-.04c1.22-.73 3.9-1.32 8.62-1.58 75.1-4.09 124.39-8.4 146.14-10.85 2.77-.31 5.1-.59 6.98-.84-9.34-1.05-19.76-2.43-33.6-4.26-28.2-3.72-70.6-9.33-146.89-17.89a.873.873 0 0 1-.77-.96c.05-.48.49-.82.96-.77l.09.01z" fill="#898989"/></svg>