<svg xmlns="http://www.w3.org/2000/svg" viewBox="0 0 512 512"><path fill="#868786" d="M421.054 414.843a7.5 7.5 0 0 0-7.5 7.5v70.514a4.146 4.146 0 0 1-4.141 4.141h-40.317V349.301a7.5 7.5 0 0 0-15 0v147.698h-81.185l23.543-25.9c2.572-2.83 3.785-6.861 3.244-10.787a5.982 5.982 0 0 0-.035-.228L277.24 327.617l6.041-9.094c3.34 2.372 5.913 4.656 10.738 4.656 4.908 0 9.497-2.747 11.755-7.269v-.001l23.65-47.4 53.876 20.865c1.949.836 30.252 13.582 30.252 47.238v50.73a7.5 7.5 0 0 0 15 0v-50.73c0-44.344-37.969-60.463-39.585-61.128a3.546 3.546 0 0 0-.143-.057l-89.668-34.726v-21.03c14.242-11.076 24.117-27.495 26.596-46.227 7.101-.5 13.69-3.152 19.071-7.779a31.786 31.786 0 0 0 11.059-24.126 31.791 31.791 0 0 0-7.737-20.803V92.953C348.144 41.699 306.446 0 255.192 0c-51.254 0-92.952 41.699-92.952 92.953v28.511c-5.009 5.677-7.733 12.665-7.733 20.074 0 9.291 4.03 18.085 11.059 24.129 5.377 4.625 11.962 7.274 19.061 7.775 2.499 19.083 12.662 36.114 28.117 47.339v19.92l-89.571 34.725a8.255 8.255 0 0 0-.141.056c-1.617.665-39.585 16.784-39.585 61.128v156.245c0 10.555 8.587 19.142 19.142 19.142h71.457a7.5 7.5 0 0 0 0-15h-16.137V349.301a7.5 7.5 0 0 0-15 0v147.698H102.59a4.146 4.146 0 0 1-4.141-4.141V336.611c0-33.769 28.493-46.486 30.243-47.234l53.834-20.87 23.652 47.402a13.133 13.133 0 0 0 11.756 7.27c4.801 0 7.349-2.249 10.738-4.656l6.041 9.094-22.421 132.468c-.013.075-.024.15-.035.226-.542 3.924.671 7.957 3.244 10.789l23.543 25.9h-29.995a7.5 7.5 0 0 0 0 15h200.365c10.555 0 19.142-8.588 19.142-19.142v-70.514a7.503 7.503 0 0 0-7.502-7.501zM315.375 263.069l-22.049 44.19c-.548-.389-12.233-8.691-26.517-18.834l27.235-33.617 21.331 8.261zm-44.332 46.764l-5.718 8.607h-18.703l-5.718-8.607 15.07-10.703 15.069 10.703zm-43.3-66.712v-14.036c9.112 3.673 18.85 5.376 28.36 5.376 9.833 0 19.476-2.096 28.052-5.846v14.567l-28.181 34.785-28.231-34.846zm113.138-101.582a16.804 16.804 0 0 1-5.839 12.753c-2.453 2.11-5.416 3.459-8.661 3.987v-33.477c8.62 1.4 14.5 8.55 14.5 16.737zm-156.874 16.74c-8.718-1.415-14.5-8.623-14.5-16.741 0-8.018 6.647-14.544 14.5-16.359v33.1zm.403-48.383c-2.389.274-5.127.921-7.168 1.615V92.953c0-42.983 34.968-77.952 77.951-77.952 42.983 0 77.951 34.969 77.951 77.952v18.043a33.343 33.343 0 0 0-6.762-1.307c0-7.237.063-5.841-23.612-31.294-4.354-4.678-11.556-5.658-17.037-2.077-26.13 17.069-58.005 25.644-87.415 23.532-6.451-.483-12.327 3.766-13.908 10.046zm14.598 54.288v-49.257c32.375 1.896 66.318-7.722 93.739-25.283 10.858 11.658 16.738 17.773 18.634 20.099v54.44c0 30.447-24.826 55.276-55.277 55.276-34.194.001-57.096-26.525-57.096-55.275zm19.615 143.075l-22.049-44.19 21.293-8.247 27.241 33.625c-13.853 9.837-25.228 17.919-26.485 18.812zm8.605 154.443l21.709-128.263h14.071l21.709 128.263-28.744 31.623-28.745-31.623z"/></svg>