<svg xmlns="http://www.w3.org/2000/svg" viewBox="0 0 512 512"><path fill="#868786" d="M310.7 260.177l-38.202-14.735-21.927-21.926a7.477 7.477 0 0 0-5.173-2.191v-17.918a80.849 80.849 0 0 0 20.668-40.801.199.199 0 0 1 .02-.021c1.91.113 3.838-.027 5.744-.417 10.306-2.11 17.787-11.678 17.787-22.751v-5.743c0-6.491-2.668-12.44-6.996-16.653 7.033-37.871 1.355-68.717-16.492-89.326C248.923 7.826 221.183-1.664 185.905.239c-32.856 1.776-53.958 16.993-60.433 22.358-9.112 1.184-35.099 7.751-35.099 44.089 0 20.121 3.269 36.855 5.565 46.131-7.733 3.615-12.934 11.686-12.934 20.942v5.657c0 11.073 7.48 20.641 17.788 22.751 1.904.39 3.835.53 5.743.417a.398.398 0 0 1 .02.022 80.85 80.85 0 0 0 20.668 40.8v17.918a7.477 7.477 0 0 0-5.173 2.191l-21.926 21.926-42.969 16.574c-20.664 7.97-33.951 28.193-33.065 50.323l6.103 152.379a7.5 7.5 0 0 0 14.989-.6L39.079 311.74a36.677 36.677 0 0 1 1.442-11.754l24.362 24.362c6.935 6.935 10.754 16.156 10.754 25.963v114.108a7.5 7.5 0 0 0 15 0V350.311c0-13.814-5.379-26.802-15.148-36.57L48 286.252a36.653 36.653 0 0 1 14.554-10.24l40.091-15.464 30.606 45.908a22.158 22.158 0 0 0 16.313 9.795 22.104 22.104 0 0 0 13.721-3.138l-6.573 150.979a7.5 7.5 0 0 0 7.499 7.826 7.5 7.5 0 0 0 7.487-7.174l6.095-139.989h17.043l6.095 139.989a7.5 7.5 0 1 0 14.986-.652l-6.573-150.979a22.1 22.1 0 0 0 13.719 3.138 22.154 22.154 0 0 0 16.308-9.794l30.606-45.908 35.323 13.625a7.49 7.49 0 0 0 2.698.504 7.503 7.503 0 0 0 2.702-14.501zm-189.411-100.38c-1.356-7.377-8.192-12.728-15.553-12.192a7.164 7.164 0 0 1-1.937-.132c-3.304-.676-5.795-4.14-5.795-8.056v-5.657c0-3.832 2.579-7.286 5.871-7.864 2.771-.486 5.424.532 7.106 2.725 1.397 1.821 3.259 3.123 5.39 3.767 3.113.939 6.549.388 9.19-1.477 6.096-4.303 11.263-9.761 15.356-16.221a7.501 7.501 0 0 0-12.67-8.03c-2.334 3.683-5.126 6.919-8.329 9.656a22.17 22.17 0 0 0-8.808-4.744c-2.009-7.565-5.737-24.366-5.737-44.887 0-12.215 3.786-20.805 11.254-25.528 5.813-3.678 11.951-3.819 11.953-3.82a7.573 7.573 0 0 0 5.177-2.073c.192-.183 19.642-18.247 52.957-20.047 30.478-1.651 54.017 6.063 68.074 22.296 14.24 16.445 18.933 41.712 13.692 73.323-2.254-.105-4.753.059-7.238.495l-7.516-18.051a7.501 7.501 0 0 0-8.828-4.371c-.732.192-73.627 18.791-104.363-19.472a7.5 7.5 0 0 0-10.544-1.15 7.5 7.5 0 0 0-1.15 10.544c31.177 38.815 93.263 30.113 113.46 26.035l5.842 14.03c2.389 5.736 8.499 8.869 14.526 7.449 2.363-.557 4.934-.658 6.056-.435 3.358.668 5.89 4.005 5.89 7.763v5.743c0 3.917-2.492 7.38-5.794 8.056a7.095 7.095 0 0 1-1.938.132c-7.358-.538-14.198 4.815-15.552 12.193-5.764 31.378-33.109 54.152-65.021 54.152-31.913 0-59.258-22.774-65.021-54.152zm35.583 139.443a7.214 7.214 0 0 1-5.834 2.085 7.21 7.21 0 0 1-5.31-3.188l-30.834-46.252 12.8-12.8 47.644 41.688-18.466 18.467zm21.569 10.516l.495-11.368 7.373-7.374 7.374 7.374.495 11.368h-15.737zm7.868-39.314l-44.088-38.577v-15.947c12.772 8.276 27.951 13.032 44.088 13.032s31.316-4.756 44.087-13.032v15.947l-44.087 38.577zm40.583 27.694a7.212 7.212 0 0 1-5.311 3.189c-1.274.129-3.724.022-5.832-2.085l-18.466-18.467 47.643-41.688 12.8 12.8-30.834 46.251z"/><path fill="#868786" d="M487.951 352.193c0-17.396-14.152-31.548-31.548-31.548H407.79v-16.548c0-12.976-10.557-23.532-23.532-23.532H336.16c-12.976 0-23.532 10.557-23.532 23.532v16.548h-48.613c-17.396 0-31.548 14.152-31.548 31.548v22.267c0 8.209 2.764 16.092 8.016 23.382v83.424c0 16.946 13.787 30.733 30.733 30.733h177.987c16.946 0 30.733-13.787 30.733-30.733v-83.424c5.252-7.291 8.016-15.174 8.016-23.383l-.001-22.266zm-160.324-48.097c.001-4.705 3.829-8.532 8.533-8.532h48.097c4.705 0 8.532 3.828 8.532 8.532v16.548h-65.162v-16.548zm145.323 70.365c0 12.874-12.182 25.641-33.097 35.178v-1.332a7.5 7.5 0 0 0-7.5-7.5h-32.064a7.5 7.5 0 0 0-7.5 7.5v24.048c0 12.976 10.557 23.532 23.532 23.532s23.532-10.557 23.532-23.532v-6.414c9.738-3.896 18.145-8.43 25.081-13.467v68.793c.001 8.675-7.056 15.732-15.732 15.732H271.216c-8.675 0-15.733-7.058-15.733-15.733v-68.793c6.936 5.037 15.342 9.571 25.081 13.468v6.414c0 12.976 10.557 23.532 23.532 23.532 11.145 0 20.499-7.791 22.918-18.211 10.769 1.439 21.895 2.179 33.195 2.179 2.74 0 5.517-.044 8.253-.131a7.499 7.499 0 0 0 7.258-7.734c-.131-4.14-3.564-7.401-7.734-7.258-2.579.082-5.195.123-7.778.123-11.119 0-22.046-.757-32.581-2.232v-14.316a7.5 7.5 0 0 0-7.5-7.5h-32.064a7.5 7.5 0 0 0-7.5 7.5v1.332c-20.915-9.537-33.097-22.305-33.097-35.178v-22.267c0-9.125 7.423-16.548 16.548-16.548h192.388c9.125 0 16.548 7.423 16.548 16.548v22.267zm-48.095 41.345v16.548c0 4.705-3.828 8.532-8.532 8.532s-8.532-3.828-8.532-8.532v-16.548h17.064zm-129.292 16.548v-16.548h17.064v16.548c0 4.705-3.828 8.532-8.532 8.532s-8.532-3.827-8.532-8.532z"/></svg>