<svg xmlns="http://www.w3.org/2000/svg" width="15" height="13" viewBox="0 0 2.07 1.61" shape-rendering="geometricPrecision" text-rendering="geometricPrecision" image-rendering="optimizeQuality" fill-rule="evenodd" clip-rule="evenodd"><path d="M1.96 0H.12C.06 0 0 .05 0 .11v1.38c0 .06.05.11.12.11h1.84c.06 0 .11-.05.11-.11V.11c0-.06-.05-.11-.11-.11zM.23.29l.54.47-.53.53V.28zm.81.55L.34.23h1.4l-.7.61zm-.19 0L.86.83 1 .96h.06L1.2.83l.01.01.53.53H.29L.82.84zm.46-.08l.54-.47V1.3L1.32.77z" fill="#fefefe" fill-rule="nonzero"/></svg>