<svg xmlns="http://www.w3.org/2000/svg" width="17" height="16" viewBox="0 0 1.65 1.48" shape-rendering="geometricPrecision" text-rendering="geometricPrecision" image-rendering="optimizeQuality" fill-rule="evenodd" clip-rule="evenodd"><defs><style>.fil0{fill:#fefefe}</style></defs><g id="Слой_x0020_1"><g id="_1337094976784"><path class="fil0" d="M.58 1.06c0 .04.01.08.01.11 0 .04-.02.04-.06.05-.03.01-.06.01-.09.02-.01 0-.01 0-.02.01-.01 0-.01 0-.02.01-.03.01-.05.02-.07 0 0 0 0-.01-.01-.01-.01-.02-.03-.05-.04-.07-.01-.02 0-.06 0-.08 0-.02.01-.03.02-.05 0-.01.01-.01.01-.02L.33.99.34.97.35.96C.36.95.37.94.39.93.42.91.51.87.55.86.72.8.91.82 1.08.87c.01 0 .03.01.04.01.04.02.07.02.11.05.02.01.04.03.06.05.01.02.03.05.04.07.02.05.03.09.01.14 0 .01 0 .01-.01.02l-.04.04-.01.01c-.03.03-.04.01-.09-.01-.01 0-.02-.01-.03-.02l-.03-.02c-.03-.01-.08-.03-.09-.05-.01-.02-.01-.06-.01-.08 0-.06 0-.06-.06-.07A.651.651 0 0 0 .66 1c-.02 0-.04.01-.06.01-.02 0-.04.01-.04.04zM.34.11C.34.1.35.08.37.08h.91c.02 0 .03.01.03.03v.57H.34V.11zM.26.1v.58C.19.68.15.68.1.72L.07.75C.05.77.04.79.02.82.01.84 0 .88 0 .91v.34c0 .07.04.14.09.18.01.01.02.02.03.02.02.01.06.02.09.02h1.22c.06 0 .11-.03.15-.07.02-.02.03-.04.04-.07.01-.02.02-.06.02-.09V.9c0-.03-.01-.07-.02-.09A.278.278 0 0 0 1.5.69C1.46.67 1.43.67 1.38.67V.11c0-.03 0-.05-.02-.07-.01-.01-.01-.02-.02-.02 0 0-.01 0-.01-.01-.02-.02-.04-.02-.08-.02H.38a.14.14 0 0 0-.09.03C.27.03.25.06.25.09z"/><path class="fil0" d="M.41.21c0 .02.02.04.04.04h.76c.02 0 .04-.02.04-.04S1.23.17 1.21.17H.45C.43.17.41.19.41.21zm0 .16c0 .02.02.04.03.04h.77c.01 0 .04-.02.03-.04 0-.02-.02-.03-.04-.03H.45C.42.34.41.36.41.38zm0 .16c0 .02.02.04.04.04h.75c.02 0 .04-.02.04-.04S1.22.49 1.21.49H.45C.43.49.41.51.41.53z"/></g></g></svg>