<svg xmlns="http://www.w3.org/2000/svg" width="109.356" height="82.277" viewBox="0 0 714.84 537.83" shape-rendering="geometricPrecision" text-rendering="geometricPrecision" image-rendering="optimizeQuality" fill-rule="evenodd" clip-rule="evenodd"><defs><style>.fil2{fill:#fefefe}.fil0{fill:#009ab6}</style><linearGradient id="id0" gradientUnits="userSpaceOnUse" x1="454.25" y1="387.74" x2="687.83" y2="387.74"><stop offset="0" stop-color="#005b20"/><stop offset=".271" stop-color="#047a31"/><stop offset="1" stop-color="#099942"/></linearGradient><linearGradient id="id1" gradientUnits="userSpaceOnUse" x1="433.25" y1="379.57" x2="629.03" y2="379.57"><stop offset="0" stop-color="#099942"/><stop offset=".729" stop-color="#057a31"/><stop offset="1" stop-color="#005b20"/></linearGradient></defs><g id="Слой_x0020_1"><g id="_1942957206032"><path class="fil0" d="M88.72 185.27C29.57 75.37 0 20.41 0 20.41c232.5-43.5 443.27-17.46 632.29 78.13v60.91c-187.33-51.14-368.52-42.53-543.57 25.82z"/><path d="M632.29 166.23c-172.83-49.2-361.13-39.69-536.95 31.61-4.41-8.38-6.61-12.58-6.61-12.58 183.33-72.57 371.18-77.14 543.57-25.82v6.78zM192.03 371.75l-8-11.75c133.99-95.17 281.91-138.93 445.04-131.21 0 2.46-.04 5.02-.04 5.02-167-.75-307.28 48.56-437 137.93z" fill="#e31e24"/><path class="fil2" d="M629.25 228.36C467.81 222.31 319.4 266.2 184.04 360c-59.14-108.1-88.7-162.15-88.7-162.15 173.37-69.37 351.34-79.91 533.91-31.65v62.15z"/><path d="M629.03 300.57c-153.09 44.76-268.22 123.85-345.4 237.26-61.06-110.72-91.6-166.08-91.6-166.08 139.73-97.42 285.39-143.4 437-137.93v66.76z" fill="#14b04d"/><path d="M433.25 389.8c13.77 45.2 21 68.77 21 68.77 26.86-54.86 85.12-107.54 174.79-158-71.91 16.58-139.05 48.3-195.78 89.23z" fill="url(#id1)"/><path d="M599.56 317.94c-59.54 30.46-112.33 75.54-145.31 140.63 66.13-51.04 138.87-81.23 218.23-90.57l15.36-42.9c-50.84-7.23-81.2-9.79-88.27-7.16z" fill="url(#id0)"/><path class="fil0" d="M629.03 249.93v-59.99c36.44 19.54 65.04 38.6 85.81 57.2-8.13 22.07-12.72 32.58-12.72 32.58-21.95-11.34-45.95-21.25-73.08-29.8z"/><path class="fil2" d="M700.76 282.61c-9 24.19-12.2 39.96-12.2 39.96-27.98-7.5-47.71-10.29-79.71-10.29 12.09-7.1 20.18-11.71 20.18-11.71.22-31.08 0-46.27 0-46.27 27.97 8.93 50.5 18.23 71.73 28.31z"/><path d="M608.85 312.27c31.92.24 48.6 2.23 79.71 10.3l-1.12 3.5c-17.77-3.74-57.09-9.74-87.89-8.13l9.3-5.66zm20.18-62.34c31.62 9.95 43.48 14.98 73.08 29.8l-1.35 2.88c-17.96-8.99-52.23-22.17-71.73-28.31v-4.37z" fill="#e31e24" fill-rule="nonzero"/><path class="fil2" d="M187.72 129.6c-65.93-5-102.74-92.48-45.02-109.57-93.39-2.43-32.12 131.24 45.02 109.57zm71.51-113.21c.65 1.08 1.32 2.18 2 3.29.7 1.14 1.39 2.32 2.12 3.51h3.74c1.23 0 2.48-.01 3.73-.01-.75.75-1.53 1.5-2.29 2.27-.78.77-1.57 1.56-2.38 2.36.81 1.31 1.63 2.66 2.46 4.03.86 1.4 1.74 2.83 2.63 4.31-1.4-.91-2.79-1.83-4.16-2.71-1.35-.87-2.68-1.74-3.98-2.59-.86.85-1.71 1.71-2.59 2.59-.88.88-1.79 1.79-2.7 2.71.1-1.47.21-2.91.3-4.31.09-1.38.21-2.72.3-4.03-1.23-.8-2.45-1.58-3.64-2.36-1.17-.75-2.34-1.51-3.48-2.27 1.24 0 2.48.01 3.72.01h3.72c.09-1.18.17-2.37.25-3.51.07-1.11.16-2.21.23-3.29zm44.53 4.05c.58.97 1.18 1.95 1.79 2.95.63 1.02 1.25 2.08 1.9 3.14h3.35c1.1 0 2.22-.01 3.34-.01-.67.67-1.37 1.35-2.05 2.03-.7.69-1.41 1.4-2.13 2.12.73 1.17 1.46 2.38 2.2 3.61.77 1.26 1.56 2.54 2.36 3.86-1.26-.82-2.5-1.64-3.72-2.43-1.21-.78-2.4-1.56-3.57-2.32-.77.76-1.54 1.54-2.32 2.32-.79.79-1.61 1.61-2.42 2.43.09-1.32.19-2.61.27-3.86.08-1.23.19-2.44.27-3.61-1.1-.72-2.2-1.42-3.26-2.12-1.05-.67-2.1-1.36-3.12-2.03 1.11 0 2.23.01 3.34.01h3.34c.08-1.06.15-2.12.22-3.14.06-1 .14-1.98.21-2.95zm45.5 5.82c.52.87 1.06 1.75 1.6 2.64.56.91 1.12 1.87 1.7 2.82h3c.99 0 1.99-.01 2.99-.01-.6.61-1.23 1.21-1.84 1.82-.62.62-1.26 1.25-1.91 1.89.65 1.05 1.31 2.13 1.97 3.23.69 1.12 1.4 2.28 2.11 3.46-1.12-.73-2.24-1.47-3.34-2.17-1.08-.7-2.15-1.39-3.19-2.08-.69.68-1.38 1.38-2.08 2.08l-2.17 2.17c.08-1.18.17-2.34.24-3.46.07-1.1.17-2.19.24-3.23-.99-.64-1.97-1.27-2.93-1.89-.94-.61-1.88-1.22-2.8-1.82 1 0 1.99.01 2.99.01h2.99c.07-.95.14-1.9.2-2.82.06-.89.13-1.77.19-2.64zM228.68 58.31c.65 1.08 1.32 2.18 1.99 3.29.7 1.14 1.39 2.32 2.12 3.51h3.74c1.23 0 2.48-.01 3.73-.01-.75.75-1.53 1.51-2.29 2.27-.78.77-1.57 1.56-2.38 2.36.81 1.3 1.63 2.66 2.46 4.03.86 1.4 1.74 2.83 2.63 4.31-1.4-.91-2.79-1.83-4.16-2.71-1.34-.87-2.67-1.74-3.98-2.59-.85.85-1.71 1.71-2.58 2.59-.88.88-1.79 1.79-2.7 2.71.1-1.47.21-2.92.31-4.31.09-1.38.21-2.72.3-4.03-1.23-.8-2.45-1.59-3.64-2.36-1.17-.75-2.34-1.51-3.48-2.27 1.24 0 2.48.01 3.72.01h3.72c.09-1.19.17-2.37.25-3.51.07-1.11.16-2.21.23-3.29zm43.71-2.08c.65 1.08 1.32 2.18 1.99 3.29.7 1.14 1.39 2.32 2.12 3.51h3.74c1.23 0 2.48-.01 3.73-.01-.75.75-1.53 1.5-2.29 2.27-.78.77-1.57 1.56-2.38 2.36.81 1.3 1.63 2.66 2.46 4.03.86 1.4 1.74 2.84 2.63 4.31-1.4-.91-2.79-1.83-4.16-2.71-1.34-.87-2.67-1.74-3.98-2.58-.86.85-1.71 1.71-2.59 2.58-.88.88-1.79 1.79-2.7 2.71.1-1.47.21-2.92.3-4.31.09-1.38.21-2.72.3-4.03-1.23-.8-2.45-1.59-3.64-2.36-1.17-.75-2.34-1.51-3.48-2.27 1.24 0 2.48.01 3.72.01h3.72c.09-1.19.17-2.37.25-3.51.07-1.11.16-2.21.23-3.29zm42.88 1.02c.58.97 1.18 1.95 1.79 2.95.62 1.02 1.25 2.08 1.9 3.14h3.35c1.11 0 2.23-.01 3.35-.01-.67.67-1.37 1.35-2.05 2.03-.7.69-1.41 1.4-2.13 2.12.72 1.17 1.46 2.38 2.2 3.61.77 1.26 1.56 2.54 2.36 3.86-1.26-.82-2.51-1.64-3.73-2.42-1.2-.78-2.39-1.56-3.57-2.32-.77.76-1.53 1.53-2.32 2.32L314 74.95c.09-1.32.19-2.61.27-3.86.08-1.24.19-2.44.27-3.61-1.1-.72-2.19-1.42-3.26-2.12-1.05-.67-2.1-1.35-3.12-2.03 1.11 0 2.22.01 3.34.01h3.34c.08-1.06.15-2.12.22-3.14.07-1 .15-1.98.21-2.95zm43.59 3.5c.52.87 1.06 1.75 1.6 2.64.56.91 1.12 1.86 1.7 2.82h3c.99 0 1.99-.01 2.99-.01-.6.6-1.23 1.21-1.84 1.82-.62.62-1.26 1.26-1.91 1.9.65 1.05 1.31 2.13 1.97 3.23.69 1.12 1.4 2.28 2.11 3.46-1.12-.73-2.24-1.47-3.34-2.17-1.08-.7-2.15-1.4-3.19-2.08-.69.68-1.38 1.37-2.08 2.08l-2.17 2.17c.08-1.18.17-2.34.24-3.46.07-1.11.17-2.19.24-3.23-.99-.64-1.97-1.27-2.93-1.9-.94-.6-1.88-1.22-2.8-1.82 1 0 1.99.01 2.99.01h2.99c.07-.95.14-1.9.2-2.82.06-.89.13-1.77.19-2.64zm-156.65 45.19c.78.99 1.59 1.99 2.39 3.01.84 1.04 1.68 2.13 2.55 3.21 1.23-.16 2.47-.31 3.71-.47 1.22-.16 2.46-.32 3.7-.48-.65.84-1.33 1.69-1.99 2.54-.67.86-1.36 1.75-2.06 2.64.97 1.19 1.95 2.43 2.95 3.68 1.03 1.28 2.08 2.59 3.16 3.94-1.51-.73-3-1.46-4.46-2.16-1.45-.69-2.87-1.39-4.28-2.06-.74.95-1.48 1.92-2.24 2.89-.76.99-1.55 2.01-2.33 3.03-.08-1.47-.16-2.92-.24-4.31-.09-1.38-.14-2.73-.21-4.03-1.32-.64-2.63-1.26-3.91-1.88-1.26-.6-2.51-1.21-3.74-1.81 1.23-.16 2.46-.31 3.69-.46 1.23-.16 2.46-.31 3.69-.47-.06-1.19-.13-2.37-.2-3.51-.07-1.11-.12-2.21-.19-3.29zm41.36-5.7c.78.99 1.59 1.99 2.39 3.01.83 1.04 1.68 2.13 2.55 3.21 1.23-.16 2.47-.32 3.71-.47l3.7-.48c-.65.84-1.33 1.69-1.98 2.54-.67.86-1.36 1.75-2.06 2.64.97 1.19 1.95 2.43 2.95 3.69 1.03 1.28 2.08 2.59 3.16 3.94-1.51-.73-3-1.46-4.46-2.16-1.45-.7-2.87-1.39-4.27-2.06-.74.95-1.48 1.91-2.24 2.89-.76.98-1.55 2-2.33 3.02-.08-1.47-.16-2.92-.24-4.31-.09-1.38-.14-2.73-.21-4.03-1.32-.64-2.63-1.26-3.91-1.88-1.26-.6-2.51-1.21-3.74-1.81 1.23-.16 2.46-.3 3.69-.46 1.23-.16 2.46-.31 3.69-.47-.06-1.19-.13-2.37-.2-3.51-.07-1.11-.12-2.21-.19-3.29zm41.08-4.17c.65 1.08 1.32 2.18 1.99 3.29.7 1.14 1.39 2.32 2.12 3.51h3.74c1.23 0 2.48-.01 3.73-.01-.75.75-1.53 1.5-2.29 2.27-.78.77-1.57 1.56-2.38 2.36.81 1.31 1.63 2.66 2.46 4.03.86 1.4 1.74 2.83 2.63 4.31-1.4-.91-2.79-1.83-4.16-2.71-1.34-.87-2.67-1.74-3.98-2.59l-2.59 2.59c-.88.88-1.79 1.79-2.7 2.71.1-1.47.21-2.91.3-4.31.09-1.38.21-2.72.31-4.03-1.24-.8-2.45-1.58-3.64-2.36-1.17-.75-2.34-1.51-3.48-2.27 1.24 0 2.48.01 3.72.01h3.72c.09-1.18.17-2.37.25-3.51.07-1.11.16-2.21.23-3.29zm41.91 0c.58.97 1.18 1.95 1.79 2.95.62 1.02 1.25 2.08 1.9 3.14h3.35c1.11 0 2.23-.01 3.35-.01-.67.67-1.37 1.35-2.05 2.03-.7.69-1.41 1.4-2.13 2.12.72 1.17 1.46 2.38 2.2 3.61.77 1.26 1.56 2.54 2.36 3.86-1.26-.82-2.51-1.64-3.73-2.43-1.21-.78-2.4-1.56-3.57-2.32-.77.76-1.53 1.54-2.32 2.32-.79.79-1.61 1.61-2.42 2.43.09-1.32.19-2.61.27-3.86.08-1.23.19-2.44.27-3.61-1.1-.72-2.19-1.42-3.26-2.12-1.05-.67-2.1-1.36-3.12-2.03 1.11 0 2.22.01 3.34.01h3.34c.08-1.06.15-2.12.22-3.14.06-1 .14-1.98.21-2.95zm40.3 0c.52.87 1.06 1.75 1.6 2.64.56.91 1.12 1.87 1.7 2.82h3c.99 0 1.99-.01 2.99-.01-.6.61-1.23 1.21-1.84 1.82-.62.62-1.26 1.26-1.91 1.9.65 1.05 1.3 2.13 1.97 3.23.69 1.12 1.4 2.28 2.11 3.46-1.12-.73-2.24-1.47-3.34-2.17-1.08-.7-2.15-1.39-3.2-2.08-.69.68-1.37 1.38-2.08 2.08l-2.17 2.17c.08-1.18.17-2.34.24-3.46.07-1.11.17-2.19.24-3.23-.99-.64-1.97-1.27-2.93-1.9-.94-.6-1.88-1.21-2.8-1.82 1 0 1.99.01 2.99.01h2.99c.07-.95.14-1.9.2-2.82.06-.89.13-1.77.19-2.64z"/></g></g></svg>