<svg xmlns="http://www.w3.org/2000/svg" width="37.089" height="49.689" viewBox="0 0 186.73 250.17" shape-rendering="geometricPrecision" text-rendering="geometricPrecision" image-rendering="optimizeQuality" fill-rule="evenodd" clip-rule="evenodd"><path d="M76.21 50.42c-.83 4.01-1.04 11.61.31 14.41 2.45 4.68 2.14 9.85 2.26 15.37.17 8.18 2.73 12.52 6.69 14.03 17.18 6.56 35.15-13.49 42.8-16.86-10.81 9.59-24.29 22.06-40 19.33-2.93-.51-5.29-1.48-7.11-3.69-3.05-3.69-3.24-8.59-3.39-13.14-.16-4.89-.56-9.15-2.58-13.01-3.11-5.94-2.21-10.32-1.23-15.01 1.41-6.79-.06-4.5-.52-9.13-.19-1.85.41-3.68 1.11-4.72-2.01 8.16 1.95 6.17 1.68 12.41zm52.97 119.32c5.44.73 4.25 4.37 0 4.75 2.92 5.01-3.48 6.74-8.05 8.21-1.16.48-2.31.97-3.46 1.45 2.84-1.19 3.46-.27 3.79.14 1.04 1.31-3.17 3.92-3.72 4.21-2.97 1.58-8.01 3.27-9.41 2.89-2.13-6.87 6.93-18.46 14.33-23.4 2.16-1.44 5.6-1.5 6.53 1.73zm55.95-37.99c-.5-2.62-1.04-6.81-4.23-8.4 2.97 2.12 3.15 5.5 3.35 8.56 1.22 18.79-7.03 39.18-20.84 45.72 20.01-7.27 24.87-29.4 21.73-45.88zm-59.09 33.8c6.42-13.61 32.36-64.19 55.89-42.04-22.66-16.78-41.38 19.38-46.7 36.56-2.23-.43-6.8 2.44-9.19 5.47zm-3.54 20.05c-13.68 18.18-32.12 6.87-51.86 8.54 10.31-7.02 35.3 6.3 51.86-8.54zm-79.33 1.21s9.34-54.44 9.34-52.51c0 1.93-6.28 49.45-6.28 50.9 0 1.45-3.06 1.61-3.06 1.61zm-1.69 26.9c-6.97-3.48-3.92-16.51-.54-20.13 1.73-1.86 4.76-4.56 8.84-3.46-3.72 7.49-5.97 15.56-8.29 23.6zm.16 3.22c3.27-9.39 6.55-18.79 9.82-28.19 6.93.65 17.4 1.93 26.09 2.9-25.04 3.59-26.66 10.63-35.92 25.29zm137.01-48.15c-2.03 4.14-4.18 8.37-6.47 12.6h0c-7.8 16.48-16.38 40.62-21.02 58.26-3.06.05-17.88 1.88-20.94 1.93 20.75-10.84 23.67-26.38 33.28-45.47-6.27 9.68-13.5 18.74-21.98 25.92-27.26 23.08-70.93 13.07-104.16 10.05.32-4.78 2.66-9.04 3.7-13.69 9.97 24.35 80.12 16.14 99.09 1.57 15.71-12.07 28.2-34.77 38.49-51.18zM86.9 249.46h65.39l-.48-6.91-64.91 6.91zM6.37 236.91c13.24 6.38 40.03 12.23 68.77 11.34-34.19-1.97-63.05-7.51-69.1-26.64.59 4.99-.27 10.31.32 15.3zm-2.25-1.61c-1.52-26.55.31-29.41 15.03-51.76 8.52-12.94 10.05-23.33 20.24-43.48 4.18-8.27 9.56-15.29 17.41-20-11.03 2.83-18.39 16.9-24.61 30.33-6.31 13.63-11.1 24.37-18.23 32.91-13.31 15.94-16.53 33.41-9.83 52zm143.35-131.27l11.52 6.28 18.04 7.17-19.17-5.64-11.6-3.38 1.21-4.43zm-14.66-17.72c4.51 9.53 8.43 12.96 13.21 15.66-4.72-1.7-11.77-6.12-13.21-15.66zm-1.13 26.98c13.88 3.69 10.29 5.64 14.33-9.9-3.39 9.34-6.65 10.3-14.33 9.9zM89.4 100.16c.83.83 2.6 4 3.06 6.28-2.36 15.58-7.57 26.72-13.53 40.99 4.79-16.85 9.77-33.44 10.47-47.27zm9.02 43.89c8.89-19.79 22.94-32.29 37.37-47.68-.99-1.99-3.23-4.85-4.27-8.94-9.29 19.69-27.57 34.94-33.1 56.61zm-17.56 45.58c18.92-38.3 28.24-44.87 62.09-71.91-8.46 1.21-15.3-2.18-13.13-6.52-28.45 29.71-33.21 40.41-48.96 78.44zm-5.4-75.62c1.3.15 3.89.98 5.19 1.13-20.12 12.77-14.93 53.15-11.15 74.41 2.31.22 4.62.43 6.93.65-6.36-21.52-14.2-58.73 6.44-73.77 1.8-1.72 3.35-3.72 3.94-6.48-4.79 3.11-6.45 3.11-11.35 4.07zm12.72-9.7L52.1 121.14l34.63-12.16 1.45-4.67zm-9.02 80.86c-3.57-28.73 2.48-40.7 13.85-65.39-.9-2.89-.61-7.6.71-8.77 3.59-3.18 22.68-.63 7.34 11.19-6.88 21.31-16.92 41-21.9 62.98zM131.1 83.54c6.83-18.39 22.13-53.76 6.38-69.16C126.25 3.4 96.06-3.49 82.13 3.69c-6.46 3.33-8.54 14.04-7.4 33.79 3.25-12.95 4.29-18.89 16.59-19.91 10.07-.84 22.91 4.08 25.94 9.12-5.65 9.25-2.08 10.05 3.22 19.01.7 6.47.54 9.12-.16 15.62 7.28-.45 4.86-13.37 13.02-11.34 3.77.94 2.53 7.68 1.05 12.79-2.33 8.08-2.74 12.35-3.29 20.77zM90.19 98.36c4.71 7 6.25 11.82 14.92 6.85 7.7-4.41 14.81-11.56 20.44-22.24-15.54 12.2-22.79 15.59-35.35 15.38z" fill="#898989" fill-rule="nonzero" stroke="#898989" stroke-width="1.45" stroke-linejoin="round" stroke-miterlimit="22.926"/></svg>