<svg xmlns="http://www.w3.org/2000/svg" width="16" height="18" viewBox="0 0 2.3 2.3" shape-rendering="geometricPrecision" text-rendering="geometricPrecision" image-rendering="optimizeQuality" fill-rule="evenodd" clip-rule="evenodd"><path d="M2.05.12a.423.423 0 0 0-.3-.12c-.11 0-.22.04-.3.12l-.36.36C1.01.56.97.67.97.78c0 .1.04.2.1.28l-.01.02a.402.402 0 0 0-.28-.1c-.11 0-.22.04-.3.12l-.36.36c-.08.08-.12.18-.12.3 0 .11.04.22.12.3l.13.13c.08.08.19.12.3.12.11 0 .22-.04.3-.12l.36-.36c.16-.16.16-.41.02-.57l.02-.01c.08.07.17.1.27.1.11 0 .22-.04.3-.12l.36-.36c.08-.08.12-.19.12-.3 0-.11-.04-.22-.12-.3L2.05.14zm-.04.55l-.36.36a.19.19 0 0 1-.13.05l-.1-.03.21-.21c.05-.05.05-.12 0-.17a.115.115 0 0 0-.17 0l-.21.21-.03-.1c0-.05.02-.09.05-.13l.36-.36a.19.19 0 0 1 .13-.05c.05 0 .09.02.13.05l.13.13c.03.03.05.08.05.13s-.02.09-.05.13zm-.97.97L.68 2a.19.19 0 0 1-.13.05A.21.21 0 0 1 .42 2l-.13-.13a.19.19 0 0 1-.05-.13c0-.05.02-.09.05-.13l.36-.36a.19.19 0 0 1 .13-.05l.1.03-.21.21c-.05.05-.05.13 0 .17l.09.04.09-.04.21-.21c.05.07.04.17-.02.23z" fill="#fefefe" fill-rule="nonzero"/></svg>