<svg xmlns="http://www.w3.org/2000/svg" width="148.243" height="148.242" viewBox="0 0 11348.18 11348.15" shape-rendering="geometricPrecision" text-rendering="geometricPrecision" image-rendering="optimizeQuality" fill-rule="evenodd" clip-rule="evenodd"><path d="M5674.07 0c3133.63 0 5674.1 2540.45 5674.1 5674.07 0 3133.63-2540.48 5674.07-5674.1 5674.07C2540.44 11348.14 0 8807.69 0 5674.07 0 2540.44 2540.45 0 5674.07 0zm2908.44 8584.89c108.38 0 190.09-16.9 285.97-68.89 86.74-46.9 155.95-113.76 204.9-199.17 92.18-161.04 84.08-334.55 81.71-514.17-5.06-354.49-58.42-715.05-143.48-1070.54-337.94-1412.18-1212-2934.43-2113.72-4051.55-183.32-226.86-773.81-928.43-1139.43-1045.57-67.85-21.58-107.34-20.57-174.87 2.37-366.29 122.88-951.02 817.67-1132.98 1043.2-901.75 1117.13-1775.78 2639.37-2113.75 4051.55-85.06 355.5-138.41 716.06-143.48 1070.54-2.34 179.62-10.79 353.13 81.71 514.17 48.95 85.41 117.81 152.27 204.58 199.17 96.23 51.99 177.59 68.89 286.29 68.89H8582.5zm-2848-6303.05c77.31 26.68 182.31 107.02 306.54 222.15 842.32 776.82 2566.46 3346.66 2456.05 5270.64-23.96 176.58-125.92 279.9-313.98 302.84H3165.36c-188.06-22.94-289.99-126.26-313.98-302.84C2741 5850.65 4465.11 3280.81 5307.11 2503.99c126.58-117.15 233.29-198.16 310.91-223.48 32.43-10.47 84.4-9.81 116.48 1.33zm-98.92 671.5c177.24-2.69 501.67 364.26 607.68 484.1 155.98 176.23 292.05 366.98 435.53 580.68 16.2 22.97 22.63 67.18-43.89 67.18h-316c-63.48 0-85.06-20.92-106.33-52.31-72.94-109.4-152.27-229.23-238.35-339.96-58.07-74.96-231.61-280.91-332.55-278.88-49.27 1.01-133.7 69.21-216.07 149.58-128.95 125.25-254.2 271.42-362.24 415.56-469.26 624.57-936.84 1616.8-871.02 2140.07 7.44 30.03 40.85 55.03 69.21 71.58 1004.37-1.01 2008.75-1.71 3013.12-2.72 24.62 0 40.82 1.36 65.82 5.06 204.24 30.73 336.92 156.32 388.25 356.19 49.27 193.44 59.08 502.33 62.12 704.57.32 44.56 2.69 76.61-8.45 120.51-5.73 23.29-14.84 45.92-26.33 67.18-72.25 128.64-224.17 170.5-362.24 167.12H3882.76c-74.59 0-154.62-30.03-210.31-78.64-84.74-73.95-115.79-180.97-115.47-289.68l1.71-329.17.32-147.18c.35-26.01 21.61-47.28 47.62-47.28h388.57c25.66 0 46.93 21.27 46.58 47.28-.32 109.37-.32 215.06-1.68 324.42-1.36 74.96 38.48 107.37 122.88 107.02 980.74-3.04 1963.5 4.4 2944.58 4.4 24.97 0 53.67 1.33 78.32-.35 86.42-5.06 126.26-43.54 128.29-146.17-2.03-115.82-4.05-231.95-5.41-347.74-4.72-66.17-37.12-112.09-94.87-122.88-20.6-4.05-54.68-2.03-76.96-2.03-328.82-.35-657.99-.69-986.46-1.01H4083.31c-74.94 0-104.97-.35-154.62-21.27-146.52-61.45-214.36-190.09-209.65-356.86 0-185.34 38.83-387.9 88.45-567.17 168.82-614.76 588.12-1403.76 1047.6-1982.39 130.31-164.08 602.93-696.15 780.52-698.84z" fill="#c62829"/><path d="M8582.52 8584.89c108.38 0 190.09-16.9 285.97-68.89 86.74-46.9 155.95-113.76 204.9-199.17 92.18-161.04 84.08-334.55 81.71-514.17-5.06-354.49-58.42-715.05-143.48-1070.54-337.94-1412.18-1212-2934.43-2113.72-4051.55-183.32-226.86-773.81-928.43-1139.43-1045.57-67.85-21.58-107.34-20.57-174.87 2.37-366.29 122.88-951.02 817.67-1132.98 1043.2-901.75 1117.13-1775.78 2639.37-2113.75 4051.55-85.06 355.5-138.41 716.06-143.48 1070.54-2.34 179.62-10.79 353.13 81.71 514.17 48.95 85.41 117.81 152.27 204.58 199.17 96.23 51.99 177.59 68.89 286.29 68.89h5816.54zm-2848-6303.05c77.31 26.68 182.31 107.02 306.54 222.15 842.32 776.82 2566.46 3346.66 2456.05 5270.64-23.96 176.58-125.92 279.9-313.98 302.84H3165.37c-188.06-22.94-289.99-126.26-313.98-302.84-110.38-1923.98 1613.73-4493.82 2455.73-5270.64 126.58-117.15 233.29-198.16 310.91-223.48 32.43-10.47 84.4-9.81 116.48 1.33zm-98.92 671.5c177.24-2.69 501.67 364.26 607.68 484.1 155.98 176.23 292.05 366.98 435.53 580.68 16.2 22.97 22.63 67.18-43.89 67.18h-316c-63.48 0-85.06-20.92-106.33-52.31-72.94-109.4-152.27-229.23-238.35-339.96-58.07-74.96-231.61-280.91-332.55-278.88-49.27 1.01-133.7 69.21-216.07 149.58-128.95 125.25-254.2 271.42-362.24 415.56-469.26 624.57-936.84 1616.8-871.02 2140.07 7.44 30.03 40.85 55.03 69.21 71.58 1004.37-1.01 2008.75-1.71 3013.12-2.72 24.62 0 40.82 1.36 65.82 5.06 204.24 30.73 336.92 156.32 388.25 356.19 49.27 193.44 59.08 502.33 62.12 704.57.32 44.56 2.69 76.61-8.45 120.51-5.73 23.29-14.84 45.92-26.33 67.18-72.25 128.64-224.17 170.5-362.24 167.12H3882.77c-74.59 0-154.62-30.03-210.31-78.64-84.74-73.95-115.79-180.97-115.47-289.68l1.71-329.17.32-147.18c.35-26.01 21.61-47.28 47.62-47.28h388.57c25.66 0 46.93 21.27 46.58 47.28-.32 109.37-.32 215.06-1.68 324.42-1.36 74.96 38.48 107.37 122.88 107.02 980.74-3.04 1963.5 4.4 2944.58 4.4 24.97 0 53.67 1.33 78.32-.35 86.42-5.06 126.26-43.54 128.29-146.17-2.03-115.82-4.05-231.95-5.41-347.74-4.72-66.17-37.12-112.09-94.87-122.88-20.6-4.05-54.68-2.03-76.96-2.03-328.82-.35-657.99-.69-986.46-1.01H4083.32c-74.94 0-104.97-.35-154.62-21.27-146.52-61.45-214.36-190.09-209.65-356.86 0-185.34 38.83-387.9 88.45-567.17 168.82-614.76 588.12-1403.76 1047.6-1982.39 130.31-164.08 602.93-696.15 780.52-698.84z" fill="#fefefe"/></svg>