<svg xmlns="http://www.w3.org/2000/svg" width="148.243" height="148.242" viewBox="0 0 1248.6 1248.59" shape-rendering="geometricPrecision" text-rendering="geometricPrecision" image-rendering="optimizeQuality" fill-rule="evenodd" clip-rule="evenodd"><path d="M624.3 0c344.78 0 624.3 279.52 624.3 624.3s-279.52 624.3-624.3 624.3S0 969.08 0 624.3 279.52 0 624.3 0zm320.01 944.56c11.92 0 20.91-1.86 31.46-7.58 9.54-5.16 17.16-12.52 22.54-21.91 10.14-17.72 9.25-36.81 8.99-56.57-.56-39-6.43-78.67-15.79-117.79-37.18-155.38-133.35-322.86-232.56-445.78-20.17-24.96-85.14-102.15-125.37-115.04-7.47-2.37-11.81-2.26-19.24.26-40.3 13.52-104.64 89.97-124.66 114.78-99.22 122.91-195.38 290.4-232.57 445.78-9.36 39.11-15.23 78.79-15.79 117.79-.26 19.76-1.19 38.85 8.99 56.57 5.39 9.4 12.96 16.75 22.51 21.91 10.59 5.72 19.54 7.58 31.5 7.58h639.97zm-313.36-693.5c8.51 2.94 20.06 11.78 33.73 24.44 92.68 85.47 282.38 368.22 270.23 579.91-2.64 19.43-13.85 30.8-34.55 33.32H348.27c-20.69-2.52-31.91-13.89-34.55-33.32-12.14-211.69 177.55-494.44 270.19-579.91 13.93-12.89 25.67-21.8 34.21-24.59 3.57-1.15 9.29-1.08 12.82.15zm-10.88 73.88c19.5-.3 55.2 40.08 66.86 53.26 17.16 19.39 32.13 40.38 47.92 63.89 1.78 2.53 2.49 7.39-4.83 7.39h-34.77c-6.98 0-9.36-2.3-11.7-5.76-8.03-12.04-16.75-25.22-26.22-37.4-6.39-8.25-25.48-30.91-36.59-30.68-5.42.11-14.71 7.61-23.77 16.46-14.19 13.78-27.97 29.86-39.86 45.72-51.63 68.72-103.08 177.89-95.84 235.46.82 3.3 4.49 6.05 7.61 7.88 110.51-.11 221.02-.19 331.52-.3 2.71 0 4.49.15 7.24.56 22.47 3.38 37.07 17.2 42.72 39.19 5.42 21.28 6.5 55.27 6.83 77.52.04 4.9.3 8.43-.93 13.26-.63 2.56-1.63 5.05-2.9 7.39-7.95 14.15-24.66 18.76-39.86 18.39H427.19c-8.21 0-17.01-3.3-23.14-8.65-9.32-8.14-12.74-19.91-12.7-31.87l.19-36.22.04-16.19c.04-2.86 2.38-5.2 5.24-5.2h42.75c2.82 0 5.16 2.34 5.13 5.2-.04 12.03-.04 23.66-.18 35.7-.15 8.25 4.23 11.81 13.52 11.78 107.91-.33 216.04.48 323.98.48 2.75 0 5.91.15 8.62-.04 9.51-.56 13.89-4.79 14.12-16.08-.22-12.74-.45-25.52-.6-38.26-.52-7.28-4.08-12.33-10.44-13.52-2.27-.45-6.02-.22-8.47-.22-36.18-.04-72.4-.08-108.54-.11H449.27c-8.24 0-11.55-.04-17.01-2.34-16.12-6.76-23.59-20.91-23.07-39.26 0-20.39 4.27-42.68 9.73-62.4 18.57-67.64 64.71-154.45 115.26-218.12 14.34-18.05 66.34-76.6 85.88-76.89z" fill="#c62829"/></svg>