<svg xmlns="http://www.w3.org/2000/svg" width="155.713" height="155.713" viewBox="0 0 1547.67 1547.67" shape-rendering="geometricPrecision" text-rendering="geometricPrecision" image-rendering="optimizeQuality" fill-rule="evenodd" clip-rule="evenodd"><defs><style>.fil0{fill:#ebebeb}.fil2{fill:#c62829}</style></defs><g id="Слой_x0020_1"><g id="_2674441845520"><circle class="fil0" cx="773.84" cy="773.84" r="736.71"/><path d="M773.84 0c213.47 0 406.91 86.62 547 226.66 140.23 140.27 226.84 333.7 226.84 547.18 0 213.47-86.62 406.9-226.66 547-140.27 140.22-333.7 226.84-547.18 226.84-213.47 0-406.9-86.62-547-226.66C86.62 1180.75 0 987.32 0 773.85c0-213.47 86.62-406.91 226.66-547C366.93 86.62 560.36.01 773.83.01zm494.75 279.09C1142.04 152.5 967.1 74.26 773.84 74.26S405.64 152.5 279.18 279C152.5 405.63 74.26 580.57 74.26 773.84c0 193.26 78.25 368.2 204.75 494.66 126.63 126.68 301.57 204.92 494.83 204.92s368.2-78.25 494.66-204.75c126.68-126.63 204.92-301.57 204.92-494.83s-78.24-368.2-204.83-494.75z" fill="#c62829" fill-rule="nonzero"/><path class="fil2" d="M1151.46 1151.77c14.07 0 24.68-2.19 37.13-8.94 11.26-6.09 20.25-14.77 26.6-25.86 11.97-20.91 10.92-43.44 10.61-66.76-.66-46.03-7.58-92.84-18.63-138.99-43.88-183.36-157.36-381-274.44-526.05-23.8-29.46-100.47-120.54-147.94-135.75-8.81-2.81-13.94-2.67-22.71.31-47.56 15.95-123.48 106.16-147.1 135.44C497.9 530.22 384.42 727.86 340.54 911.22c-11.04 46.16-17.97 92.97-18.63 138.99-.3 23.32-1.4 45.85 10.61 66.76 6.36 11.09 15.3 19.77 26.56 25.86 12.49 6.75 23.06 8.94 37.17 8.94h755.21z"/><path class="fil0" d="M781.68 333.4c10.04 3.46 23.67 13.9 39.8 28.84 109.37 100.86 333.22 434.52 318.89 684.33-3.11 22.93-16.35 36.34-40.76 39.32h-651.5c-24.41-2.98-37.65-16.39-40.77-39.32-14.33-249.81 209.53-583.47 318.85-684.33 16.44-15.21 30.29-25.73 40.37-29.02 4.21-1.36 10.96-1.27 15.12.18z"/><path class="fil2" d="M768.84 420.58c23.01-.35 65.14 47.3 78.9 62.86 20.25 22.88 37.92 47.65 56.55 75.39 2.1 2.98 2.94 8.72-5.7 8.72h-41.03c-8.24 0-11.04-2.72-13.81-6.8-9.47-14.2-19.77-29.76-30.95-44.14-7.54-9.73-30.07-36.47-43.18-36.21-6.4.13-17.36 8.99-28.05 19.42-16.74 16.26-33.01 35.24-47.03 53.96-60.93 81.09-121.64 209.92-113.09 277.86.97 3.9 5.3 7.15 8.99 9.29 130.41-.13 260.81-.22 391.22-.35 3.2 0 5.3.17 8.55.66 26.52 3.99 43.75 20.29 50.41 46.24 6.4 25.12 7.67 65.23 8.07 91.48.04 5.79.35 9.95-1.1 15.65-.74 3.02-1.93 5.96-3.42 8.72-9.38 16.7-29.11 22.13-47.03 21.7H541.27c-9.68 0-20.08-3.9-27.31-10.21-11-9.6-15.03-23.49-14.99-37.61l.22-42.73.04-19.11c.05-3.37 2.81-6.13 6.18-6.13h50.45c3.33 0 6.09 2.76 6.05 6.13-.04 14.2-.04 27.92-.22 42.13-.18 9.73 5 13.94 15.95 13.89 127.34-.39 254.94.57 382.32.57 3.24 0 6.97.18 10.17-.05 11.22-.66 16.39-5.65 16.66-18.98-.26-15.03-.53-30.11-.7-45.15-.61-8.59-4.82-14.55-12.32-15.95-2.67-.53-7.1-.26-9.99-.26-42.69-.05-85.43-.09-128.08-.13H567.31c-9.73 0-13.63-.05-20.08-2.76-19.02-7.98-27.83-24.68-27.22-46.33 0-24.06 5.04-50.36 11.48-73.64 21.92-79.82 76.36-182.26 136.02-257.39 16.92-21.3 78.29-90.38 101.34-90.74z"/></g></g></svg>