<svg xmlns="http://www.w3.org/2000/svg" width="155.714" height="155.714" viewBox="0 0 1115.69 1115.69" shape-rendering="geometricPrecision" text-rendering="geometricPrecision" image-rendering="optimizeQuality" fill-rule="evenodd" clip-rule="evenodd"><defs><style>.fil1{fill:#c62829}</style></defs><g id="Слой_x0020_1"><path d="M557.85 0c153.89 0 293.33 62.44 394.32 163.39 101.09 101.12 163.52 240.56 163.52 394.45s-62.44 293.33-163.39 394.32c-101.12 101.08-240.56 163.52-394.45 163.52s-293.33-62.44-394.32-163.39C62.45 851.17.01 711.73.01 557.85c0-153.89 62.44-293.33 163.39-394.32C264.52 62.44 403.96.01 557.84.01l.01-.01zm356.66 201.19C823.28 109.93 697.17 53.53 557.85 53.53c-139.32 0-265.43 56.4-356.59 147.59-91.32 91.29-147.72 217.4-147.72 356.72 0 139.32 56.41 265.43 147.6 356.59 91.29 91.32 217.4 147.72 356.71 147.72 139.32 0 265.43-56.41 356.59-147.6 91.32-91.29 147.72-217.4 147.72-356.71 0-139.32-56.4-265.43-147.66-356.66z" fill="#c62829" fill-rule="nonzero"/><path class="fil1" d="M830.07 830.29c10.14 0 17.79-1.58 26.77-6.45 8.12-4.39 14.6-10.65 19.18-18.64 8.63-15.07 7.87-31.32 7.65-48.13-.48-33.18-5.46-66.93-13.43-100.19C838.61 524.7 756.8 382.22 672.4 277.66c-17.16-21.24-72.43-86.9-106.65-97.86-6.35-2.03-10.05-1.93-16.37.22-34.29 11.5-89.01 76.53-106.04 97.64-84.4 104.56-166.21 247.04-197.84 379.22-7.96 33.28-12.96 67.02-13.43 100.19-.22 16.81-1.01 33.05 7.65 48.13 4.58 7.99 11.03 14.25 19.15 18.64 9 4.87 16.62 6.45 26.8 6.45h544.42zM563.5 240.34c7.24 2.49 17.06 10.02 28.69 20.79 78.84 72.71 240.21 313.24 229.88 493.32-2.24 16.53-11.79 26.2-29.38 28.35H323.04c-17.6-2.15-27.14-11.82-29.39-28.35C283.32 574.37 444.7 333.84 523.5 261.13c11.85-10.96 21.83-18.55 29.1-20.92 3.04-.98 7.9-.92 10.9.13z"/><path class="fil1" d="M554.24 303.19c16.59-.25 46.96 34.1 56.88 45.31 14.6 16.49 27.33 34.35 40.77 54.35 1.51 2.15 2.12 6.29-4.11 6.29H618.2c-5.94 0-7.96-1.96-9.95-4.9-6.83-10.24-14.25-21.45-22.31-31.82-5.44-7.01-21.68-26.29-31.13-26.1-4.61.09-12.51 6.48-20.22 14-12.07 11.72-23.8 25.4-33.9 38.9-43.92 58.46-87.69 151.33-81.53 200.31.7 2.81 3.82 5.15 6.48 6.7 94.01-.09 188.01-.16 282.02-.25 2.31 0 3.82.12 6.16.48 19.12 2.88 31.54 14.63 36.34 33.33 4.61 18.11 5.53 47.02 5.82 65.95.03 4.17.25 7.17-.79 11.28-.53 2.18-1.39 4.3-2.46 6.29-6.76 12.04-20.98 15.95-33.9 15.64H390.2c-6.98 0-14.47-2.81-19.69-7.36-7.93-6.92-10.83-16.93-10.81-27.11l.16-30.8.03-13.78c.04-2.43 2.03-4.42 4.45-4.42h36.37c2.4 0 4.39 1.99 4.36 4.42-.03 10.24-.03 20.13-.16 30.37-.13 7.01 3.6 10.05 11.5 10.01 91.8-.28 183.78.41 275.61.41 2.33 0 5.02.13 7.33-.04 8.09-.48 11.82-4.07 12.01-13.68-.19-10.83-.38-21.7-.5-32.55-.44-6.19-3.47-10.49-8.88-11.5-1.93-.38-5.12-.19-7.2-.19-30.77-.04-61.59-.06-92.33-.09H408.97c-7.01 0-9.82-.04-14.47-1.99-13.71-5.75-20.06-17.79-19.62-33.4 0-17.34 3.63-36.3 8.28-53.09 15.8-57.54 55.05-131.39 98.06-185.55 12.2-15.35 56.44-65.15 73.05-65.41l-.01-.01z"/></g></svg>