<svg xmlns="http://www.w3.org/2000/svg" width="38.87" height="48.007" viewBox="0 0 99.04 122.32" shape-rendering="geometricPrecision" text-rendering="geometricPrecision" image-rendering="optimizeQuality" fill-rule="evenodd" clip-rule="evenodd"><defs><style>.str0{stroke:#898989;stroke-width:.73;stroke-linejoin:round;stroke-miterlimit:22.9256}.fil0,.fil1{fill:#898989}.fil0{fill-rule:nonzero}</style></defs><g id="Слой_x0020_1"><g id="_1942819900144"><path class="fil0 str0" d="M33.02.39l.09.01c2.08.2 3.88 1.26 5.08 3.02 1.15 1.69 1.74 4.01 1.49 6.82l-.01.09c-.26 2.73-1.21 4.76-2.56 6.1-1.53 1.52-3.56 2.16-5.72 1.96-2.16-.21-4.03-1.22-5.24-3.01-1.08-1.58-1.62-3.75-1.36-6.48.26-2.75 1.23-4.89 2.62-6.35C28.92.96 30.92.21 33.03.38zm4.81 4.44c-.94-1.39-2.35-2.23-3.98-2.38-1.68-.16-3.27.44-4.47 1.7-1.18 1.25-2.02 3.14-2.25 5.61-.23 2.42.22 4.3 1.12 5.62.95 1.4 2.43 2.2 4.15 2.36 1.72.16 3.32-.34 4.52-1.53 1.13-1.13 1.93-2.89 2.16-5.31.24-2.55-.26-4.62-1.25-6.07zM8.24 81.07l-2.71-.76c8.2-8.56 12.05-13.12 11.43-25.8 2.88 10.3-1.8 19.34-8.72 26.56zM.37 39.65C4.1 25.39 9.23 16.59 25.63 17.07 11.05 20.04 7.65 20.83 3.12 38.15c-.88-.56-2.22.66-2.75 1.5zM23.06 25.3c-1.39 1.17-3.9 2.8-5.62 3.54-3.32.99-4.56-.93-6.07 3.13-1.66 3.84-2.22 10.26-7.23 9.36 4.95-.49 5.15-7.27 7.56-12.05.62-1.23 1.06-1.82 2.54-1.7 4.4.36 3.98.06 8.81-2.28zM46.4 62.27c1.34 1.84 2.69 4.2 4.28 7.36 1.6 3.17 3.25 4.57 5.74 1.75-.06 1.57 1.18 1.04 2.88.34-3.07 3.48-6.95 4.11-8.88.83-3.94-6.72-5.08-14.8-16.31-16.35-4.71-.65-9.93.18-14.49-2.18-4.02-2.07-5.64-6.97-5.58-11.25.06-4.16 1.07-8.44 1.74-12.56.26 9.4-3.25 20.6 8.2 23.32 8.54 2.03 15.99-.08 22.41 8.73zM32.65 42.1c-.51-4.54 1.08-9.37 6.53-10.87-4.44 2.53-6.21 7.16-4.64 12.11-.32-.83-1.54-1.15-1.89-1.24zm5.49-9.17c6.56 6.94 29.01 8.78 24.76.36 2.54 2.35.13 5.03-2.58 5.64-6.85 1.54-16.88.89-22.43-3.69.59-.54.19-1.54.24-2.3zm12.98-1.81c-2.39.13-6.87.76-8.41-1.53-.82-1.78-1.76-4.14-3.49-6.46a17.668 17.668 0 0 0-4.91-4.49c7.11 2.64 6.58 6.4 8.73 9.1 1.31 1.65 3.22 2.74 7.73 2.5 4.02-.21 7.88-.3 12.08 2.16-4.58-1.42-6.55-1.56-11.73-1.29zm7.63 38.57c-5.4-20.66-22.38-23.62-29.62-27.61 16.24 5.68 26.76 10.37 31.75 29.42-.53-.82-1.44-1.68-2.12-1.81zm-33.07 1.63c.97-2 1.71-3.74 2.19-5.24 2.47-7.72-2.61-5.89-8.2-8.48l-.97-2.45c4.47 1.98 7.79 2.22 13.36 2.04-.41 5.02-1.39 11.14-3.92 15.6-2.58 4.55-6.93 8.09-10.58 11.16-2.05 1.73-3.69 2.27-5.2 1.95-1.48-.31-2.69-1.43-3.92-3.04 7 2.21 10.95-1.94 17.23-11.55z"/><path class="fil0 str0" d="M25.55 15.77c2.18 4.68 4.09 11.99 4.59 17.35-2.12-7.98-4.43-13.77-7.3-14.52l2.71-2.84zm5.21 16.78c-.52-4.78 2.39-11.58 4-14.34l.86 1.8c-2.26 3.87-4.39 7.19-4.86 12.54z"/><path class="fil1 str0" d="M29.39 26.24c.18-.81-.13-4.08-.55-4.74-.4-.63-.61-1.32-.24-1.82.63-.86 3.31-.57 3.62.27.28.76-.19 1.21-.51 1.53-.49.49-.81 3.93-.63 4.63-.35.88-.54 1.37-.9 2.14-.25-.99-.4-1.53-.79-2.01zm-9.28 72.85c-2.99 7.94-17.31 19.93-6.65 20.44 6.44.3 4.89-3.86 6.42-11.07.09 2.86.03 6.19.08 9.18.04 2.65-.17 3.56-2.65 4.23-4.19.12-8.28-.08-12.47.04.28-6.58.25-12.04.12-18.19-.11-5.26.64-5.5 3.57-5.57 3.43-.08 6.87-.16 10.95-.04-2.43.26-5.2.57-7.55 1.01-6.72 1.25-5.58 3.59-5.69 9.88-.14 8.2 3.33 5 13.87-9.92zm18.94 19.12c3.73-1.3 2.78-6.95 4.14-15.7.1 4.13.03 8.93.09 13.24.05 3.82-.18 5.14-2.8 6.1-4.42.17-8.75-.11-13.17.06.3-9.48.26-17.37.13-26.23-.11-7.59.68-7.93 3.77-8.03 3.62-.12 7.25-.22 11.56-.05-2.57.38-5.49.83-7.97 1.46-7.1 1.8-5.9 5.18-6.01 14.25-.09 6.7.43 10.92 2 13.18 1.69 2.43 5.99 2.51 8.26 1.72zm22.79-1.42c3.73-1.81 2.78-9.69 4.15-21.91.1 5.76.03 12.46.09 18.47.05 5.33-.18 7.17-2.8 8.51-4.42.24-8.75-.15-13.17.09.3-13.23.26-24.23.13-36.59-.11-10.59-.18-11.34 2.91-11.48 3.62-.16 8.12-.26 12.43-.02-7.04 2-12.58 11.21-14.01 21.93-1.83 13.74 2.33 24.86 10.28 21z"/><path class="fil1 str0" d="M82.09 113.99c2.87-1.13 5.19-6.89 6.55-19.11.1 5.76.03 12.46.09 18.47.05 5.33-.18 7.17-2.8 8.51-4.42.24-8.75-.15-13.17.09.3-13.23.26-41.28.13-53.63-.03-3.25.07-5.89.14-7.55-2.78-.11-6.28.17-9.14-.13-2.24-.23.01-3.24 1.14-4.9 4.84-7.09 14.33-23.96 15.11-23.89-4.32 7.18-7.63 13.84-10.47 20.76-2.2 5.35.35 5 4.54 5.12 5.35.15 13.41.11 14.3.16-2.31.66-4.47 2.1-6.37 4.11-3.87 4.11-6.97 9.56-7.93 16.74-1.83 13.74-.35 38.47 7.88 35.24z"/><path class="fil1 str0" d="M83.48 34.4c5.99 11.85 16.8 22.34 5.24 26.41 7.89-.2 13.07 1.36 7.83-5.77-5.46-7.42-8.15-12.9-13.06-20.64z"/></g></g></svg>