<svg xmlns="http://www.w3.org/2000/svg" width="74.016" height="51.68" viewBox="0 0 966.4 674.77" shape-rendering="geometricPrecision" text-rendering="geometricPrecision" image-rendering="optimizeQuality" fill-rule="evenodd" clip-rule="evenodd"><defs><style>.fil0{fill:#fefefe}</style></defs><g id="Слой_x0020_1"><g id="_1658629757792"><path class="fil0" d="M951.22 362.81l-57.63 17.24c-6.02 1.83-8.41 3.23-14.33 2.66-6.41-.62-10.87.05-15.81 2.67-4.32 2.29-6.91 5.32-11.74 7.01-16.1 5.63-53.49 15.55-72.4 21.29L590.59 469.4c-8.59 2.76-6.27 1.5-12.49-2.43-18.31-11.57-38.65-5.45-52.46 9.38l-8.32 10.42c-1.36 1.19-10.27 6.21-12.4 7.38-99.68 54.9-134.37 58.18-242.7 48.32-45.06-4.1-89.68-10.22-133.91-17.02l-97.09-15.36c-6.31-1.07-9.21-3.21-12.03-6.7-1.66-2.06-2.39-3.72-3.56-6.35l-2.46-6.26c-.06-.13-.18-.43-.31-.63-6.58 11.15.15 29.5.25 31.33 1.58 30.26-5.49 27.01 35.55 40.12 11.56 3.69 6.68-.2 14.81 23.77 4.76 14.06 4.16 14.19 19.37 17.94 10.2 2.51 20.45 5.53 30.54 7.93 12.81 3.04 18.49 6.37 29.21-.38 8.62-5.43 13.86-11.34 19.05-19.44l74.87 15.97c33.78 7.57 80.46 16.05 115.68 20.27 17.55 2.1 65.22-3.26 84.14-6.19 12.3-1.91 27.89-5.15 40.82-5.84 2.04 3.74 2.47 10.3 3.24 14.97 3.53 21.33 6 25.06 22.54 32.71 38.88 17.96 78.88 19.05 95.67-28.19 5.7-16.05 10.24-45.6 11.12-63.21l.27 7.07 101.16-43.24c8.48-3.76 16.12-6.81 24.83-10.68l25.84-10.66c6.57-3.44 45.45-20.52 50.74-21.51 8.05 39.25 11.52 46.18 38.15 47.38 26.72 1.2 45.41-5.59 53.62-32.14 4.12-13.34 7.24-35.49 7.53-50.66.21-.14.57-.53.68-.32.68 1.25 13.84-7.09 17.92-10.62 5.63-4.87 9.86-9.73 13.95-16.62 26.55-44.69 23.88-105.12 18.33-156.54-7.87-72.82-13.33-114.41-27.99-183.8-1.34-6.33-5.37-19.68-5.62-24.02.2 8.99 2.77 24.29 4.19 34.4 5.73 40.53 17.41 145.94 18.87 183.01 1.04 26.59.03 53.45-.99 79.85zM340.89 579.54c4.36 10.8 2.68 7.4 2.19 18.69 13.89 1.09 31.48 1.02 45.05-1.02 13.7-2.05 24.06-6.13 36.21-10.16 10.45-3.46 64.77-20.67 69.94-23.73l2.68-22.39c-5.38 2.35-9.7 5.57-15.73 8.36-40.36 18.75-96.27 29.42-140.34 30.24zM61.66 554.68c19.14 2.79 40.57 7.58 60.63 11.2 59.1 10.64 131.45 21.24 190.69 28.91-.76-10.81 1.71-8.75 2.58-15.75-51.97-1.61-142.84-15.09-194.26-27.96-9.7-2.43-20.1-4.65-29.55-6.93-9.85-2.37-20.28-5.73-29.94-7.72 3.37 11.86 2.39 7.21-.14 18.25zm-16.95-4.43c-1.54-9.28.18-13.28 5.37-16.95l-36.51-13.93c1.28 6.35 3.82 20.15 7.7 23.35 3.56 2.93 18.23 6.95 23.44 7.54zm483.11-8.2c10.37.6 16.62-19.33 19.61-29.13 2.85-9.31 14.42-28.94 24.72-22.27 14.96 9.7 15.64 61.57 14.98 85.15-1.83-22.46-3.01-46.13-10.23-65.24-1.67-4.42-3.18-11.04-9.6-8.62-9.4 3.55-15.54 32.02-17.01 41.53-9.45 61.2 11.2 135.59 32.1 91.18 17.63-37.46 19.95-93.5 7.94-131.6-9.73-30.84-32.77-30.39-42.86-17.67-8.84 11.15-17.77 39.28-19.64 56.67zm373.17-144.02c2.94 9.41 6.68 10.45 9.63 28.38 7.83-2.75 18.84-13.11 24.24-17.93 7.36-6.58 11.86-15.83 13.79-29.12l-47.66 18.67zM606.42 514.65c2.24 11.73 3.53 24.51 4.31 37.3l1.09-23.88c4.12-2.4 211.43-64.67 218.8-67.07.59-6.51.6-13.02 1.47-19.2.87-6.26 3.25-11.97 3.98-17.85l-114.69 45.11c-19.15 7.67-37.89 14.77-57.11 22.73-9.35 3.88-19.5 7.95-28.96 11.46l-28.89 11.4zm243.81-73.44c13.87-2.26 15.3-45.19 31.38-40.16 12.14 3.79 14.2 44.58 13.26 60.62-1.53-5.51-2.38-20.92-3.56-27.97-1.43-8.56-3.78-17.81-7.73-23.51-8.36-.08-9.72 6.08-11.93 12.99-20.43 63.99 9.8 147.32 28.19 62.61 4.35-20.01 8.03-96.32-24.19-93.98-17.77 1.29-25.94 43.39-25.42 49.4z"/><path class="fil0" d="M8.39 479.72c.26-4.9-.57-9.05-.36-14.36.47-11.53 1.06-33.08 5.47-41.53 1.11 9.42 2.06 18.51 4.77 26.33 3.47 10.05 5.85 13.17 13.86 17.59 10.68 5.9 34.59 13.79 49.51 13.15 1.38-22.63-15.8-50.23-30.12-65.03l-16.77-15.39c5.36-.24 30.95 5.29 38.45 6.5 49.27 8 199.77 19.93 251.21 20.92 13.2.26 30.19.8 43.47 2.3-7.27 4.71-36.33 7.19-59.91 25.68-14.77 11.59-32.22 34.02-33.8 52.78 45.06 1.36 89.12 10.17 139.65 2.74 12.15-1.79 46.06-13.02 56.03-16.9 8.69-3.38 44.59-20.44 48.67-25.02-14.75 4.12-43.84 10.26-60.72 6.41-12.78-2.92-10.63-11.05-9.64-24.52 2.24-30.25 10.31-58.27 21.48-85.21 5.32-12.86 17.78-40.29 18.01-52.25-3.7 7.48-7.87 14.93-11.78 22.01l-34.58 68.82c-13.8 2.27-36.42 2.33-50.85 2.44-75.95.54-307.49-1.81-352.7-24.5.78-2.95 20.73-30.38 24-34.08 6.95-7.86 27.63-26.45 36.84-35.16 3.79-3.58 4.07-4.39 10.43-3.55 49.46 6.5 150.47 2.74 199.61 2.66 21.99-.03 93.65-1.59 113.03-3.57-4.21-1.62-65.05-4.21-74.59-4.29-24.89-.21-50.97-1.85-75.88-3.13l-169.73-8.47c-2.92.23-29.61 23.33-32.76 26.01l-10.45 9.22c-25.23 21.07-49.45 49.43-55.96 83-7.46 38.49 5.92 51.02 6.13 68.37zm287.98 13.61c9.87 2.23 107.06-10.36 118.49-14.32-2.37-13.52.66-20.37 2.67-33.33-26.2 2.63-77.32 13.78-99.95 27.68-5.64 3.47-20.65 13.15-21.21 19.97zM19.01 414.22c-2.95 2.77-3.43 29.7 6.32 35.73 3.77 2.33 27.55 14.33 31.68 10.29 4.25-4.16-29.64-53.89-38-46.02z"/><path class="fil0" d="M221.21 111c13.51.97 26.79.08 40.09-.38 35.6-1.23 92.5-.22 129.12-.08 21.84.08 143.86 1.01 164.07 7.52 4.71 20.05-2.21 44.45-7.04 62.72-4.68 17.71-11.2 38.98-18.23 54.68-14.27 31.85-13.31 32.57-38.02 35.17-61.13 6.43-299.03 6.31-359.26 2.39.39-11.45 20.74-50.1 25.35-60.47 5.35-12.05 26.36-52.45 28.29-58.96l-4.82 7.43c-8.75 16.19-24.07 41.12-31.04 54.78-5.6 10.97-12.37 20.92-17.46 31.78-2.28 4.87-6.23 10.65-9.07 15.56-2.88 4.99-5.41 10.97-8.36 15.5 21.26 2.75 44.73 2.74 65.85 4.93 45.04 4.68 162.4 9.12 204.81 9.03 41.02-.08 97.34.86 134.37-8.3 24.56-6.07 20.74-10.95 29.22-41.72 2.58-9.35 5.14-18.51 7.39-28.11 2.19-9.32 4.59-20.26 7.27-29.04l14.69-.01c-2.6 10.59-6.71 21.64-9.47 32.63-6.32 25.26-10.91 45.62-15.52 71.22-1.9 10.61-5.69 26.98-6.08 37.12 9.09-1.56 73.33-20.13 88.01-24.2 9.43-2.61 19.56-4.9 28.79-7.99l-82.48 6.42c-.22-11.36 7.28-62.37 10.59-72.57 3.88 25.07-4.13 44.52 12.69 47.36 5.33.91 23.08.52 26.83-1.47 13.09-6.95 10.78-67.39 9.34-80.09-1-8.79.25-19.27-6.94-23.48-6.78-3.97-18.57-3.78-26.91-1.93.05-7.29 12.81-21.49 17.55-25.62 5.99-5.21 17.87-14.29 26.82-16.59 2.13 2.89 3.78 15.88 5.39 26.28l14.11 83.35-7.46-131.38c-25.56.77-39.71 8.04-52.56 20.69-9.31 9.16-22.61 30.66-27.23 46.42l-16.08-2.2c.27-5.55 6.97-33.22 8.33-47.55 2.2-23.19 2.17-21.12-30.47-25.5-56.75-7.61-266.15 8.97-324.48 14.64zm6.58-21.28c5.14-4.19 23.52-24.25 37.43-35.4 36.11-28.94 41.51-31.06 91.68-31.72 47.9-.63 246.85-2.9 290.19 1.72 29.85 3.18 59.34 5.83 88.92 9.66 29.64 3.84 58.64 6.8 87.96 10.62 11.67 1.52 81.63 10.84 87.3 10.07-4.37.27-33.68-7.09-41.21-8.83-37.16-8.6-92.3-20.84-128.28-27.44-28.92-5.3-57.83-12.15-87.37-16.15C635.7-.28 625.59-.18 606.3.17c-50.84.93-99.4 3.16-151.82 3.86-23.59.32-126.85 1.67-145.86 9.86-19.63 8.46-43.26 31.11-57.35 47.07-4.51 5.1-21.32 23.52-23.48 28.74z"/><path class="fil0" d="M584.19 68.53c-28.72-.03-59.47 1.94-88.22 3.69-28.47 1.73-58.64 4.81-86.78 5.74-29.04.96-58.06 4.48-86.77 5.92-28.17 1.42-58.47 3.67-86.26 6.52l188.76-.88c31.24-.08 63.01-.71 94.64-.72 14.04 0 34-1.26 47.29.05 13.77 1.36 29.04 4.92 42.41 5.68 2.65-4.25 3.39-10.07 5.3-15.14 2.07-5.5 3.99-10.41 6.59-15.19 7.81-14.37 12.89-11.57 31.48-10.99 63.83 1.98 135.13 10.23 199.18 14.78 11.67.83 29.08 3.44 40.08 2.85-2.94-1.33-33.61-5.35-39.62-6.22C792 55.84 702.04 41.6 644.75 37.64c-30.54-2.11-47.72-1.29-60.56 30.9zm-345.65 439.2c7.06-10.89 41.22-46.38 50.31-59.07-14.36 8.3-28.64 17.91-46.16 23.77-12.78 4.28-14.6 5.32-29.09 3.22-10.46-1.51-20.71-2.98-31.14-4.41-20.71-2.84-42.07-5.9-62.54-8.34-8.09-.97-7.8-.55-12.55-5.3l-26.11-26.34c1.18 6.17 4.6 14.57 6.79 21.03 2.34 6.94 4.97 14.62 7.71 21.91 6.83 18.23-.1 14.26 39.49 19.56 16.65 2.23 34.89 5.59 51.05 7.18 11.64 1.14 44.43 7.16 52.25 6.8zm463.5-189.24l-1.3 42.18 57.02-23.81c48.62-20.59 104.57-34.83 156.52-47.54 10.06-2.46 23.02-5.68 32.16-8.97-12.31-.36-170.13 23.33-185.6 26.09-10.33 1.85-52.54 8.83-58.8 12.05zm111.1-65.06l-5.08-124.42 48.69.97 15.61 118.68c.42 4.34-.25 4.94 1.9 8.04.3-23.29-7.19-115.78-5.14-125.62 3.55-1.62 35.97-.03 38.82.22 3.47 6.42 8.17 48.18 9.73 59.17 1.2 8.47 6.59 58.49 8.59 61.35-1.02-34.02-3.91-58.82-5.58-90.1-.55-10.39-2.18-21.01-2.44-31.05l-122.55-12.25c-.11 9.67 2.82 23.59 3.98 33.37l13.47 101.62zm-688.49-28.04c5.01-4.22 14.16-13.9 18.27-15.95-.29-13.42-9.38-40.12-25.84-41.65l7.57 57.6zm535.83 101.9c-9.36-4.63-32.25 3.17-30.95 8.76 1.22 5.23 28.77 1.86 30.95-8.76zm31.8-161.43l22.75-3.63v-22.76l36.76-5.86v22.76l22.76-3.63v36.76l-22.76 3.63v22.76l-36.76 5.86v-22.76l-22.75 3.63v-36.76zm6.12 5.49l23.1-3.69v-23.1l23.84-3.8v23.1l23.1-3.69v23.84l-23.1 3.69v23.1l-23.84 3.8v-23.1l-23.1 3.69v-23.83z"/></g></g></svg>