<svg xmlns="http://www.w3.org/2000/svg" width="70.887" height="54.512" viewBox="0 0 1875.56 1442.3" shape-rendering="geometricPrecision" text-rendering="geometricPrecision" image-rendering="optimizeQuality" fill-rule="evenodd" clip-rule="evenodd"><path d="M774.63 707.71c1.36-2.44.79-.31 1.98-5.44.64-2.76.85-5.13 1.11-7.96l12.92-99.51c4.8-35.47 9.04-77.34 17.14-110.47 9.01-36.87 10.23-48.99 85.79-36.4 25.01 4.16 82.14 17.92 98.99 30.74 31.21 23.75 40.21 125.69 28.16 152.55-6.96 15.5-27.39 16.3-46.42 19.35-36.02 5.78-68.28 14.77-100.09 27.76-17.72 7.24-68.04 30.88-83.73 44.64-.29.26-.85.79-1.26 1.2 32.41-9.91 45.3-22.95 103.36-35.97 39.19-8.78 80.59-12.09 119.77-20.74 26.62-5.87 33.95-5.69 35.6-35.04 2.31-41.26-9.74-156.48-38.07-173.17-23.78-14-194.67-74.78-214.9-13.21-15.83 48.17-23.88 206.35-20.35 261.67zM93.06 932.88c3.23 7.82 19.29 32.24 24.7 38.49 34.03 1.13 286.79-13.99 343.13-16.78 30.77-1.53 40.97 2.25 49.9-9.96 6.13-8.38 23.18-28.71 26.23-36.31L93.06 932.88zm50.9 62.37c.16 5.61 12.57 24.28 16.89 29.99l265-13.1c22.14-.98 29.74 1.92 37.66-8.52 6.46-8.51 12.85-18.16 19.18-26.11l-338.73 17.74zm35.91 54.58c1.46 6.6 10.18 18.71 14.47 23.15l227.62-11.67c4.35-3.95 16.68-20.51 18.9-24.8-11.96-5.06-225.62 12.29-260.99 13.32zM554.9 300.48c-14.08 7.29-120.55 26.03-145.92 31.73-64.55 14.51-215.76 50.14-252.38 100.74-11.64 16.07-46.03 98.83-54.28 122.25-35.4 100.4-63.47 155.03-85.36 267.77-27.16 139.82-18.21 187.68 2.44 318.74 160.24-5.78 368.17 1.21 536.57 2.16 23.55.13 169.99-2.15 178.12 3.25-11.44 6.37-520.34-3.64-580.17-4.25-25.24-.25-127.82-6.18-138.98 7.86-11.39 14.34-8.97 67.96 4.21 88.63 6.21 9.73 14.61 9.17 27.35 10.6 61.11 6.87 215.83 15.65 278.98 17.26 9.1 16.89 21.6 81.7 74.99 101.35 14.83 5.46 82.75 14.22 103.81 5.52 12.75-5.27 28.76-16.82 35.94-23.67 18.64-17.78 41.73-41.32 49.21-69.95 82.17 2.61 204.77 20.63 278.33-4.46 10.94-3.74 20.94-10.58 31.99-11.69-1.15 36.45 7.31 84.82 21.61 113.02 15.05 29.68 36.94 51.91 77.27 58.88 37.58 6.49 88.63 12.2 117.44-7.7 14.98-10.36 24.35-20.5 35.53-32.48 14.46-15.5 20.54-33.93 27.65-39.61 42.39 13.02 58.24-1.72 93.68-15.68 74.21-29.23 110.15-37.47 187.37-55.3 29.56-6.82 73.38-17.52 103.89-19.51 19.74 88.79 80.45 53.13 97.19 56.1 130.68 23.2 131.82-9.27 137.78-125.99 4.77-93.44-52.37-211.88-123.84-48.49-11.64 26.62-20.45 54.44-31.13 81.7l-260.67 41.39c-20.97 3.62-42.27 7.42-63.45 11.07-43.31 7.45-51.95-37.36-67.95-81.97-6.9-19.28-17.02-37.89-22.84-55.24 95.26 14.84 324.07-13.95 434.51-19.89-2.37 17.04-13.64 38.42-13.55 55.69 4.84-18.64 23.16-54.31 32.06-72.55 53.59-109.89 122.11-35.09 130.79 54.38 1.67 17.19-.05 17.28 3.67 23.78 3.1-45.49-2.26-93.85-34.12-125.24-8.88-8.74-20.18-13.45-30.65-22.13l123.55.52c.05-59.68-6.58-122.61-10.32-182.13-11.17-177.49-16.98-376.63-21.39-554.33-10-9.48-290.09-152.03-310.47-162.63C1473.47 108.86 1260.69 1.44 1196.33.04c-52.08-1.13-147.57 27.3-196.52 40.12-63.26 16.58-128.75 30.63-192.57 45.87-63.67 15.21-131.07 27.87-191.74 46.39-53.25 16.26-60.07 1.93-65.03 53.8-3.93 41.07 2.9 75.23 4.43 114.26zm535.33 785.91c23.09 9.39 30.34.32 59.96 30.22 32.23 32.52 45.56 87.78 47.57 134.69 1.54 35.83-4.27 50.81-9.93 81.68 9.62 2.26 20.75 5.98 31.4 5.16.81-61.09-2.77-116.5-22.34-170.34-17.93-49.29-47.38-93.96-106.66-81.41zm-364.92-113.7l2.89 104.75c22.54-.68 93.66-29.76 120.31-37.69 33.43-9.95 30.48-5.37 37.05-20.44l22.72-36.77c6.12-8.09 13.22-15 17.19-21.94l-200.05-1.01-.11 13.1zM796.73 378c66.46-7.83 120.2-1.86 180.41 16.1 78.6 23.44 81.4 40.62 91.79 112.3 12.03 82.99 18.29 195.71 23.1 283.31 1 18.19 1.43 84.86 5.4 96.82 19.41-.29 43.12 4.35 60.14 8.97 4.35-33.3-7.02-175.23-11.53-215.27-6.58-58.45-30.11-230.22-74.93-269.51-15.99-14.02-51.06-30.73-74.06-40.77-43.61-19.04-133.52-42.55-187.59-41.47L796.73 378zm-2.26 11.83c-16.48 44.5-41.89 212.24-48.64 266.34-5.26 42.28-27.98 266.31-18.71 294.11 28.98-1.13 198.76 4.15 209.66-1.12 3.26-1.58 10.77-8.79 13.81-11.52 13.65-12.23 32.27-23.87 49.13-31.7 11.55-5.38 26.23-10.86 39.29-13.88 14.36-3.31 34.66-3.51 46.56-6.59 5.83-40.09-20.01-336.43-25.4-374.28-9.56-67.19-7.96-87.64-90.67-109.46-39.74-10.49-135.48-30.1-175.03-11.9zm130.54 829.62c10.1 5.13 26.68 5.8 39.44 6.73-.6-50.85 33.53-100.17 56.35-124.79 11.43-12.33 34.03-28.19 56.1-35.33 33.32-10.78 49.88-1.93 78.75 4.81l3.18-125.64c-119.2-20.69-173.06-3.28-219.47 93.9-9.08 18.99-16.53 26.78-14.75 50.63 3.35 44.9-1.11 86.7.4 129.69zm-172.51 41.28c-4.4-30.05-13.03-59.22-15.08-90.85-214.79 3.79-434.44-7.28-651.66-1.15-12.27.35-32.6-2.27-40.72 5.61-9.88 9.6-8.08 28.2-1.06 38.05 12.35 17.34 48.94 16.44 75.82 17.17l272.33 10.22c60.46 3.15 120.72 5.26 180.77 8.55 59.93 3.28 120.22 9.93 179.6 12.4zm7.29-124.24l-.4 124.28c47.72-.34 99.25-6.79 137.78-25.58 7.93-38.39 3.5-108.4.32-148.78-8.64.26-128.81 44.4-137.7 50.08zm-713.61-43.46c17.16 3.88 39.83 1.84 57.92 2.15 5.23-20.29-2.75-60.87-10.25-77.26-10.49-22.95-25.07-33.16-55.47-34.8.13 38.88 4.77 72.42 7.8 109.91zm454.39-11.83l206.67.53-13.65-117.47c-93.8-1.44-196.95 16.37-193.02 116.94zM81.8 751.43c11.49-19.56 26.49-63.5 37.18-88.14 12.88-29.68 26.87-57.1 41.71-83.75 27.1-48.69 73.2-104.37 125.69-125.32 70.91-28.31 379.4-89.98 424.72-77.69 34.82 9.44-10.53 179.39-16.69 209.14-6.99 33.78-10.8 73.04-20.25 105.26-6.39 21.8-10.59 24.29-33.52 28.09-18.21 3.03-38.37 6.06-56.84 7.44-76.27 5.69-153.65 14.29-230.35 20.24-32.42 2.52-218.05 14-231.88 19.62 93.74 1.59 333.17-16.91 432.3-27.45 46.01-4.9 91.03-10.64 137.05-16.25l49.03-282.77c5.42-24.68 18.71-68.51 20.57-90.55-49.03-5.7-185.75 22.73-237.69 33.13-47.61 9.53-287.74 56.98-319.78 84.14C167.6 496.62 87.08 707.38 81.8 751.43zM38.27 970.88c38.2-4.14 61.65 10.66 76.01 32.87 18.83 29.15 17.78 52.89 13.18 90.26 55.45-2.83 108.87-8.94 164.82-10.96 56.9-2.06 115.59-2.78 172.81-1.99 1.53-60.72 26.52-91.94 67.89-114.34 44.93-24.33 103.04-28.43 160.02-24.52-8.2-204.81 23.14-353.52 66.26-544.77 4.22-18.75 14.65-53.95 15.41-70.97-58.18-.94-99.11 8.13-153.78 17.58-48.9 8.47-97.49 17.61-145.63 27-78.72 15.35-208.25 40.75-268.2 76.16-23.73 14.01-24.38 21.89-37.09 48.06-9.85 20.25-18.93 38.09-28.26 58.91C81.54 688.48 40.32 815.92 38.27 970.88zm1550.09 141.34l78.38 7.72c6.25-25.76 20.53-48.57 30.78-67.81-17.51-2.72-65.89-3.54-79.22 4.29-16.23 9.52-24.43 31.17-29.94 55.8zm-197.66-57.33c7.08 20.01 13.01 28.13 14.64 53.48l153.4 3.52c3.73-46.17-15.52-52.52-54.78-57.19-33.52-3.98-78.5.05-113.26.19zm-199.23 8.56c7.12 18.43 36.19 45.59 60.03 47.1 26.75 1.68 78.79 1.76 104.88-1.14.95-10.64-6.52-30.38-12.84-37.23-10.83-11.74-25.96-10.25-45.16-10-35.2.46-71.87 2.1-106.91 1.27zm-98.83 117.75c-53.24 26.54-37.56 188.76 11.91 165.78 49.67-23.07 35.85-189.59-11.91-165.78zm648.92-40.22c-5.55 3.24-6.73 3.56-10.35 11.43-17.67 38.31-10.91 125.65 16.3 110.31 26.62-15.01 24.15-139.36-5.95-121.74zm98.43-130.99c-2.19-231.37-13.36-464.16-20.29-695.34-30.79-8.94-400.03-175.57-445.77-196.03-38.52-17.22-115.55-52.68-156.59-59.54 3.1 129.87 1.75 260.33 5.11 390.35 4.54 175.87 12.27 343.79 21.86 517.96 1.37 24.85-5.49 29.8 17.76 30.79 64.27 2.73 129.29 3.6 193.73 4.68 33.43.56 361.98 9.69 384.19 7.13zM591.16 292.61c121.32-21.75 185.2-23.19 309.34 3.69 69.46 15.04 128.6 38.23 190.65 66.72 26.12 11.99 30.84 18.15 43.11 44.19 55.7 118.25 58.03 481.73 55.77 633.9 42.28 1.89 86.72-.74 129.62.38 31.46.82 38.37 1.58 54.58 42.55l9.23 24.7c3.34-8.21-2.76-26.51-6.04-36.42-6.57-19.8-12.67-19.57-17.1-29.67 36.92-2.47 169.6-11.39 202.46 10.29 9.6 6.33 8.18 10.04 14.02 17.33 6.65-14.67 14.8-25.66 24.02-33.55-75.37-3.52-209.86-2.41-291.87-1.25-30.7.43-63.51 3.51-93.41 3.17 3.36-131.5-6.72-356.33-12.34-493.68-3.32-81.2-7.57-161.51-11.69-242.37-4.07-79.65-11.34-163.96-12.12-242.95-55.34 6.62-116.38 22.53-169.75 35.16-77.72 18.39-273 56.74-332.15 76.23-65.23 21.5-86.34 35.48-86.33 121.58z" fill="#898989"/></svg>