<svg xmlns="http://www.w3.org/2000/svg" width="40.636" height="44.141" viewBox="0 0 415.97 451.86" shape-rendering="geometricPrecision" text-rendering="geometricPrecision" image-rendering="optimizeQuality" fill-rule="evenodd" clip-rule="evenodd"><defs><style>.str0{stroke:#898989;stroke-width:2.95;stroke-linejoin:round;stroke-miterlimit:22.9256}.fil0{fill:#898989;fill-rule:nonzero}</style></defs><g id="Слой_x0020_1"><g id="_1942923772912"><path class="fil0 str0" d="M390.04 108.69c-.22 7.88-.97 5.4 2 10.55 7.16 12.42 2.87 26.01-8.39 34.14-4.5 3.25-4.52 4.26-7.3 9.36-4.4 8.07-9.6 20.04-22.42 26.24 7.51-5.44 9.82-8.9 18.34-25.56 4.24-7.77 5.11-8.29 10.82-12.41 7.71-5.57 12.66-17.79 7.68-26.41-2.14-4.91-7.52-7.83-6.4-12.46 2.97-12.3-1.88-37.63-11.3-34.68-25.33 7.92-37.3 3.32-46.14-4.16-2.9-2.45-22.6.42-31.5 7.61-.5.41-5.92-25.89 14.43-35.39 47.57-22.21 89.38 21.21 80.18 63.17zm-38.19 81.3c-11.68 3.9-28.96-.09-39.07-5.28-13.8-7.1-24.95-17.27-29.63-35.03 31.19-41.82 15.05-39.35 12.69-66.34 9.58 19.68 12.93 23.23 10.96 35.06-2.75 16.52-8.48 16.13-12.42 33.85-2.7 12.16 6.56 21.65 19.38 29.43 9.87 5.99 26.37 10.33 38.08 8.3z"/><path class="fil0 str0" d="M268.5 129.27c16.06-7.03 18.68-26.66 5.42-39.14.3-21.47-1.09-45.94-14.54-56.14-11.69-8.86-31.43 3.32-48.48 3.27-19.46-.06-36.33-13.08-49.69-1.46-9.78 8.5-14.35 29.1-17.16 43.61 1.34-22.17-7.7-49.45 5.37-59.08C184.06-5.2 248.96-6.09 276.4 25.36c5.36 11.47 1.47 46.33 1.73 60.93 14.87 5.96 17.34 34.34-9.63 42.98zm-3.19 1.19c-1.92 14.31-7.41 30.26-17.82 41.84-19.32 21.49-57.89 22.97-76.06-.76-10.21-13.33-11.98-30.2-15.54-33.98-5.78-6.11-15.67-7.42-22.94-22.47-6.31-13.08 1.54-31.15 11.27-32.66-11.17 5.34-12.1 18.58-5.81 32.08 5.52 11.83 17.57 12.54 25.17 20.61 5.77 6.12 5.63 12.26 9.05 20.58 12.72 30.94 56.69 31.74 76.33 7.77 7.18-8.77 10.94-18.81 16.35-33.01zm35.46 282.34c10.02-43.04 44.77-146.66 34.99-179.01-1.54-5.09-5.81-19.63-13.55-26.88 9.41-3.69 30.39-3.95 41.18-3.52 18.04.71 51.1 20.27 51.1 40.32 0 7.97-9.72 64-22.06 107.47-7.4 26.04-15.92 47.86-24.3 53.09-13.54 8.47-44.16 6.23-62.12 5.76 67.74-1.44 64.75-5.91 82.54-61.03 14.39-58.59 22.25-87.76 18.15-107.08-5.15-24.27-34.96-36.99-50.29-27.31-9.56 6.03-8.47 19.03-6.18 27.93 10.39 34.39-38.99 127.36-49.45 170.26z"/><path class="fil0 str0" d="M155.21 184.82c11.59 52.57 85.89 58.62 106.59-4.98 19.81 4.62 40.81 12.61 57.26 24.67 12.02 8.81 20.78 19.7 20.78 32.36 0 32.18-16.92 84.84-40.69 101.31 27.59-34.72 54.02-106.13 13.34-129.11-20.15-11.38-43.79-24.59-57.25-7.89-51.78 64.24-104.42 20.23-100.04-16.35zm172.8 124.3c-16.02 39.09-28.24 101.12-44.57 127.73-15 16.27-43.84 18.55-60.7 3.2-21.28-19.37-38.52-12.02-51.96-12.91 11.34-1.76 22.72-3.24 33.24-.82 14.43 3.32 17.41 12.11 29.4 16.31 16.37 5.75 28.91 2.5 38.76-5.89 28.56-24.31 32.69-89.93 55.83-127.62zM218.56 448.18c-14.79 1.61-50.13 1.37-67.83-4.38-43.5-14.13-31.2-64.1-49.61-96.53 11.16 12.16 14.75 28.85 18.22 44.93 8.13 51.17 35.21 53.86 87.95 47.52l11.27 8.45zm-16.55-49.99c-44.3 6.26-72.94-14.5-91.87-45.06-15.78-25.47-46.32-105.74-27.33-134.3 11.13-16.73 51.33-37.24 70.39-42.57l-.67 12.7c-21.41 3.02-54.02 15.05-66.24 33.43-10.71 16.11-3.13 58.4 9.11 89.54 36.52 92.9 80.39 83.66 106.61 86.25zM25.93 110.18c.22 7.88.97 5.4-2 10.56-7.16 12.42-2.87 26.01 8.39 34.14 4.5 3.25 4.52 4.26 7.3 9.36 4.4 8.06 9.6 20.04 22.42 26.24-7.52-5.44-9.82-8.91-18.35-25.56-4.24-7.77-5.11-8.29-10.82-12.41-7.71-5.57-12.66-17.78-7.68-26.4 2.14-4.91 7.52-7.84 6.4-12.47-2.97-12.29 3.48-28.65 11.3-34.68 4.31-3.32 8.2-5.5 11.79-6.77 5.3-1.88 5 9.93-4.03 17.72-1.49 1.28 9.19.93 15.97-2.51 7.97-4.05 11.53-5.92 14.81-9.97 7.56 4.52 15.81 10.26 26.82 13.73 5.92 1.86 7.96-12.23 12.29-8.74.5.41 5.92-25.89-14.43-35.39-20.81-9.71-40.51-6.87-55.33 2.91-19.06 12.59-30.03 36.65-24.86 60.26zm38.19 81.31c11.68 3.9 28.96-.09 39.07-5.28 13.8-7.09 24.95-17.27 29.63-35.03-31.19-41.82-15.05-39.35-12.69-66.34-9.58 19.68-12.93 23.23-10.96 35.06 2.75 16.52 8.48 16.13 12.42 33.85 2.7 12.17-6.56 21.65-19.38 29.44-9.87 5.99-26.37 10.33-38.08 8.3z"/><path class="fil0 str0" d="M115.2 414.29c-10.02-43.04-44.77-146.65-34.99-179.01 1.54-5.09 5.81-19.62 13.55-26.88-9.41-3.69-30.39-3.95-41.18-3.52-18.04.71-51.1 20.27-51.1 40.32 0 7.96 9.72 64 22.06 107.46 7.4 26.05 15.92 47.86 24.3 53.1 13.54 8.47 44.16 6.23 62.12 5.76-67.74-1.44-64.75-5.91-82.54-61.03C13.03 291.9 5.17 262.73 9.27 243.41c5.15-24.27 34.96-37 50.29-27.32 9.56 6.03 8.47 19.04 6.18 27.93-10.39 34.39 38.99 127.36 49.45 170.25z"/><path class="str0" fill="#898989" d="M190.99 239.86l11.72 139.35 10.6-139.57z"/></g></g></svg>