<svg xmlns="http://www.w3.org/2000/svg" width="793.697" height="561.642" viewBox="0 0 20915.54 14800.45" shape-rendering="geometricPrecision" text-rendering="geometricPrecision" image-rendering="optimizeQuality" fill-rule="evenodd" clip-rule="evenodd"><path d="M14032.37 7726.24l-6380.45 3043.41c-169.9 81.11-366.49-43.11-366.49-231.5V4261.91c0-190.94 201.73-314.65 372.15-228.42l6380.44 3233.33c189.42 95.99 186.33 368.05-5.65 459.41z" fill="#fefefe"/><path d="M16571.69 0H4343.85C1944.77 0-.07 1944.83-.07 4343.92v6112.63c0 2399.08 1944.84 4343.92 4343.92 4343.92h12227.84c2399.08 0 4343.92-1944.84 4343.92-4343.92V4343.92C20915.61 1944.83 18970.77 0 16571.69 0zm-2937.77 7697.63l-5719.36 2727.79c-152.4 72.69-328.44-38.43-328.44-207.25l.01-5626.08c0-171.23 180.66-282.2 333.38-204.8l5719.36 2898.29c170.04 86.17 167.1 330.03-4.95 412.06z" fill="#c62829"/></svg>