<?xml version="1.0" encoding="utf-8"?>
<!-- Generator: Adobe Illustrator 23.0.1, SVG Export Plug-In . SVG Version: 6.00 Build 0)  -->
<svg version="1.1" id="Слой_1" xmlns="http://www.w3.org/2000/svg" xmlns:xlink="http://www.w3.org/1999/xlink" x="0px" y="0px"
	 viewBox="0 0 1801.6 1026.8" style="enable-background:new 0 0 1801.6 1026.8;" xml:space="preserve">
<style type="text/css">
	.st0{fill:#C62829;}
	.st1{fill:#E6E6E6;}
	.st2{enable-background:new    ;}
	.st3{fill:#FFFFFF;}
	.st4{fill:#FFFFFF;stroke:#C1272D;stroke-miterlimit:10;}
</style>
<title>Background_steps</title>
<path class="st1" d="M1292.4,649.8c-17.5,16-39.7,25.6-63.7,25.6h-58.5c6.5-17,10.3-37.3,10.3-59.3c0-23.6-4.4-45.4-11.8-63h5.7
	c5.7,0,11.2-2,15.7-5.6L1292.4,649.8z"/>
<path class="st1" d="M1198.5,537.4h132.6v20.7c0,32.9-12,62.7-31.2,84l-102.7-102.7c0.5-0.8,0.9-1.5,1.3-2.3L1198.5,537.4
	L1198.5,537.4z"/>
<path class="st0" d="M1201.7,449.4h129.4v77.2h-129.2c0.2-1,0.3-1.9,0.3-2.9L1201.7,449.4z"/>
<polygon class="st1" points="1201.5,360.4 1331.1,360.4 1331.1,438.6 1201.7,438.6 1201.5,413.5 1202.3,413.5 1202.3,412.7 
	1201.5,412.7 "/>
<polygon class="st0" points="1201.3,271.4 1331.1,271.4 1331.1,349.6 1201.5,349.6 "/>
<path class="st1" d="M1304.7,95.6h64.9v122.3H1359c-15.4,0-28,14.4-28,32v10.8h-128.7v-47.8C1202.3,148.3,1248.4,95.6,1304.7,95.6z"
	/>
<polygon class="st0" points="1380.4,95.6 1510.7,95.6 1510.7,217.7 1410.3,217.7 1410.3,217.8 1380.4,217.8 "/>
<rect x="1521.4" y="95.6" class="st1" width="129.2" height="122.2"/>
<rect x="1661.4" y="95.6" class="st0" width="130.1" height="122.2"/>
<path class="st0" d="M1002.2,562.1L949,506.8c23.5-24.2,55-39,89.6-39s66,14.8,89.6,39l-52.8,54.8
	C1053.7,545.2,1023.6,545.4,1002.2,562.1L1002.2,562.1z"/>
<path class="st1" d="M977,623.6c1.5,12.4,6.4,24,14.2,33.8l-52,54c-18.7-23.7-30.7-54.2-32.6-87.7L977,623.6L977,623.6z"/>
<path class="st1" d="M976.8,608.5h-70.2c1.3-34.5,13.2-65.8,32.3-90.2l52.4,54.4C983.1,582.9,978.1,595.4,976.8,608.5z"/>
<path class="st0" d="M1127.7,722.8c-23.5,23.9-54.8,38.5-89.1,38.5c-34.4,0-65.6-14.6-89.1-38.5l52.7-54.8
	c21.5,16.7,51.5,16.9,73.2,0.4L1127.7,722.8z"/>
<path class="st1" d="M1170.3,623c-1.7,33.8-13.7,64.5-32.6,88.3l-51.4-53.4c8.2-10,13.3-22.1,14.7-34.9L1170.3,623L1170.3,623z"/>
<path class="st1" d="M1101.2,608c-1.3-13.2-6.5-25.7-14.9-35.9l51.8-53.8c19,24.2,30.9,55.5,32.3,89.8L1101.2,608L1101.2,608z"/>
<rect y="847.5" class="st0" width="129.5" height="122.2"/>
<rect x="140.5" y="847.5" class="st1" width="130" height="122.2"/>
<path class="st1" d="M371.2,696.2h84.5V573.9h-30.2c-12.1,0-22.5-9-26.4-21.4H268.8V579C268.8,643.4,314.9,696.2,371.2,696.2z"/>
<polygon class="st1" points="387.6,847.3 414.5,847.3 414.5,969.5 397.5,969.5 397.5,969.7 281.5,969.7 281.5,847.5 387.6,847.5 "/>
<path class="st1" d="M595.5,832.5v19.8c0,64.5-46.1,117.3-102.4,117.3h-67.6V847.3h13.2c9.9,0,18.2-5.9,22.8-14.7l0,0L595.5,832.5z"
	/>
<path class="st1" d="M742.5,450.4v76.2h129.2c-0.3-1.9-0.4-3.7-0.4-5.6v-70.6H742.5z"/>
<path class="st0" d="M595.5,706.5H465.3v99l0.2,10c0,2-0.2,4-0.5,6h130.4v-94.4c0-2.1,0-4.1-0.1-6.1c0.1-2,0.1-4,0.1-6.1
	L595.5,706.5L595.5,706.5z"/>
<path class="st1" d="M595.5,574.5H465.3v121h130.2V589.7c0-3.9-0.2-7.7-0.5-11.5h0.5V574.5z"/>
<path class="st1" d="M426.2,404.1h29.2c-0.7-41.1,3.2-82.1,11.8-122.3h-95.3c-56.3,0-102.4,52.8-102.4,117.3v26.4h130.4
	C403.7,413.1,414,404.1,426.2,404.1z"/>
<path class="st0" d="M398.2,436.7H269.5c0,0-0.6,12.8-0.6,17.1v87.7h129.4L398.2,436.7L398.2,436.7z"/>
<path class="st1" d="M875.2,537.4H742.5l1.5,40.8c3.8,24.8,14.5,47.1,29.7,64l102.7-102.7C876,538.8,875.6,538.1,875.2,537.4z"/>
<path class="st1" d="M869.7,315.7c-4.1-26.8-16.2-50.6-33.4-67.9L734.1,350c0.5,0.6,1,1.1,1.5,1.8v-0.2h135.7L869.7,315.7z"/>
<path class="st0" d="M742.5,439.6h128.8v-77.2H740.9c1,3.4,1.5,6.9,1.5,10.5L742.5,439.6z"/>
<path class="st1" d="M905.6,553h-6.4c-5.7,0-11.2-2-15.6-5.5L781.3,649.8c17.5,16,39.6,25.5,63.5,25.5h59.7
	c-6.6-17-10.5-37.6-10.5-59.8C894,592.2,898.3,570.6,905.6,553z"/>
<path class="st1" d="M768.9,218.6h-94.5v122.3h40.2c4.2,0,8.4,1.1,12.1,3.1l102.7-102.7C812.3,227,791.4,218.6,768.9,218.6z"/>
<polygon class="st1" points="465.5,416 465,416 465.3,487.4 465.5,487.4 465.5,487.4 595.5,487.4 595.5,416 "/>
<path class="st0" d="M501,248.4c-4.9,5.1-9.3,10.5-13.3,16.4c-3.9,6-7.3,12.2-10.2,18.7c-7.9,18.1-9.5,39.9-10.7,64.7
	c-0.9,17.6-1.5,36.3-1.9,55.9v2.2h0.9l0,0h129.7v-33.5c-0.1-8.1,2.7-15.9,7.8-22.1L501,248.4z"/>
<path class="st1" d="M508,241.9l102.6,102.6c3.9-2.4,8.3-3.6,12.8-3.6h41.3V218.6h-95.6C546.3,218.6,525.1,227.3,508,241.9z"/>
<polygon class="st1" points="465.5,497 465.5,497 465.3,497 465.3,565 465.5,565 465.5,565 595.5,565 595.5,497 "/>
<g class="st2">
	<path class="st0" d="M37.6,991.9c-0.2,2.4-1,4.2-2.5,5.6c-1.4,1.4-3.4,2.1-5.9,2.1c-2.7,0-4.9-0.9-6.6-2.7
		c-1.7-1.8-2.5-4.2-2.5-7.2c0-2.8,0.8-5.2,2.5-7c1.7-1.9,3.9-2.8,6.7-2.8c2.2,0,4.1,0.6,5.6,1.9c1.5,1.3,2.4,2.9,2.5,4.8h-4
		c-0.2-1-0.7-1.8-1.4-2.4c-0.7-0.6-1.7-0.9-2.8-0.9c-1.1,0-2.1,0.3-2.9,1c-0.8,0.6-1.3,1.4-1.7,2.4c-0.3,0.9-0.5,2-0.5,3.1
		c0,1.9,0.4,3.5,1.3,4.6s2.1,1.7,3.6,1.7c2.5,0,4-1.4,4.3-4.2H37.6z"/>
	<path class="st0" d="M54.3,980.4v3.5h-5.7v15.3h-4.2v-15.3h-5.7v-3.5H54.3z"/>
	<path class="st0" d="M65.9,980.3l7.2,18.9h-4.3l-1.5-4.2h-7l-1.5,4.2h-4.2l7.2-18.9H65.9z M66.2,992l-2.5-7l-2.5,7H66.2z"/>
	<path class="st0" d="M74.6,980.4h8.1c2.1,0,3.8,0.5,5,1.5s1.9,2.5,1.9,4.5c0,2-0.6,3.5-1.9,4.5c-1.2,1-2.8,1.5-4.8,1.5h-4.2v6.8
		h-4.1V980.4z M78.7,983.7v5.4h3.7c2.2,0,3.2-0.9,3.2-2.7c0-1.8-1.1-2.7-3.2-2.7H78.7z"/>
	<path class="st0" d="M106.2,980.4v3.5h-5.7v15.3h-4.2v-15.3h-5.7v-3.5H106.2z"/>
</g>
<g class="st2">
	<path class="st0" d="M1688.3,232.4v17.8h-3.9v-7.7h-7.3v7.7h-3.9v-17.8h3.9v6.7h7.3v-6.7H1688.3z"/>
	<path class="st0" d="M1700.6,232.4l6.8,17.8h-4.1l-1.4-4h-6.6l-1.5,4h-4l6.8-17.8H1700.6z M1700.9,243.4l-2.3-6.6l-2.4,6.6H1700.9z
		"/>
	<path class="st0" d="M1714.5,243.3c-2.1,0-3.7-0.5-4.8-1.5s-1.6-2.6-1.6-4.8v-4.7h3.9v4.8c0,1.1,0.2,1.8,0.6,2.3
		c0.4,0.4,1.1,0.7,2.1,0.7c0.8,0,2-0.1,3.5-0.4v-7.3h3.9v17.8h-3.9v-7.3C1716.7,243.2,1715.4,243.3,1714.5,243.3z"/>
	<path class="st0" d="M1734.4,232.4l6.8,17.8h-4.1l-1.4-4h-6.6l-1.5,4h-4l6.8-17.8H1734.4z M1734.7,243.4l-2.4-6.6l-2.4,6.6H1734.7z
		"/>
	<path class="st0" d="M1757.3,232.4v17.8h-3.9v-14.5h-4.8l-0.3,7.5c-0.2,4.8-1.8,7.3-5,7.3c-0.9,0-1.6-0.1-2.2-0.3v-3.1
		c0.4,0.2,0.9,0.3,1.4,0.3c0.6,0,1.1-0.3,1.4-0.8c0.3-0.6,0.5-1.7,0.6-3.3l0.3-10.8H1757.3z"/>
	<path class="st0" d="M1768.7,232c2.6,0,4.7,0.9,6.3,2.6c1.6,1.7,2.4,4,2.4,6.8s-0.8,5-2.4,6.7c-1.6,1.7-3.7,2.6-6.3,2.6
		c-2.6,0-4.8-0.9-6.4-2.6c-1.6-1.7-2.4-4-2.4-6.7c0-2.8,0.8-5.1,2.4-6.8C1763.9,232.8,1766.1,232,1768.7,232z M1768.7,235.2
		c-1.5,0-2.6,0.6-3.5,1.7s-1.3,2.6-1.3,4.4c0,1.9,0.4,3.4,1.3,4.5c0.9,1.1,2.1,1.6,3.6,1.7c1.5,0,2.6-0.5,3.5-1.7
		c0.8-1.1,1.3-2.6,1.3-4.5c0-1.9-0.4-3.3-1.3-4.4C1771.3,235.7,1770.2,235.2,1768.7,235.2z"/>
</g>
<g class="st2">
	<path class="st0" d="M1650.8,280.1v-3.3c0.6,0.3,1.3,0.4,1.9,0.4c0.6,0,1-0.1,1.3-0.4c0.3-0.3,0.5-0.7,0.5-1.1c0-0.2,0-0.3,0-0.5
		c0-0.1-0.1-0.3-0.2-0.5c-0.1-0.2-0.1-0.3-0.2-0.4s-0.1-0.3-0.2-0.5s-0.2-0.4-0.2-0.4l-5.2-11h4.3l4,9.4l4-9.4h4.2l-6,13.1
		c-0.8,1.9-1.7,3.2-2.5,3.9c-0.8,0.7-2,1.1-3.4,1.1C1652.2,280.5,1651.5,280.4,1650.8,280.1z"/>
	<path class="st0" d="M1682.6,273.3c-0.2,2.2-1,4-2.4,5.3c-1.4,1.3-3.2,2-5.6,2c-2.6,0-4.7-0.9-6.2-2.6c-1.6-1.7-2.4-4-2.4-6.8
		c0-2.7,0.8-4.9,2.4-6.7c1.6-1.8,3.7-2.6,6.4-2.6c2.1,0,3.9,0.6,5.3,1.8c1.4,1.2,2.2,2.7,2.4,4.6h-3.8c-0.2-1-0.6-1.7-1.3-2.3
		c-0.7-0.5-1.6-0.8-2.6-0.8c-1.1,0-2,0.3-2.7,0.9c-0.7,0.6-1.3,1.4-1.6,2.2s-0.5,1.8-0.5,2.9c0,1.8,0.4,3.3,1.3,4.4
		c0.8,1.1,2,1.6,3.4,1.6c2.4,0,3.7-1.3,4.1-4H1682.6z"/>
	<path class="st0" d="M1700.3,262.4v17.8h-3.9v-14.5h-7.3v14.5h-3.9v-17.8H1700.3z"/>
	<path class="st0" d="M1717.1,262.4v3.2h-9.5v3.9h8.7v3.1h-8.7v4.4h9.7v3.3h-13.5v-17.8H1717.1z"/>
	<path class="st0" d="M1719.9,280.2v-17.8h3.9v14.5h5.9v-14.5h3.9v14.5h5.9v-14.5h3.9v17.8H1719.9z"/>
	<path class="st0" d="M1761.9,262.4v17.8h-3.9v-7.7h-7.3v7.7h-3.9v-17.8h3.9v6.7h7.3v-6.7H1761.9z"/>
	<path class="st0" d="M1773.4,262c2.6,0,4.7,0.9,6.3,2.6c1.6,1.7,2.4,4,2.4,6.8s-0.8,5-2.4,6.7c-1.6,1.7-3.7,2.6-6.3,2.6
		c-2.6,0-4.8-0.9-6.4-2.6c-1.6-1.7-2.4-4-2.4-6.7c0-2.8,0.8-5.1,2.4-6.8C1768.6,262.8,1770.7,262,1773.4,262z M1773.3,265.2
		c-1.5,0-2.6,0.6-3.5,1.7s-1.3,2.6-1.3,4.4c0,1.9,0.4,3.4,1.3,4.5c0.9,1.1,2.1,1.6,3.6,1.7c1.5,0,2.7-0.5,3.5-1.7
		c0.9-1.1,1.3-2.6,1.3-4.5c0-1.9-0.4-3.3-1.3-4.4C1776,265.7,1774.8,265.2,1773.3,265.2z"/>
	<path class="st0" d="M1799.9,262.4v17.8h-3.9v-12.3h-0.1l-6.7,12.3h-4.4v-17.8h3.9v12.3h0.1l6.7-12.3H1799.9z M1795,257.6h1.4
		c0,2.4-1.4,3.6-4.1,3.6s-4.1-1.2-4.1-3.6h1.4c0.2,1.1,1.1,1.6,2.7,1.6S1794.8,258.7,1795,257.6z"/>
</g>
<g class="st2">
	<path class="st0" d="M1680.4,292.4l-7,7l7.6,10.8h-4.9l-5.4-8l-2.3,2.3v5.8h-3.9v-17.8h3.9v7.4l7-7.4H1680.4z"/>
	<path class="st0" d="M1691.5,292.4l6.8,17.8h-4.1l-1.4-4h-6.6l-1.5,4h-4l6.8-17.8H1691.5z M1691.8,303.4l-2.3-6.6l-2.4,6.6H1691.8z
		"/>
	<path class="st0" d="M1699.8,292.4h7.7c2,0,3.6,0.5,4.8,1.4c1.2,1,1.8,2.4,1.8,4.3c0,1.9-0.6,3.3-1.8,4.2c-1.2,1-2.7,1.4-4.6,1.4
		h-4v6.4h-3.9V292.4z M1703.7,295.6v5.1h3.5c2,0,3-0.9,3-2.6c0-1.7-1-2.6-3-2.6H1703.7z"/>
	<path class="st0" d="M1730.8,304.5c0,1.9-0.6,3.3-1.8,4.3c-1.2,1-2.8,1.4-4.8,1.4h-7.9v-17.8h3.9v6.4h4.2c1.9,0,3.4,0.5,4.6,1.4
		C1730.2,301.2,1730.8,302.6,1730.8,304.5z M1727,304.4c0-1.7-1-2.5-3-2.5h-3.7v5.1h3.7C1726,307,1727,306.1,1727,304.4z"/>
	<path class="st0" d="M1746.5,292.4v3.2h-9.5v3.9h8.7v3.1h-8.7v4.4h9.6v3.3h-13.5v-17.8H1746.5z"/>
	<path class="st0" d="M1749.4,292.4h7.7c2,0,3.6,0.5,4.8,1.4s1.8,2.4,1.8,4.3c0,1.9-0.6,3.3-1.8,4.2c-1.2,1-2.7,1.4-4.6,1.4h-4v6.4
		h-3.9V292.4z M1753.2,295.6v5.1h3.5c2,0,3-0.9,3-2.6c0-1.7-1-2.6-3-2.6H1753.2z"/>
	<path class="st0" d="M1779.5,304.5c0,1.9-0.6,3.3-1.8,4.3c-1.2,1-2.8,1.4-4.8,1.4h-6.9v-17.8h3.9v6.4h3.3c1.9,0,3.4,0.5,4.6,1.4
		C1778.9,301.2,1779.5,302.6,1779.5,304.5z M1775.7,304.4c0-1.7-1-2.5-3-2.5h-2.7v5.1h2.8C1774.7,307,1775.7,306.1,1775.7,304.4z
		 M1781.4,292.4h3.9v17.8h-3.9V292.4z"/>
</g>



<g class="st2">
	<path class="st0" d="M135.4,461.4l6.2-0.1c1.5,0,2.7,0.3,3.6,1.1c0.9,0.7,1.3,1.8,1.4,3.2c0,1.4-0.4,2.4-1.2,3.2
		c-0.8,0.8-1.9,1.2-3.4,1.2l-4,0l0.1,5.5l-2.5,0L135.4,461.4z M137.9,463.4l0,4.7l3.5,0c1.8,0,2.7-0.8,2.7-2.4c0-1.5-1-2.3-3-2.3
		L137.9,463.4z"/>
	<path class="st0" d="M157.8,472.2c-0.2,1.1-0.8,2-1.6,2.6s-1.8,1-3,1c-1.6,0-2.8-0.5-3.7-1.5c-0.9-1-1.4-2.3-1.4-3.9
		c0-1.6,0.4-3,1.4-4c0.9-1.1,2.1-1.6,3.6-1.6c1.5,0,2.7,0.5,3.6,1.5c0.9,1,1.3,2.4,1.4,4.2l0,0.2l-7.6,0.1c0,1,0.3,1.8,0.8,2.4
		c0.5,0.6,1.2,0.8,2.1,0.8c0.6,0,1.1-0.2,1.5-0.5c0.4-0.3,0.7-0.8,0.9-1.4L157.8,472.2z M155.6,469.3c-0.1-0.9-0.4-1.5-0.8-2
		c-0.5-0.5-1.1-0.7-1.8-0.7c-0.7,0-1.3,0.3-1.8,0.7c-0.5,0.5-0.7,1.2-0.8,2.1L155.6,469.3z"/>
	<path class="st0" d="M169.3,475.3l-2.8,0l-3.3-4.6l-1.3,1.4l0,3.2l-2.3,0l-0.1-10.3l2.3,0l0,4.6l4.1-4.6l2.8,0l-4,4.2L169.3,475.3z
		"/>
	<path class="st0" d="M175.1,464.6c1.6,0,2.8,0.5,3.8,1.4c0.9,1,1.4,2.3,1.4,4c0,1.7-0.4,3-1.4,4c-0.9,1-2.2,1.5-3.8,1.5
		c-1.6,0-2.9-0.5-3.9-1.4c-1-1-1.4-2.3-1.5-4c0-1.7,0.4-3,1.4-4S173.5,464.6,175.1,464.6z M177.2,467.3c-0.5-0.6-1.2-1-2.1-0.9
		c-0.9,0-1.6,0.3-2.1,1c-0.5,0.7-0.8,1.6-0.8,2.7c0,1.2,0.3,2.1,0.8,2.7c0.5,0.6,1.3,1,2.2,1c0.9,0,1.6-0.3,2.1-1
		c0.5-0.7,0.8-1.6,0.7-2.7C178,468.9,177.7,468,177.2,467.3z"/>
	<path class="st0" d="M184.5,475.1l-2.2,0l-0.1-10.3l3,0l3,8.2h0l2.7-8.2l3,0L194,475l-2.2,0l-0.1-6.9l0,0l-2.4,6.9l-2.3,0l-2.5-6.8
		h0L184.5,475.1z"/>
	<path class="st0" d="M205.6,471.7c-0.2,1.1-0.8,2-1.6,2.6c-0.8,0.6-1.8,1-3,1c-1.6,0-2.8-0.5-3.7-1.5c-0.9-1-1.4-2.3-1.4-3.9
		c0-1.6,0.4-3,1.4-4c0.9-1.1,2.1-1.6,3.6-1.6c1.5,0,2.7,0.5,3.6,1.5c0.9,1,1.3,2.4,1.4,4.2l0,0.2l-7.6,0.1c0,1,0.3,1.8,0.8,2.4
		c0.5,0.6,1.2,0.8,2.1,0.8c0.6,0,1.1-0.2,1.5-0.5s0.7-0.8,0.9-1.4L205.6,471.7z M203.4,468.8c-0.1-0.9-0.4-1.5-0.8-2
		c-0.5-0.5-1.1-0.7-1.8-0.7c-0.7,0-1.3,0.3-1.8,0.7c-0.5,0.5-0.7,1.2-0.8,2.1L203.4,468.8z"/>
	<path class="st0" d="M209.7,474.9l-2.3,0l-0.1-10.3l2.3,0l0,4l4.5,0l0-4l2.3,0l0.1,10.3l-2.3,0l0-4.5l-4.5,0L209.7,474.9z"/>
	<path class="st0" d="M229.6,477.9l-2.2,0l0-3.3l-7.3,0.1l0,3.3l-2.2,0l-0.1-5.1l1.3,0c0.8-1.9,1.2-4.4,1.1-7.4l0-1.2l7.8-0.1
		l0.1,8.5l1.4,0L229.6,477.9z M225.9,472.9l-0.1-6.8l-3.3,0l0,0.7c0,1.1-0.1,2.2-0.3,3.4c-0.2,1.2-0.4,2.1-0.7,2.7L225.9,472.9z"/>
	<path class="st0" d="M239.9,464.2l-3.7,10.2c0,0.1-0.1,0.3-0.2,0.6c-0.1,0.3-0.2,0.5-0.2,0.6c0,0.1-0.1,0.3-0.2,0.6
		c-0.1,0.3-0.2,0.5-0.3,0.6c-0.1,0.1-0.2,0.3-0.3,0.5c-0.1,0.2-0.3,0.4-0.4,0.5c-0.1,0.1-0.3,0.2-0.4,0.4c-0.2,0.1-0.3,0.2-0.5,0.3
		c-0.2,0.1-0.4,0.1-0.6,0.2c-0.2,0-0.5,0.1-0.7,0.1c-0.4,0-1,0-1.6-0.1l0-1.9c0.5,0.1,0.9,0.1,1.2,0.1c0.2,0,0.3,0,0.4-0.1
		c0.1,0,0.3-0.1,0.4-0.2c0.1-0.1,0.2-0.2,0.3-0.3c0.1-0.1,0.2-0.2,0.2-0.4c0.1-0.2,0.1-0.3,0.2-0.4c0-0.1,0.1-0.3,0.2-0.5
		c0.1-0.2,0.1-0.3,0.1-0.4l-4.1-10l2.5,0l2.8,7.6l2.5-7.6L239.9,464.2z"/>
	<path class="st0" d="M250.5,471.2c-0.2,1.1-0.8,2-1.6,2.6c-0.8,0.6-1.8,1-3,1c-1.6,0-2.8-0.5-3.7-1.5c-0.9-1-1.4-2.3-1.4-3.9
		c0-1.6,0.4-3,1.4-4c0.9-1.1,2.1-1.6,3.6-1.6c1.5,0,2.7,0.5,3.6,1.5c0.9,1,1.3,2.4,1.4,4.2l0,0.2l-7.6,0.1c0,1,0.3,1.8,0.8,2.4
		c0.5,0.6,1.2,0.8,2.1,0.8c0.6,0,1.1-0.2,1.5-0.5c0.4-0.3,0.7-0.8,0.9-1.4L250.5,471.2z M248.4,468.4c-0.1-0.9-0.4-1.5-0.8-2
		c-0.5-0.5-1.1-0.7-1.8-0.7c-0.7,0-1.3,0.3-1.8,0.7c-0.5,0.5-0.7,1.2-0.8,2.1L248.4,468.4z"/>
	<path class="st0" d="M254.6,474.4l-2.2,0l-0.1-10.3l3,0l3,8.2l0,0l2.7-8.2l3,0l0.1,10.3l-2.2,0l-0.1-6.9h0l-2.4,6.9l-2.3,0
		l-2.5-6.8h0L254.6,474.4z"/>
</g>
<path id="Path_34" class="st3" d="M566.7,738.7c-0.8-0.7-1.8-1.1-2.8-1.1h-66.7c-1.1,0-2.1,0.4-2.8,1.1c-0.7,0.7-1.2,1.7-1.2,2.7v43
	c0,1,0.4,2,1.2,2.7c0.8,0.7,1.8,1.1,2.8,1.1H564c1,0,2-0.4,2.8-1.1c0.7-0.7,1.2-1.7,1.2-2.7v-43
	C567.9,740.3,567.5,739.3,566.7,738.7z M530.5,784.3c-0.7,0-1.2-0.6-1.2-1.3s0.6-1.2,1.3-1.2s1.2,0.6,1.2,1.3
	S531.2,784.3,530.5,784.3z M564.5,778h-68c-0.4,0-0.7-0.3-0.7-0.6V742c0.1-1.1,0.9-1.9,2-1.9h65.4c1.1,0,1.9,0.8,2,1.9v35.4
	C565.2,777.7,564.9,778,564.5,778L564.5,778z"/>
<path id="Icon_awesome-mouse-pointer" class="st3" d="M557.8,765.5h-3.6l1.9,4.6c0.1,0.3,0,0.7-0.3,0.8l-1.7,0.7
	c-0.3,0.1-0.7,0-0.8-0.3l0,0l-1.8-4.4l-2.9,3c-0.2,0.2-0.6,0.2-0.8,0l0,0c-0.1-0.1-0.2-0.3-0.2-0.4V755c0-0.3,0.3-0.6,0.6-0.6
	c0.2,0,0.3,0.1,0.4,0.2l9.6,9.9c0.2,0.2,0.2,0.6,0,0.9l0,0C558.1,765.5,558,765.5,557.8,765.5z"/>
<path id="Icon_awesome-instagram" class="st3" d="M334.7,478c-6.5,0-11.7,5.2-11.7,11.7s5.2,11.7,11.7,11.7s11.7-5.2,11.7-11.7l0,0
	C346.4,483.2,341.2,478,334.7,478L334.7,478L334.7,478z M334.7,497.3c-4.2,0-7.6-3.4-7.6-7.6s3.4-7.6,7.6-7.6s7.6,3.4,7.6,7.6l0,0
	C342.3,493.9,338.9,497.3,334.7,497.3z M349.6,477.5c0,1.5-1.2,2.7-2.7,2.7s-2.7-1.2-2.7-2.7s1.2-2.7,2.7-2.7l0,0
	C348.4,474.8,349.6,476,349.6,477.5L349.6,477.5z M357.4,480.3c-0.2-3.7-1-6.9-3.7-9.6s-5.9-3.5-9.6-3.7s-15.1-0.2-18.9,0
	s-6.9,1-9.6,3.7s-3.5,5.9-3.7,9.6s-0.2,15.1,0,18.9s1,6.9,3.7,9.6s5.9,3.5,9.6,3.7s15.1,0.2,18.9,0s6.9-1,9.6-3.7s3.5-5.9,3.7-9.6
	S357.6,484,357.4,480.3L357.4,480.3z M352.5,503.2c-0.8,2-2.4,3.6-4.3,4.4c-3,1.2-10.1,0.9-13.5,0.9s-10.5,0.3-13.5-0.9
	c-2-0.8-3.6-2.4-4.4-4.4c-1.2-3-0.9-10.1-0.9-13.5s-0.3-10.5,0.9-13.5c0.8-2,2.4-3.6,4.4-4.3c3-1.2,10.1-0.9,13.5-0.9
	s10.5-0.3,13.5,0.9c2,0.8,3.6,2.4,4.3,4.3c1.2,3,0.9,10.1,0.9,13.5S353.7,500.2,352.5,503.2z"/>
<path id="Path_35" class="st3" d="M553.8,330.4h-30.5c-1,0-1.8,0.8-1.8,1.9v3.5H510c-2.6,0-4.7,2.1-4.7,4.7v23.3
	c0,5.3,4.3,9.7,9.6,9.7h31.3c5.1,0,9.2-4.1,9.2-9.2v-32C555.5,331.2,554.7,330.4,553.8,330.4z M521.5,339.4v21.5h-4.7v-19.4
	c0-0.7-0.1-1.5-0.4-2.1H521.5z M519.6,368c-1.2,1.2-2.8,1.8-4.5,1.9c-3.4,0-6.1-2.7-6.1-6.1v-22.3c0-1.2,1-2.1,2.1-2.1
	c1.2,0,2.1,1,2.1,2.1l0,0v21.2c0,1,0.8,1.8,1.8,1.8h6.4C521.2,365.8,520.6,367,519.6,368L519.6,368z M552,364.3
	c0,3.1-2.5,5.6-5.6,5.6h-23.6c1.5-1.7,2.3-3.9,2.3-6.1v-29.7H552V364.3z"/>
<rect x="526.5" y="336.5" class="st3" width="23" height="5"/>
<rect x="526.5" y="343.5" class="st3" width="23" height="3"/>
<rect x="526.5" y="348.5" class="st3" width="23" height="3"/>
<rect x="526.5" y="353.5" class="st3" width="23" height="3"/>
<path id="Icon_map-volume-control-telephone" class="st3" d="M801.5,402.7l1.6-1.6c0.5-0.5,0.1-1.5-0.4-1.9l-5-5
	c-0.5-0.5-0.6,0-1.1,0.4l-1.5,1.6L801.5,402.7z M810.9,412.1l1.6-1.6c0.6-0.4,1.3-0.3,1.8,0.2l5,5c0.5,0.5,0.8,1.4,0.3,1.8l-1.6,1.6
	L810.9,412.1z M804.1,409.5c-4.5-4.5-3.9-5.5-3.4-6l0.2-0.2l-6.5-6.5l-0.2,0.2c-0.9,0.9-3.7,6.5,6.4,16.5s15.7,7.2,16.5,6.4l0.2-0.2
	l-7-7l-0.2,0.2C809.7,413.4,808.7,414,804.1,409.5L804.1,409.5z M800.1,394c1.3,0.1,2.3,1.1,2.4,2.4l1.7-0.2c-0.2-2.1-1.9-3.8-4-4
	L800.1,394z M808.6,396.4c-0.2-4.4-3.7-8-8.2-8.2l-0.1,1.7c3.6,0.1,6.4,3,6.6,6.6L808.6,396.4L808.6,396.4z M812.9,396.6
	c-0.2-6.8-5.6-12.2-12.3-12.4l-0.1,1.7c5.9,0.2,10.6,4.9,10.7,10.8L812.9,396.6z M817.2,396.7c-0.2-9.1-7.5-16.4-16.5-16.6v1.7
	c8.1,0.2,14.7,6.8,14.9,14.9H817.2L817.2,396.7z"/>
<path id="Icon_metro-calculator" class="st3" d="M1038.2,488.9h-13.5c-1.5,0-2.7,1.2-2.7,2.7v13.5c0,1.5,1.2,2.7,2.7,2.7h13.5
	c1.5,0,2.7-1.2,2.7-2.7v-13.5C1040.9,490.1,1039.7,488.9,1038.2,488.9z M1038.2,499.8h-13.5v-2.7h13.5V499.8z M1059.8,488.9h-13.5
	c-1.5,0-2.7,1.2-2.7,2.7v35.2c0,1.5,1.2,2.7,2.7,2.7h13.5c1.5,0,2.7-1.2,2.7-2.7v-35.2C1062.5,490.1,1061.3,488.9,1059.8,488.9z
	 M1059.8,513.3h-13.5v-2.7h13.5V513.3z M1059.8,505.2h-13.5v-2.7h13.5V505.2z M1038.2,510.6h-13.5c-1.5,0-2.7,1.2-2.7,2.7v13.5
	c0,1.5,1.2,2.7,2.7,2.7h13.5c1.5,0,2.7-1.2,2.7-2.7v-13.5C1040.9,511.8,1039.7,510.6,1038.2,510.6L1038.2,510.6z M1038.2,521.4h-5.4
	v5.4h-2.7v-5.4h-5.4v-2.7h5.4v-5.4h2.7v5.4h5.4V521.4z"/>
<path id="Path_40" class="st3" d="M1067.9,730.8c-1.1-0.4-3-0.4-3.8-0.7c-0.6-0.2-1.2-0.4-1.8-0.8c-0.2-0.9-0.3-1.9-0.3-2.9
	c0.4-0.4,0.8-0.9,1-1.4c0.2-0.9,0.4-1.8,0.5-2.8c0,0,0.7,0.3,0.9-1c0.2-1.2,0.6-1.8,0.5-2.6s-0.6-0.6-0.6-0.6s0.6-0.8,0.6-3.8
	s-2.3-6-6.5-6s-6.5,3-6.5,6s0.6,3.8,0.6,3.8s-0.5-0.2-0.6,0.6s0.3,1.5,0.5,2.6c0.3,1.3,0.9,1,0.9,1c0.1,0.9,0.2,1.9,0.5,2.8
	c0.2,0.5,0.6,1,1,1.4c0,1-0.1,1.9-0.3,2.9c-0.5,0.4-1.1,0.6-1.8,0.8c-0.8,0.3-2.7,0.4-3.8,0.8c-2.8,1.1-4.7,3.8-4.6,6.8h28
	C1072.6,734.5,1070.8,731.8,1067.9,730.8z"/>
<path id="Path_40-2" class="st3" d="M1027.9,730.8c-1.1-0.4-3-0.4-3.8-0.7c-0.6-0.2-1.2-0.4-1.8-0.8c-0.2-0.9-0.3-1.9-0.3-2.9
	c0.4-0.4,0.8-0.9,1-1.4c0.2-0.9,0.4-1.8,0.5-2.8c0,0,0.7,0.3,0.9-1c0.2-1.2,0.6-1.8,0.5-2.6s-0.6-0.6-0.6-0.6s0.6-0.8,0.6-3.8
	s-2.3-6-6.5-6s-6.5,3-6.5,6s0.6,3.8,0.6,3.8s-0.5-0.2-0.6,0.6s0.3,1.5,0.5,2.6c0.3,1.3,0.9,1,0.9,1c0.1,0.9,0.2,1.9,0.5,2.8
	c0.2,0.5,0.6,1,1,1.4c0,1-0.1,1.9-0.3,2.9c-0.5,0.4-1.1,0.6-1.8,0.8c-0.8,0.3-2.7,0.4-3.8,0.8c-2.8,1.1-4.7,3.8-4.6,6.8h28
	C1032.6,734.5,1030.8,731.8,1027.9,730.8z"/>
<path id="Path_40-3" class="st4" d="M1051.7,731c-1.5-0.5-4-0.6-5-1c-0.8-0.2-1.6-0.6-2.3-1.1c-0.4-0.5-0.4-3.8-0.4-3.8
	c0.6-0.5,1-1.2,1.3-1.9c0.3-1.2,0.5-2.4,0.6-3.7c0,0,0.9,0.4,1.2-1.4c0.3-1.5,0.9-2.3,0.7-3.5s-0.8-0.8-0.8-0.8s0.8-1.1,0.8-5
	s-3-7.9-8.7-7.9s-8.7,3.9-8.7,7.9s0.8,5,0.8,5s-0.6-0.3-0.8,0.8s0.4,1.9,0.7,3.5c0.3,1.8,1.2,1.4,1.2,1.4c0.1,1.2,0.3,2.5,0.6,3.7
	c0.3,0.7,0.8,1.3,1.3,1.9c0,0,0,3.3-0.4,3.8c-0.7,0.5-1.5,0.9-2.3,1.1c-1.1,0.4-3.5,0.5-5,1c-3.7,1.4-6.2,5-6.1,9h37.3
	C1058,736,1055.5,732.4,1051.7,731z"/>


<path id="Icon_metro-mail-read" class="st3" d="M1488.9,706h-14.5v2.9h14.5V706z M1480.2,700.2h-5.8v2.9h5.8V700.2z M1497.6,698.9
	v-4.6h-6.4l-8.1-5.8l-8.1,5.8h-6.4v4.6l-5.8,4.1v29h40.6v-29L1497.6,698.9L1497.6,698.9z M1471.4,697.3h23.2v11.1L1483,718
	l-11.6-9.6V697.3z M1465.6,708.8l11.4,8.7l-11.4,8.7V708.8L1465.6,708.8z M1468.5,729.2l11.5-9.3l3,2.3l3-2.3l11.5,9.3H1468.5z
	 M1500.5,726.3l-11.4-8.7l11.4-8.7V726.3L1500.5,726.3z"/>
<path id="Icon_awesome-handshake" class="st3" d="M1277.3,475.5h-6.9c-0.6,0-1.3,0.2-1.7,0.7l-7.9,7.2l0,0c-1.3,1.2-1.4,3.2-0.2,4.5
	c1.2,1.2,3.2,1.3,4.5,0.2l0,0l6.4-5.9c0.6-0.4,1.4-0.4,1.8,0.2c0.4,0.5,0.4,1.2-0.1,1.7l-2.1,1.9l11.7,9.5c0.2,0.2,0.4,0.4,0.6,0.6
	v-15.5l-4.4-4.4C1278.6,475.8,1278,475.6,1277.3,475.5z M1286.1,480.7v17.9c0,1.4,1.1,2.6,2.6,2.6h5.1v-20.5H1286.1z M1289.9,498.6
	c-0.7,0-1.3-0.6-1.3-1.3c0-0.7,0.6-1.3,1.3-1.3c0.7,0,1.3,0.6,1.3,1.3l0,0C1291.2,498,1290.6,498.6,1289.9,498.6L1289.9,498.6z
	 M1242.5,501.1h5.1c1.4,0,2.6-1.1,2.6-2.6l0,0l0,0v-17.9h-7.7V501.1z M1246.4,496c0.7,0,1.3,0.6,1.3,1.3c0,0.7-0.6,1.3-1.3,1.3
	c-0.7,0-1.3-0.6-1.3-1.3S1245.7,496,1246.4,496z M1281.3,497.5l-12-9.7l-2.4,2.2c-2.4,2.1-6,1.8-8.1-0.6c-2-2.3-1.9-5.8,0.3-7.9
	l6.5-6h-6.7c-0.7,0-1.3,0.3-1.8,0.8l-4.4,4.4v17.9h1.5l7.2,6.5c2.2,1.8,5.4,1.5,7.2-0.7l0,0l1.4,1.2c1.3,1,3.1,0.8,4.2-0.4l0,0
	l2.5-3.1l0.4,0.4c1.1,0.9,2.7,0.7,3.6-0.4l0,0l0.8-0.9C1282.5,500,1282.3,498.4,1281.3,497.5L1281.3,497.5z"/>
<path id="Icon_material-assignment" class="st3" d="M1279,298.8h-7.3c-0.9-2.7-3.9-4.2-6.6-3.2c-1.5,0.5-2.7,1.7-3.2,3.2h-7.3
	c-1.9,0-3.5,1.6-3.5,3.5v24.4c0,1.9,1.6,3.5,3.5,3.5h24.4c1.9,0,3.5-1.6,3.5-3.5v-24.4C1282.5,300.4,1281,298.8,1279,298.8
	L1279,298.8z M1266.8,298.8c1,0,1.7,0.8,1.7,1.7s-0.8,1.7-1.7,1.7c-1,0-1.7-0.8-1.7-1.7l0,0l0,0
	C1265.1,299.6,1265.9,298.8,1266.8,298.8L1266.8,298.8L1266.8,298.8z M1270.3,323.2h-12.2v-3.5h12.2V323.2z M1275.6,316.2h-17.4
	v-3.5h17.4V316.2z M1275.6,309.2h-17.4v-3.5h17.4V309.2z"/>
<g id="Group_2">
	<path id="Icon_awesome-chalkboard-teacher" class="st3" d="M1436.9,164.9c-0.2,0-0.4,0-0.6,0.1c-2.2,0.8-4.6,0.8-6.8,0
		c-0.2-0.1-0.4-0.1-0.6-0.1c-5.2,0-9.3,4.2-9.3,9.3v0.1c0,2.2,1.8,4,4,3.9h18.7c2.2,0,4-1.8,4-3.9
		C1446.2,169.1,1442.1,164.9,1436.9,164.9L1436.9,164.9L1436.9,164.9z M1432.9,162.2c4.4,0,8-3.6,8-8s-3.6-8-8-8s-8,3.6-8,8l0,0
		C1424.9,158.6,1428.5,162.2,1432.9,162.2z M1468.9,135.6h-32c-2.2,0-4,1.9-4,4.1v3.9c1.9,0,3.7,0.5,5.3,1.5V141h29.3v24h-5.3v-5.3
		h-10.7v5.3h-6.3c1.6,1.4,2.8,3.3,3.3,5.3h20.4c2.2,0,4-1.9,4-4.1v-26.4C1472.9,137.4,1471.1,135.6,1468.9,135.6L1468.9,135.6z"/>
</g>
</svg>
