<?xml version="1.0" encoding="UTF-8"?>
<!DOCTYPE svg PUBLIC "-//W3C//DTD SVG 1.1//EN" "http://www.w3.org/Graphics/SVG/1.1/DTD/svg11.dtd">
<!-- Creator: CorelDRAW 2019 (64-Bit) -->
<svg xmlns="http://www.w3.org/2000/svg" xml:space="preserve" width="210mm" height="297mm" version="1.1" style="shape-rendering:geometricPrecision; text-rendering:geometricPrecision; image-rendering:optimizeQuality; fill-rule:evenodd; clip-rule:evenodd"
viewBox="0 0 21000 29700"
 xmlns:xlink="http://www.w3.org/1999/xlink">
 <defs>
  <style type="text/css">
   <![CDATA[
    .fil0 {fill:#302624}
    .fil3 {fill:#3A302F}
    .fil5 {fill:#3B3230}
    .fil4 {fill:#3D3432}
    .fil6 {fill:#CFD4D8}
    .fil7 {fill:#D2D5D8}
    .fil1 {fill:#F5E7D8}
    .fil2 {fill:#F84511}
   ]]>
  </style>
 </defs>
 <g id="Layer_x0020_1">
  <g id="_1349665456704">
   <path class="fil0" d="M13097.53 9094.59c-24.37,195.14 -30.9,714.01 -117.2,833.54 43.39,250.64 -87.24,1265.98 -116.11,1587.92 -46,512.81 -101.79,1031.31 -137.09,1544.79l-290.86 3200.61 -1081.9 -3213.8c-296.26,-635.64 -1131.84,-3650.76 -1441.89,-4119.21 -152.95,-231.08 -153.76,-397.55 -235.52,-552.92l-549.6 122.43 -62.26 123.05c-281.49,1466.6 475.43,1357.48 870.09,1932.06 -51.41,259.57 -190.52,632.5 -265.87,917.14 -121.42,458.58 -67.21,508.36 160.21,892.05 379.13,639.6 2435.8,4168.95 2683.56,4477.91l1555.82 -4994.51c115.84,-391.16 -501,-1039.9 -565.55,-1379.38 202.87,-221.79 569.16,-574.24 720.67,-839.4 88.42,-154.74 -266,-1023.63 -369.83,-1132.03 -114.33,-125 -441.21,-147.15 -610.5,-111.32l-146.17 711.07z"/>
   <path class="fil1" d="M10269.87 7792.95c-384.17,177.62 -420.42,205.6 -592.91,582.57 81.76,155.37 82.57,321.84 235.52,552.92 310.05,468.45 1145.63,3483.57 1441.89,4119.21l117.52 -2485.84c9.45,-541.63 82.28,-566.52 -206.07,-854.57 -184.3,124.87 -229.64,351.34 -507.3,409.85 -186.2,-88.76 -458.15,-534.36 -537.73,-742.92 231.2,155.34 376.75,511.19 674.46,571.23l358.41 -406.46 322.9 -454.26c209.22,14.46 492.18,265.23 615.74,421.96 237.69,125.75 327.11,310.02 641.38,317.64 331.33,-534.18 82.49,-599.07 263.85,-729.69l146.17 -711.07c-10.91,-287.79 -899.48,-524.8 -1139.84,-615.19 -78.03,319.37 -166.92,882.63 -438.28,1073.34 -263.28,4.58 -581.06,-308.35 -765.2,-475.42 -138.99,-126.09 -509.85,-526.53 -630.51,-573.3z"/>
   <path class="fil2" d="M11253.66 9538.94l284.76 306.35c-7.96,175.91 -11.57,506.95 -66.53,716.52l-117.52 2485.84 1081.9 3213.8 290.86 -3200.61 -780.63 -3179.66c35.39,-140.91 145,-263.47 245.8,-374.54 -123.56,-156.73 -406.52,-407.5 -615.74,-421.96l-322.9 454.26z"/>
   <path class="fil3" d="M8414.32 18595.05c1374.69,128.57 3136.23,-109.73 4551.57,-356.5 -313.98,-103.72 -1227.46,-1556.54 -1248.09,-1580.09 -1677.71,-1915.84 -1437.43,-1805.31 -1931.29,-3184.01 -622.16,-853.89 -1902.56,-430.55 -2316.25,-983.97 -186.56,-138.54 -211.75,203.2 -221.26,403.67 448.84,2440.09 972.38,3304.94 1165.32,5700.9z"/>
   <path class="fil0" d="M7933.51 21567.08c187.88,183.98 1721.79,385.01 2062.11,438.73 718.59,113.41 1443.63,176.41 2171.39,180.53 1524.96,-54.32 2147.58,-112.94 3060.59,-642.66l17.23 -221.31c-1979.19,336.07 -2784.83,600.36 -4884.69,214.58 -1207.42,-221.84 -2243.24,-1028.12 -2426.63,30.13z"/>
   <path class="fil4" d="M9084.61 8620.19c-456.22,13.47 -1532.39,455.27 -1960.68,682.17 -265.06,140.41 -593.9,395.95 -955.53,726.32l1074.1 2918.29c9.51,-200.48 146.86,-126.43 154.55,-402.6 156.04,208.74 1036.16,1709.94 1093.43,1940.87 104.5,136.76 350.21,577.68 381.6,736.72 94.54,81.35 360.88,596.2 386.3,731.84 113.12,93.67 387.58,633.45 413.1,782.08l683 1120.38c196.85,332.29 152.96,293.38 319.01,340.19 -19.75,-432.56 -423.91,-1071.37 -462.7,-1489.48l-599.73 -1829.37c237.94,283.19 441.09,644.53 670.21,929.23 443.9,551.6 2048.35,2261.61 2574.07,2435.27 -148.39,-7.46 -478.64,16.09 -629.12,32.89l-2212.29 78.62c-157.35,-7.11 -202.56,16.89 -322.49,19.91l-1249.35 -42.01c-45.95,197.8 -25.14,710.07 -68.5,911.58 -34.3,159.46 -324.57,1748.7 -334.88,1902.25 144.49,113.58 436.54,111.05 1077.25,238.91 1895.8,298.04 3686.39,667.68 5438.38,212.32 478.34,-128.18 263.46,-36.78 690.49,-274.2 -19.29,-740.51 222.02,-1854.68 205.33,-2596.04 31.69,-871.64 285.75,-525.32 -518.01,-561.62 -263.85,-11.93 -564.09,43.68 -826.94,31.13 42.84,-31.44 427.22,-715.63 488.85,-844.95l1115.27 -1434.26c53.55,-1121.08 -27.79,-2749.5 -125.45,-3888.17l614.69 -2448.43c-89.73,-75.06 -176.91,-144.48 -254.47,-201.5 -370.06,-271.98 -511.37,-368.99 -934.3,-532.91 -311.42,-120.71 -813.11,-298.48 -1155.6,-350.78 58.82,218.82 429.63,975.93 341.2,1130.66 -151.51,265.17 -584.39,579.11 -787.26,800.9 64.54,339.48 671.74,1005.42 555.9,1396.58l-1471.91 4901.38c-247.76,-308.95 -2237.95,-3751.24 -2617.08,-4390.85 -227.42,-383.68 -281.84,-429.06 -160.42,-887.64 75.36,-284.64 222.64,-643.93 274.05,-903.5 -394.66,-574.58 -1185.57,-455.58 -904.07,-1922.18z"/>
   <path class="fil1" d="M11927.42 9864.81l799.71 3196.03c35.3,-513.48 91.09,-1031.98 137.09,-1544.79 28.87,-321.94 159.5,-1337.28 116.11,-1587.92l-9.93 -213.27c-107.63,383.34 -570.02,14.03 -741.67,-110.31 -120.26,98.09 -157.68,200.7 -301.31,260.26z"/>
   <path class="fil5" d="M14603.32 17157.08c-61.63,129.32 -812.7,1096.21 -855.54,1127.65 89.99,4.3 1732.13,45.08 1739.29,42.69 105.5,-822.12 188.77,-2012.64 218.75,-2656.18l-1102.5 1485.84z"/>
   <path class="fil6" d="M11471.89 10561.81c72.87,-123.37 83.54,-554.87 91.5,-730.78l-309.73 -292.09 -358.41 406.46c-297.71,-60.04 -443.26,-415.89 -674.46,-571.23 79.58,208.56 351.53,654.16 537.73,742.92 277.66,-58.51 323,-284.98 507.3,-409.85 288.35,288.05 215.52,312.94 206.07,854.57z"/>
   <path class="fil7" d="M12192.3 9506.64c-100.8,111.07 -229.49,217.26 -264.88,358.17 143.63,-59.56 181.05,-162.17 301.31,-260.26 171.65,124.34 634.04,493.65 741.67,110.31l9.93 213.27c86.3,-119.53 92.83,-638.4 117.2,-833.54 -181.36,130.62 67.48,195.51 -263.85,729.69 -314.27,-7.62 -403.69,-191.89 -641.38,-317.64z"/>
  </g>
 </g>
</svg>
