<?xml version="1.0" encoding="UTF-8"?>
<!DOCTYPE svg PUBLIC "-//W3C//DTD SVG 1.1//EN" "http://www.w3.org/Graphics/SVG/1.1/DTD/svg11.dtd">
<!-- Creator: CorelDRAW 2019 (64-Bit) -->
<svg xmlns="http://www.w3.org/2000/svg" xml:space="preserve" width="210mm" height="297mm" version="1.1" style="shape-rendering:geometricPrecision; text-rendering:geometricPrecision; image-rendering:optimizeQuality; fill-rule:evenodd; clip-rule:evenodd"
viewBox="0 0 21000 29700"
 xmlns:xlink="http://www.w3.org/1999/xlink">
 <defs>
  <style type="text/css">
   <![CDATA[
    .fil1 {fill:#3E3533}
    .fil8 {fill:#3F3634}
    .fil2 {fill:#534946}
    .fil7 {fill:#CB4453}
    .fil5 {fill:#DD5664}
    .fil4 {fill:#F5E7D8}
    .fil3 {fill:#F69D7D}
    .fil6 {fill:#F69F80}
    .fil0 {fill:#FBBFA3}
   ]]>
  </style>
 </defs>
 <g id="Layer_x0020_1">
  <g id="_1349481834144">
   <g>
    <path class="fil0" d="M13364.25 15687.29c101,-74.84 75.09,-65.58 203.54,-56.7 -90.72,370.51 -234.21,555.98 -606.84,634.42 -241.85,16.3 -496.87,-7.08 -688.58,-166.39 -111.21,-92.41 -338.89,-365.19 -242.55,-481.65l-40.16 -241.19c339.97,71.65 507.58,191.72 987.87,243.27 141.79,15.22 307.43,-10.23 386.72,68.24zm-3694.6 -1626.87c32.99,100.77 87.43,243.39 74.68,349.85 -22.64,188.89 -108.38,96.43 -230.55,221.19 -33.46,229.13 144.84,221.57 54.54,470.55 -225.02,99.49 -346.12,-57.46 -349.18,-265.62 -170.31,-145.33 -206.96,-704.84 -113.29,-915.7 160.04,-360.35 469.26,-126.1 563.8,139.73zm3276.69 62.87c175.53,117.4 770.33,1341.44 139.34,1298.88 73.99,-134.97 158.52,-148.39 135.38,-347.9 -22.58,-194.68 -317.38,-671.89 -274.72,-950.98zm-1690.32 -679.19c37.2,-268.07 613.04,-433.15 981.98,-246.71 266.45,134.65 200.37,147.37 203.01,200.37 -249.22,-52.17 -358.31,-141.77 -648,-112.89 -233.85,23.32 -357.83,129.05 -536.99,159.23zm2150.9 -51.22c156.97,-422.29 1064.13,-430.88 1201.76,-61.08 -256.29,-23.99 -353.69,-132.04 -668.29,-98.58 -211.37,22.48 -359.08,130.84 -533.47,159.66zm-4390.85 151.29c-548.77,552.59 -280.01,1700.43 457.36,1963.67 634.62,226.55 201.53,-97.75 658.73,783.35 332.3,640.4 958.91,897.73 1023.9,990.81 47.27,67.72 256.23,655.7 259.62,740.71 120.66,46.77 491.52,447.21 630.51,573.3 184.14,167.07 501.92,480 765.2,475.42 271.36,-190.71 360.25,-753.97 438.28,-1073.34 -792.5,31.94 -1299.02,-312.54 -1938.46,-673.1 314.35,98.33 531.66,164.55 868.65,197.1 386.65,37.33 675.66,-24.85 1026.3,-13.86 281.33,-110.46 793.54,-129.39 1158.2,-579.57 561.04,-692.63 483.32,-1327.63 530.29,-2235.4 9.36,-180.95 -3.26,-238.13 -13.89,-391.87 -30.04,-434.43 93.48,-1170.01 38.1,-1753.74 -10.54,-111.22 -47.22,-272.22 -44.72,-383.63 -1003.66,77.27 -827.56,-117.48 -1419.29,-310.09 -345.19,-112.35 -505.54,434.55 -1312.53,-218.88 -473.59,187.17 -595.16,266.12 -1139.09,278.77 25.75,349.06 88.56,604.95 -66.45,945.71 -161.74,355.56 -307.24,332.9 -553.33,520.52l-51.41 1053.34 -287.23 -17.51c-81.33,-414.58 -168.34,-651.52 -462.22,-933.48 -262.34,-50.67 -331.53,-22.78 -566.52,61.77z"/>
    <path class="fil1" d="M15061.54 10148.78c-126.23,123.02 -561.23,432.47 -729.54,495.51 -607.85,424.54 -1573.7,731.66 -2292.63,873.77 -1580.42,312.41 -2725.89,-98.51 -2908.33,-74.33l-362.43 -112.92 -442.35 304.51 410.74 257.04c16.68,325.87 102.15,1457.65 279.07,1651.81 234.99,-84.55 304.18,-112.44 566.52,-61.77 293.88,281.96 380.89,518.9 462.22,933.48l287.23 17.51 51.41 -1053.34c246.09,-187.62 391.59,-164.96 553.33,-520.52 155.01,-340.76 92.2,-596.65 66.45,-945.71 543.93,-12.65 665.5,-91.6 1139.09,-278.77 806.99,653.43 967.34,106.53 1312.53,218.88 591.73,192.61 415.63,387.36 1419.29,310.09 441.22,-93.12 790.79,-514.62 884.16,-934.03 102.03,-458.42 2.53,-999.79 -315.12,-1366.94 -135.16,100.1 -214.62,239.51 -381.64,285.73z"/>
    <path class="fil1" d="M9142.89 10889.05c738.6,48.75 1477.85,29.84 2209.16,-75.74 693.39,-100.11 1194.4,-263.22 1845.2,-415.36l1508.2 -587.83c63.9,-10.62 539.1,-62.32 559.85,-109.66 5.99,-13.67 18.69,-12.18 27.83,-18.57 -1032.55,-1156.23 -2857.58,-1173.96 -4086.92,-435.37 -548.32,329.44 -711.69,672.93 -1310.07,895.14 -271.06,100.66 -611.81,180.9 -903.36,192.89 -11.77,237.2 34.97,356.36 150.11,554.5z"/>
    <path class="fil2" d="M9130.56 11453.72c182.45,-24.19 1327.91,386.74 2908.33,74.33 718.93,-142.11 1684.78,-449.23 2292.64,-873.77 168.31,-63.04 603.31,-372.49 729.53,-495.52 167.02,-46.21 246.49,-185.62 381.65,-285.72l-149.1 -201.13c-9.14,6.39 -21.85,4.89 -27.84,18.56 -20.74,47.34 -495.95,99.04 -559.85,109.66l-1508.2 587.83c-650.8,152.14 -1151.8,315.25 -1845.2,415.37 -731.31,105.58 -1470.55,124.48 -2209.16,75.73l102.85 164.84 -478.08 296.9 362.43 112.92z"/>
    <path class="fil3" d="M13249.67 17998.09l-43.51 -489.86c-350.64,-10.99 -639.65,51.19 -1026.3,13.86 -336.99,-32.55 -554.3,-98.77 -868.65,-197.1 639.44,360.56 1145.96,705.04 1938.46,673.1z"/>
    <path class="fil4" d="M12029.82 15616.97c267.11,124.87 367.84,174.17 668.61,228.92 199.89,30.27 455.86,64.61 632.4,-26.1l33.42 -132.5c-79.29,-78.47 -244.93,-53.02 -386.72,-68.24 -480.29,-51.55 -647.9,-171.62 -987.87,-243.27l40.16 241.19z"/>
    <path class="fil5" d="M12960.95 16265.01l-262.52 -419.12c-300.77,-54.75 -401.5,-104.05 -668.61,-228.92 -96.34,116.46 131.34,389.24 242.55,481.65 191.71,159.31 446.73,182.69 688.58,166.39z"/>
    <path class="fil6" d="M9219.14 14836.39c3.06,208.16 124.16,365.11 349.18,265.62 90.3,-248.98 -88,-241.42 -54.54,-470.55 122.17,-124.76 207.91,-32.3 230.55,-221.19 12.75,-106.46 -41.69,-249.08 -74.68,-349.85 -94.54,-265.83 -403.76,-500.08 -563.8,-139.73 -93.67,210.86 -57.02,770.37 113.29,915.7z"/>
    <path class="fil7" d="M13364.25 15687.29l-33.42 132.5c-176.54,90.71 -432.51,56.37 -632.4,26.1l262.52 419.12c372.63,-78.44 516.12,-263.91 606.84,-634.42 -128.45,-8.88 -102.54,-18.14 -203.54,56.7z"/>
    <path class="fil6" d="M13085.68 15422.17c630.99,42.56 36.19,-1181.48 -139.34,-1298.88 -42.66,279.09 252.14,756.3 274.72,950.98 23.14,199.51 -61.39,212.93 -135.38,347.9z"/>
    <path class="fil8" d="M11256.02 13444.1c179.16,-30.18 303.14,-135.91 536.99,-159.23 289.69,-28.88 398.78,60.72 648,112.89 -2.64,-53 63.44,-65.72 -203.01,-200.37 -368.94,-186.44 -944.78,-21.36 -981.98,246.71z"/>
    <path class="fil8" d="M13406.92 13392.88c174.39,-28.82 322.1,-137.18 533.47,-159.66 314.6,-33.46 412,74.59 668.29,98.58 -137.63,-369.8 -1044.79,-361.21 -1201.76,61.08z"/>
   </g>
   <ellipse class="fil8" cx="11862.08" cy="14006.77" rx="383.64" ry="299.86"/>
   <ellipse class="fil8" cx="13949.08" cy="14006.77" rx="383.64" ry="299.86"/>
  </g>
 </g>
</svg>
