<?xml version="1.0" encoding="UTF-8"?>
<!DOCTYPE svg PUBLIC "-//W3C//DTD SVG 1.1//EN" "http://www.w3.org/Graphics/SVG/1.1/DTD/svg11.dtd">
<!-- Creator: CorelDRAW 2019 (64-Bit) -->
<svg xmlns="http://www.w3.org/2000/svg" xml:space="preserve" width="210mm" height="297mm" version="1.1" style="shape-rendering:geometricPrecision; text-rendering:geometricPrecision; image-rendering:optimizeQuality; fill-rule:evenodd; clip-rule:evenodd"
viewBox="0 0 21000 29700"
 xmlns:xlink="http://www.w3.org/1999/xlink">
 <defs>
  <style type="text/css">
   <![CDATA[
    .fil2 {fill:#3D3432}
    .fil1 {fill:#F5E7D8}
    .fil0 {fill:#FBBFA3}
   ]]>
  </style>
 </defs>
 <g id="Layer_x0020_1">
  <g id="_1349482111232">
   <g>
    <path class="fil0" d="M11572.35 20304.42c181.9,497.7 546.36,324.35 844.12,628.11 253.58,258.69 243.42,602.21 62.69,899.85 362.96,376.69 361.15,787.05 -8.82,1088.43 -369.97,301.37 -358.25,-89.65 -657.97,121.24 -392.96,324.92 -390.36,-40.2 -641.16,82.05 -161.88,64.4 -248.68,162.59 -489.29,109.15 -242.6,-95.5 -140.88,-296.48 -191.09,-470.78 -256.76,-529.2 -491.48,-983.33 -109.71,-1477.29 28.99,-316.67 164.38,-532.05 133.71,-860.16 158.14,-44.92 369.83,1.37 536,-21.99 139.02,-19.55 423.59,-98.91 521.52,-98.61z"/>
    <path class="fil1" d="M11805.97 19919.69l33.15 306.06c-386.9,157.25 -1141.19,270.08 -1529.42,176.82l-81.35 -314.32c38.02,-9.48 1518.06,-178.32 1577.62,-168.56z"/>
   </g>
   <path class="fil2" d="M10895.5 7442.25c-1472.37,1610.5 -1552.46,3664.31 -1895.95,6309.6 443.38,2423.87 423.88,4054.36 1058.88,6429.73 742.78,-171.14 1214.92,-202.05 1933.54,-233.83 -165.57,-2311.45 -260.74,-4286.1 -487.7,-5878.4 278.74,-1112.47 513,-3069.41 671.49,-3836.28 168.12,-721.97 359.84,-1121.47 -1.21,-1667.05 -372.36,-397.94 -906.69,-725.83 -1279.05,-1123.77z"/>
  </g>
 </g>
</svg>
