<?xml version="1.0" encoding="UTF-8"?>
<!DOCTYPE svg PUBLIC "-//W3C//DTD SVG 1.1//EN" "http://www.w3.org/Graphics/SVG/1.1/DTD/svg11.dtd">
<!-- Creator: CorelDRAW 2019 (64-Bit) -->
<svg xmlns="http://www.w3.org/2000/svg" xml:space="preserve" width="210mm" height="297mm" version="1.1" style="shape-rendering:geometricPrecision; text-rendering:geometricPrecision; image-rendering:optimizeQuality; fill-rule:evenodd; clip-rule:evenodd"
viewBox="0 0 21000 29700"
 xmlns:xlink="http://www.w3.org/1999/xlink">
 <defs>
  <style type="text/css">
   <![CDATA[
    .fil0 {fill:#302624}
    .fil1 {fill:#3D3432}
   ]]>
  </style>
 </defs>
 <g id="Layer_x0020_1">
  <g id="_1349485626480">
   <path class="fil0" d="M8786.53 23282.75c0,748.47 -105.83,1416.03 -105.83,2149.37l4435.93 -0.18c536.35,-687.27 -602.28,-890.23 -1049.48,-1093.21 -397.6,-180.47 -828.25,-386.84 -1185.04,-649.41 -229.44,-168.85 -169.62,-145.18 -466.75,-168.24l29.23 -273.61c-716.92,104.1 -909.74,173.84 -1658.06,35.28z"/>
   <path class="fil1" d="M8786.53 23322.75c1040.07,164.5 1360,54.91 2112.65,-172.83l39.31 -993.9c-6.19,-2645.37 531.34,-5695.78 705.55,-8375.06 -203.09,95.09 -475.97,-2394.74 -712.51,-2265.68 -387.65,211.51 -500.13,144.61 -848.63,-89.81 -433.18,-291.4 -375.8,-306.31 -645.65,-556.81 -289.63,-268.85 -353.97,-355.52 -393.49,-775.45 -44.69,-474.8 -772.36,-1365.37 -856.95,-1526.34 71.53,1580.77 321.88,3086.78 354.32,4702.44 52.24,2601.45 -142.65,5209.31 -142.65,7804.97l35.28 1011.18c0,1149.16 -116.24,1109.22 352.77,1237.29z"/>
   <path class="fil1" d="M8186.81 8546.87c84.59,160.97 794.63,3767.92 839.32,4242.72 39.52,419.93 103.86,506.6 393.49,775.45 269.85,250.5 212.47,265.41 645.65,556.81 348.5,234.42 460.98,301.32 848.63,89.81 236.54,-129.06 527.05,-355.61 730.14,-450.7 248.86,-3255.21 -70.38,-6151.31 -71.95,-9406.34 2.74,-176.73 36.67,-221.76 36.67,-651.42l-26.95 -73.27c-234.34,84.41 -487.79,245.21 -744.29,342.05 -879.75,332.12 -1703.13,477.75 -2649.97,520.17 -80.51,3.61 -517.41,3.94 -611.94,175.94 -371.17,675.41 612.11,3022.91 611.2,3878.78z"/>
  </g>
 </g>
</svg>
