<?xml version="1.0" encoding="UTF-8"?>
<!DOCTYPE svg PUBLIC "-//W3C//DTD SVG 1.1//EN" "http://www.w3.org/Graphics/SVG/1.1/DTD/svg11.dtd">
<!-- Creator: CorelDRAW 2019 (64-Bit) -->
<svg xmlns="http://www.w3.org/2000/svg" xml:space="preserve" width="210mm" height="297mm" version="1.1" style="shape-rendering:geometricPrecision; text-rendering:geometricPrecision; image-rendering:optimizeQuality; fill-rule:evenodd; clip-rule:evenodd"
viewBox="0 0 21000 29700"
 xmlns:xlink="http://www.w3.org/1999/xlink">
 <defs>
  <style type="text/css">
   <![CDATA[
    .fil0 {fill:#302624}
    .fil1 {fill:#3D3432}
   ]]>
  </style>
 </defs>
 <g id="Layer_x0020_1">
  <g id="_1349658190656">
   <path class="fil0" d="M7545.7 23490.22c-113.34,739.83 -319.04,1383.67 -430.09,2108.55l4384.8 671.56c634.24,-598.12 -460.53,-971.17 -871.83,-1239.53 -365.69,-238.59 -760.12,-507.8 -1073.03,-821.37 -201.23,-201.65 -145.68,-169.19 -435.89,-236.98l70.32 -266.03c-724.41,-5.66 -925.57,34.08 -1644.28,-216.2z"/>
   <path class="fil1" d="M7534.23 23596.02c1013.63,285.27 1344.2,213.93 2118.35,75.97l155.52 -982.44c303.9,-2627.87 923.21,-5697.4 1410.24,-8337.8 -212.84,70.64 79.99,-2330.87 -170.05,-2230.43 -409.76,164.62 -513.63,85 -832.25,-188.65 -396.05,-340.16 -337.31,-348.24 -575.94,-628.64 -256.13,-300.94 -309.87,-394.56 -299.9,-816.22 11.27,-476.77 -607.01,-1446.48 -672.16,-1616.26l-56.59 781.91c-477.23,3864.27 -741.8,7789.42 -1199.07,11664.11l-83.47 1008.35c-134.69,1141.24 -245.44,1087.95 205.32,1270.1z"/>
   <path class="fil1" d="M8537.55 5960.27c-6.82,816.37 238.19,2006.79 132.84,2891.42 65.14,169.77 75.53,3731.94 64.27,4208.71 -9.97,421.66 43.77,515.28 299.89,816.22 238.63,280.4 179.9,288.48 575.95,628.64 318.62,273.65 422.48,353.27 832.25,188.65 250.04,-100.44 565.1,-291.39 777.93,-362.02 631.97,-3220.49 1030.37,-6623.82 1415.76,-9889.44l-18.18 -75.92c-1467.5,-23.47 -1915.54,-146.24 -3712.76,438.49 -236.57,387.48 -316.02,701.7 -367.95,1155.25z"/>
  </g>
 </g>
</svg>
