<svg xmlns="http://www.w3.org/2000/svg" width="65.743" height="86.22" viewBox="0 0 418.69 549.1" shape-rendering="geometricPrecision" text-rendering="geometricPrecision" image-rendering="optimizeQuality" fill-rule="evenodd" clip-rule="evenodd"><path d="M204.05 16.24c1.29 1.14 1.82-.38 1.95 6.28l-.65 93.5h-25.1c-.41-10.62.04-22.29.04-32.91 0-4.52-1.24-31.58 1.13-33.33 6.6-9.12 2.92-18.78-7.47-16.43-3.98.9-6.58 4.2-6.44 8.57.22 6.77 3.68 4.12 4.35 11.57 1.64 18.12-.35 42.96-.02 62.52h-24.36c.11-7.57.08-15.11-.01-22.64-.18-15.66 5.24-9.81 4.05-22.33-4.39-8.71-23.94-5.34-14.8 10.11 3.51 5.94 2.07 25.25 1.86 34.85h-16.33c-1.63-5.13-2-11.57-3.39-16.84C99.58 25.83 17.03 22.64 1.9 77.72c-4.92 17.88 1.41 40.99 14.38 51.8 22.15 18.46 34.76 13.5 54.2 10.4 12.65 64.93-129.79 191.36-41.39 289.66 26.82 29.83 83 40.82 87.27 43.61-1.1 5.17-5.61 12.17-8.64 16.62l-18.88 32.6c-1.1 4.46-.5 21.23-.27 26.67l241.9-.01c1.09-28.99 2.07-22.74-9.11-42.28-5.21-9.1-15.44-24.59-18.9-33.6 6.01-4.08 17.21-5.11 24.47-7.54 62.14-20.79 100.01-59.39 89.96-134.23-7.72-57.53-77.32-152.49-68.34-191.57 15.31 2.93 22.67 5.67 38.31-.44 36.99-14.46 42.84-66.73 11.72-89.56-23.01-16.89-51.4-10.71-71.07 4.51-25.33 19.6-27.94 51.12-30.91 61.64h-16.13c.01-8.14.04-16.04-.05-23.94-.08-6.94-.82-6.35 1.88-10.92 9.05-15.34-10.33-18.93-14.79-10.12-1.25 13.05 4.16 6.23 4.06 21.03-.06 7.98-.13 15.97-.03 23.95h-24.39V57.25c-.03-8.36-.46-5.12 2.43-10.09 10.36-17.76-22.76-18.53-14.59-1.23 2.47 5.24 2.83.14 3.39 8.74l.05 61.33h-24.47l.33-97.96c1.18-4.56 6.74-7.74 2.45-14.3-5.37-8.2-22.89-2.52-12.7 12.48zm43.2 373.72c7.3-.19 17.8-1.17 23.91-4.29l.34-249.35-24 .11-.26 253.53zm-108.58-6.45l-.12-247.1-15.07-.13c-3.2 13.36-4.51 23.01-8.76 36.13-3.86 11.91-8.22 22.38-12.42 33.97-8.21 22.67-17.79 43.84-24.11 67.27-7 25.95-11.78 53.32 3.29 75.24 9.31 13.53 32.77 31.07 57.18 34.63zm141.8 0c10.5-1.56 24.76-7.89 32.51-12.85 38.44-24.61 40.52-51.22 27.89-97.05-9.24-33.54-25.28-67.12-36.21-100.24-4.32-13.07-5.64-23.67-9.12-37.14l-14.57.15-.49 247.14zm-132.94 2.15c6.42 3.11 16.98 4.13 23.78 4.29l.49-253.33-23.76-.34-.51 249.37zm91.02-249.35h-24.99l-.38 255.43c6.96 1.46 19.35 2.16 24.42-1.11 2.66-1.35.91.99 1.69-2.47l-.48-251.75-.26-.1zm-33 0h-25.11l-.23.08-.19 250.6c.54 3.62-.27 1.77 1.71 3.61l22.84 1.49c1.78-2.1 1.8-3.34 1.81-7.7l-.83-248.09z" fill="#d7b56d"/></svg>